<?xml version="1.0" encoding="UTF-8" standalone="no"?>
<!DOCTYPE svg PUBLIC "-//W3C//DTD SVG 1.1//EN"
 "http://www.w3.org/Graphics/SVG/1.1/DTD/svg11.dtd">
<!-- Generated by graphviz version 7.0.5 (20221231.0122)
 -->
<!-- Title: Immunopipe Pages: 1 -->
<svg width="1832pt" height="965pt"
 viewBox="0.00 0.00 1832.00 965.00" xmlns="http://www.w3.org/2000/svg" xmlns:xlink="http://www.w3.org/1999/xlink">
<g id="graph0" class="graph" transform="scale(1 1) rotate(0) translate(4 961)">
<title>Immunopipe</title>
<polygon fill="white" stroke="none" points="-4,4 -4,-961 1828,-961 1828,4 -4,4"/>
<text text-anchor="middle" x="912" y="-941.8" font-family="Helvetica,sans-Serif" font-size="14.00">Immunopipe</text>
<text text-anchor="middle" x="912" y="-926.8" font-family="Helvetica,sans-Serif" font-size="14.00"> </text>
<g id="clust1" class="cluster">
<title>cluster_ScrnaMetabolicLandscape</title>
<polygon fill="#eeeeee" stroke="#eeeeee" points="500,-8 500,-227 1267,-227 1267,-8 500,-8"/>
<text text-anchor="middle" x="598" y="-211.8" font-family="Helvetica,sans-Serif" font-size="14.00">ScrnaMetabolicLandscape</text>
</g>
<!-- MetabolicInput -->
<g id="node1" class="node">
<title>MetabolicInput</title>
<g id="a_node1"><a xlink:title="This process takes Seurat object as input and pass it to the next processes in the `ScrnaMetabolicLandscape` group.">
<path fill="#219ebc" stroke="none" d="M751.5,-196C751.5,-196 670.5,-196 670.5,-196 664.5,-196 658.5,-190 658.5,-184 658.5,-184 658.5,-172 658.5,-172 658.5,-166 664.5,-160 670.5,-160 670.5,-160 751.5,-160 751.5,-160 757.5,-160 763.5,-166 763.5,-172 763.5,-172 763.5,-184 763.5,-184 763.5,-190 757.5,-196 751.5,-196"/>
<text text-anchor="middle" x="711" y="-174.9" font-family="Helvetica,sans-Serif" font-size="12.00" fill="#ffffff">MetabolicInput</text>
</a>
</g>
</g>
<!-- MetabolicExprImpution -->
<g id="node2" class="node">
<title>MetabolicExprImpution</title>
<g id="a_node2"><a xlink:title="This process imputes the dropout values in scRNA&#45;seq data.">
<path fill="#219ebc" stroke="none" d="M821.5,-124C821.5,-124 690.5,-124 690.5,-124 684.5,-124 678.5,-118 678.5,-112 678.5,-112 678.5,-100 678.5,-100 678.5,-94 684.5,-88 690.5,-88 690.5,-88 821.5,-88 821.5,-88 827.5,-88 833.5,-94 833.5,-100 833.5,-100 833.5,-112 833.5,-112 833.5,-118 827.5,-124 821.5,-124"/>
<text text-anchor="middle" x="756" y="-102.9" font-family="Helvetica,sans-Serif" font-size="12.00" fill="#ffffff">MetabolicExprImpution</text>
</a>
</g>
</g>
<!-- MetabolicInput&#45;&gt;MetabolicExprImpution -->
<g id="edge4" class="edge">
<title>MetabolicInput&#45;&gt;MetabolicExprImpution</title>
<path fill="none" stroke="#3d314a" d="M721.89,-160.05C727.37,-151.54 734.1,-141.07 740.13,-131.68"/>
<polygon fill="#3d314a" stroke="#3d314a" points="742.42,-133.31 744.39,-125.06 737.71,-130.28 742.42,-133.31"/>
</g>
<!-- MetabolicFeatures -->
<g id="node3" class="node">
<title>MetabolicFeatures</title>
<g id="a_node3"><a xlink:title="This process performs enrichment analysis for the metabolic pathways for each group in each subset.">
<polygon fill="#f26419" stroke="none" points="633.5,-52 508.5,-52 508.5,-16 633.5,-16 633.5,-52"/>
<text text-anchor="middle" x="571" y="-30.9" font-family="Helvetica,sans-Serif" font-size="12.00" fill="#ffffff">MetabolicFeatures</text>
</a>
</g>
</g>
<!-- MetabolicExprImpution&#45;&gt;MetabolicFeatures -->
<g id="edge3" class="edge">
<title>MetabolicExprImpution&#45;&gt;MetabolicFeatures</title>
<path fill="none" stroke="#3d314a" d="M711.22,-88.05C685.07,-78.16 651.91,-65.62 624.41,-55.21"/>
<polygon fill="#3d314a" stroke="#3d314a" points="625.58,-52.66 617.11,-52.45 623.6,-57.9 625.58,-52.66"/>
</g>
<!-- MetabolicPathwayHeterogeneity -->
<g id="node4" class="node">
<title>MetabolicPathwayHeterogeneity</title>
<g id="a_node4"><a xlink:title="Calculate Metabolic Pathway heterogeneity.">
<polygon fill="#f26419" stroke="none" points="860.5,-52 651.5,-52 651.5,-16 860.5,-16 860.5,-52"/>
<text text-anchor="middle" x="756" y="-30.9" font-family="Helvetica,sans-Serif" font-size="12.00" fill="#ffffff">MetabolicPathwayHeterogeneity</text>
</a>
</g>
</g>
<!-- MetabolicExprImpution&#45;&gt;MetabolicPathwayHeterogeneity -->
<g id="edge1" class="edge">
<title>MetabolicExprImpution&#45;&gt;MetabolicPathwayHeterogeneity</title>
<path fill="none" stroke="#3d314a" d="M756,-88.05C756,-79.97 756,-70.12 756,-61.11"/>
<polygon fill="#3d314a" stroke="#3d314a" points="758.8,-61.3 756,-53.3 753.2,-61.3 758.8,-61.3"/>
</g>
<!-- MetabolicFeaturesIntraSubset -->
<g id="node5" class="node">
<title>MetabolicFeaturesIntraSubset</title>
<g id="a_node5"><a xlink:title="Intra&#45;subset metabolic features &#45; Enrichment analysis in details">
<polygon fill="#f26419" stroke="none" points="1073,-52 879,-52 879,-16 1073,-16 1073,-52"/>
<text text-anchor="middle" x="976" y="-30.9" font-family="Helvetica,sans-Serif" font-size="12.00" fill="#ffffff">MetabolicFeaturesIntraSubset</text>
</a>
</g>
</g>
<!-- MetabolicExprImpution&#45;&gt;MetabolicFeaturesIntraSubset -->
<g id="edge5" class="edge">
<title>MetabolicExprImpution&#45;&gt;MetabolicFeaturesIntraSubset</title>
<path fill="none" stroke="#3d314a" d="M809.26,-88.05C840.89,-77.99 881.15,-65.18 914.18,-54.67"/>
<polygon fill="#3d314a" stroke="#3d314a" points="914.64,-57.46 921.41,-52.37 912.94,-52.13 914.64,-57.46"/>
</g>
<!-- MetabolicPathwayActivity -->
<g id="node6" class="node">
<title>MetabolicPathwayActivity</title>
<g id="a_node6"><a xlink:title="This process calculates the pathway activities in different groups and subsets.">
<polygon fill="#f26419" stroke="none" points="1259,-52 1091,-52 1091,-16 1259,-16 1259,-52"/>
<text text-anchor="middle" x="1175" y="-30.9" font-family="Helvetica,sans-Serif" font-size="12.00" fill="#ffffff">MetabolicPathwayActivity</text>
</a>
</g>
</g>
<!-- MetabolicExprImpution&#45;&gt;MetabolicPathwayActivity -->
<g id="edge2" class="edge">
<title>MetabolicExprImpution&#45;&gt;MetabolicPathwayActivity</title>
<path fill="none" stroke="#3d314a" d="M833.47,-92.84C897.43,-82.71 990.85,-67.67 1082.24,-51.94"/>
<polygon fill="#3d314a" stroke="#3d314a" points="1082.46,-54.74 1089.87,-50.63 1081.51,-49.23 1082.46,-54.74"/>
</g>
<!-- SeuratClusterStats -->
<g id="node7" class="node">
<title>SeuratClusterStats</title>
<polygon fill="#f26419" stroke="none" points="1403,-196 1275,-196 1275,-160 1403,-160 1403,-196"/>
<text text-anchor="middle" x="1339" y="-174.9" font-family="Helvetica,sans-Serif" font-size="12.00" fill="#ffffff">SeuratClusterStats</text>
</g>
<!-- SampleInfo -->
<g id="node8" class="node">
<title>SampleInfo</title>
<g id="a_node8"><a xlink:title="List sample information and perform statistics">
<polygon fill="#4c956c" stroke="none" points="573,-919 499,-901 573,-883 647,-901 573,-919"/>
<text text-anchor="middle" x="573" y="-897.9" font-family="Helvetica,sans-Serif" font-size="12.00" fill="#ffffff">SampleInfo</text>
</a>
</g>
</g>
<!-- SeuratPreparing -->
<g id="node9" class="node">
<title>SeuratPreparing</title>
<g id="a_node9"><a xlink:title="Load, prepare and apply QC to data, using `Seurat`">
<path fill="#219ebc" stroke="none" d="M681.5,-847C681.5,-847 592.5,-847 592.5,-847 586.5,-847 580.5,-841 580.5,-835 580.5,-835 580.5,-823 580.5,-823 580.5,-817 586.5,-811 592.5,-811 592.5,-811 681.5,-811 681.5,-811 687.5,-811 693.5,-817 693.5,-823 693.5,-823 693.5,-835 693.5,-835 693.5,-841 687.5,-847 681.5,-847"/>
<text text-anchor="middle" x="637" y="-825.9" font-family="Helvetica,sans-Serif" font-size="12.00" fill="#ffffff">SeuratPreparing</text>
</a>
</g>
</g>
<!-- SampleInfo&#45;&gt;SeuratPreparing -->
<g id="edge24" class="edge">
<title>SampleInfo&#45;&gt;SeuratPreparing</title>
<path fill="none" stroke="#3d314a" d="M585.64,-886.17C594.13,-876.89 605.53,-864.42 615.43,-853.59"/>
<polygon fill="#3d314a" stroke="#3d314a" points="617.32,-855.67 620.65,-847.88 613.19,-851.9 617.32,-855.67"/>
</g>
<!-- ImmunarchLoading -->
<g id="node21" class="node">
<title>ImmunarchLoading</title>
<path fill="#219ebc" stroke="none" d="M542.5,-775C542.5,-775 433.5,-775 433.5,-775 427.5,-775 421.5,-769 421.5,-763 421.5,-763 421.5,-751 421.5,-751 421.5,-745 427.5,-739 433.5,-739 433.5,-739 542.5,-739 542.5,-739 548.5,-739 554.5,-745 554.5,-751 554.5,-751 554.5,-763 554.5,-763 554.5,-769 548.5,-775 542.5,-775"/>
<text text-anchor="middle" x="488" y="-753.9" font-family="Helvetica,sans-Serif" font-size="12.00" fill="#ffffff">ImmunarchLoading</text>
</g>
<!-- SampleInfo&#45;&gt;ImmunarchLoading -->
<g id="edge17" class="edge">
<title>SampleInfo&#45;&gt;ImmunarchLoading</title>
<path fill="none" stroke="#3d314a" d="M564.22,-885.34C549.72,-861.11 520.6,-812.47 502.85,-782.81"/>
<polygon fill="#3d314a" stroke="#3d314a" points="505.46,-781.71 498.95,-776.29 500.65,-784.59 505.46,-781.71"/>
</g>
<!-- SeuratClusteringOfAllCells -->
<g id="node13" class="node">
<title>SeuratClusteringOfAllCells</title>
<g id="a_node13"><a xlink:title="Cluster all cells using Seurat">
<path fill="#219ebc" stroke="none" d="M747.5,-775C747.5,-775 598.5,-775 598.5,-775 592.5,-775 586.5,-769 586.5,-763 586.5,-763 586.5,-751 586.5,-751 586.5,-745 592.5,-739 598.5,-739 598.5,-739 747.5,-739 747.5,-739 753.5,-739 759.5,-745 759.5,-751 759.5,-751 759.5,-763 759.5,-763 759.5,-769 753.5,-775 747.5,-775"/>
<text text-anchor="middle" x="673" y="-753.9" font-family="Helvetica,sans-Serif" font-size="12.00" fill="#ffffff">SeuratClusteringOfAllCells</text>
</a>
</g>
</g>
<!-- SeuratPreparing&#45;&gt;SeuratClusteringOfAllCells -->
<g id="edge19" class="edge">
<title>SeuratPreparing&#45;&gt;SeuratClusteringOfAllCells</title>
<path fill="none" stroke="#3d314a" d="M645.71,-811.05C650.05,-802.63 655.37,-792.28 660.16,-782.97"/>
<polygon fill="#3d314a" stroke="#3d314a" points="662.5,-784.53 663.67,-776.13 657.52,-781.97 662.5,-784.53"/>
</g>
<!-- ModuleScoreCalculator -->
<g id="node10" class="node">
<title>ModuleScoreCalculator</title>
<path fill="#219ebc" stroke="none" d="M740.5,-631C740.5,-631 609.5,-631 609.5,-631 603.5,-631 597.5,-625 597.5,-619 597.5,-619 597.5,-607 597.5,-607 597.5,-601 603.5,-595 609.5,-595 609.5,-595 740.5,-595 740.5,-595 746.5,-595 752.5,-601 752.5,-607 752.5,-607 752.5,-619 752.5,-619 752.5,-625 746.5,-631 740.5,-631"/>
<text text-anchor="middle" x="675" y="-609.9" font-family="Helvetica,sans-Serif" font-size="12.00" fill="#ffffff">ModuleScoreCalculator</text>
</g>
<!-- SeuratClusteringOfTCells -->
<g id="node30" class="node">
<title>SeuratClusteringOfTCells</title>
<g id="a_node30"><a xlink:title="Cluster the T cells selected by `TCellSelection`.">
<path fill="#219ebc" stroke="none" d="M753.5,-559C753.5,-559 612.5,-559 612.5,-559 606.5,-559 600.5,-553 600.5,-547 600.5,-547 600.5,-535 600.5,-535 600.5,-529 606.5,-523 612.5,-523 612.5,-523 753.5,-523 753.5,-523 759.5,-523 765.5,-529 765.5,-535 765.5,-535 765.5,-547 765.5,-547 765.5,-553 759.5,-559 753.5,-559"/>
<text text-anchor="middle" x="683" y="-537.9" font-family="Helvetica,sans-Serif" font-size="12.00" fill="#ffffff">SeuratClusteringOfTCells</text>
</a>
</g>
</g>
<!-- ModuleScoreCalculator&#45;&gt;SeuratClusteringOfTCells -->
<g id="edge33" class="edge">
<title>ModuleScoreCalculator&#45;&gt;SeuratClusteringOfTCells</title>
<path fill="none" stroke="#3d314a" d="M676.94,-595.05C677.86,-586.97 678.99,-577.12 680.02,-568.11"/>
<polygon fill="#3d314a" stroke="#3d314a" points="682.78,-568.56 680.91,-560.29 677.22,-567.92 682.78,-568.56"/>
</g>
<!-- TopExpressingGenesOfAllCells -->
<g id="node11" class="node">
<title>TopExpressingGenesOfAllCells</title>
<g id="a_node11"><a xlink:title="Top expressing genes for clusters of all cells.">
<polygon fill="#f26419" stroke="none" points="901,-703 707,-703 707,-667 901,-667 901,-703"/>
<text text-anchor="middle" x="804" y="-681.9" font-family="Helvetica,sans-Serif" font-size="12.00" fill="#ffffff">TopExpressingGenesOfAllCells</text>
</a>
</g>
</g>
<!-- TCRClustering -->
<g id="node12" class="node">
<title>TCRClustering</title>
<g id="a_node12"><a xlink:title="Cluster the TCR clones by their CDR3 sequences">
<path fill="#219ebc" stroke="none" d="M476.5,-703C476.5,-703 401.5,-703 401.5,-703 395.5,-703 389.5,-697 389.5,-691 389.5,-691 389.5,-679 389.5,-679 389.5,-673 395.5,-667 401.5,-667 401.5,-667 476.5,-667 476.5,-667 482.5,-667 488.5,-673 488.5,-679 488.5,-679 488.5,-691 488.5,-691 488.5,-697 482.5,-703 476.5,-703"/>
<text text-anchor="middle" x="439" y="-681.9" font-family="Helvetica,sans-Serif" font-size="12.00" fill="#ffffff">TCRClustering</text>
</a>
</g>
</g>
<!-- TCRClusters2Seurat -->
<g id="node18" class="node">
<title>TCRClusters2Seurat</title>
<g id="a_node18"><a xlink:title="Attach TCR clusters as meta columns to Seurat object">
<path fill="#219ebc" stroke="none" d="M678,-271C678,-271 568,-271 568,-271 562,-271 556,-265 556,-259 556,-259 556,-247 556,-247 556,-241 562,-235 568,-235 568,-235 678,-235 678,-235 684,-235 690,-241 690,-247 690,-247 690,-259 690,-259 690,-265 684,-271 678,-271"/>
<text text-anchor="middle" x="623" y="-249.9" font-family="Helvetica,sans-Serif" font-size="12.00" fill="#ffffff">TCRClusters2Seurat</text>
</a>
</g>
</g>
<!-- TCRClustering&#45;&gt;TCRClusters2Seurat -->
<g id="edge32" class="edge">
<title>TCRClustering&#45;&gt;TCRClusters2Seurat</title>
<path fill="none" stroke="#3d314a" d="M410.51,-667.18C397.47,-658.07 382.96,-645.66 374,-631 352.91,-596.49 355,-582.45 355,-542 355,-542 355,-542 355,-396 355,-308.54 467.82,-274.79 547.06,-261.88"/>
<polygon fill="#3d314a" stroke="#3d314a" points="547.09,-264.71 554.57,-260.71 546.23,-259.17 547.09,-264.71"/>
</g>
<!-- TCRClusterStats -->
<g id="node22" class="node">
<title>TCRClusterStats</title>
<polygon fill="#f26419" stroke="none" points="494.5,-631 383.5,-631 383.5,-595 494.5,-595 494.5,-631"/>
<text text-anchor="middle" x="439" y="-609.9" font-family="Helvetica,sans-Serif" font-size="12.00" fill="#ffffff">TCRClusterStats</text>
</g>
<!-- TCRClustering&#45;&gt;TCRClusterStats -->
<g id="edge14" class="edge">
<title>TCRClustering&#45;&gt;TCRClusterStats</title>
<path fill="none" stroke="#3d314a" d="M439,-667.05C439,-658.97 439,-649.12 439,-640.11"/>
<polygon fill="#3d314a" stroke="#3d314a" points="441.8,-640.3 439,-632.3 436.2,-640.3 441.8,-640.3"/>
</g>
<!-- SeuratClusteringOfAllCells&#45;&gt;TopExpressingGenesOfAllCells -->
<g id="edge11" class="edge">
<title>SeuratClusteringOfAllCells&#45;&gt;TopExpressingGenesOfAllCells</title>
<path fill="none" stroke="#3d314a" d="M704.71,-739.05C722.65,-729.47 745.25,-717.39 764.36,-707.18"/>
<polygon fill="#3d314a" stroke="#3d314a" points="765.51,-709.74 771.25,-703.5 762.87,-704.8 765.51,-709.74"/>
</g>
<!-- TCellSelection -->
<g id="node19" class="node">
<title>TCellSelection</title>
<path fill="#219ebc" stroke="none" d="M677,-703C677,-703 601,-703 601,-703 595,-703 589,-697 589,-691 589,-691 589,-679 589,-679 589,-673 595,-667 601,-667 601,-667 677,-667 677,-667 683,-667 689,-673 689,-679 689,-679 689,-691 689,-691 689,-697 683,-703 677,-703"/>
<text text-anchor="middle" x="639" y="-681.9" font-family="Helvetica,sans-Serif" font-size="12.00" fill="#ffffff">TCellSelection</text>
</g>
<!-- SeuratClusteringOfAllCells&#45;&gt;TCellSelection -->
<g id="edge29" class="edge">
<title>SeuratClusteringOfAllCells&#45;&gt;TCellSelection</title>
<path fill="none" stroke="#3d314a" d="M664.77,-739.05C660.72,-730.71 655.75,-720.49 651.27,-711.25"/>
<polygon fill="#3d314a" stroke="#3d314a" points="653.83,-710.12 647.82,-704.15 648.79,-712.57 653.83,-710.12"/>
</g>
<!-- ClusterMarkersOfAllCells -->
<g id="node25" class="node">
<title>ClusterMarkersOfAllCells</title>
<g id="a_node25"><a xlink:title="Markers for clusters of all cells.">
<polygon fill="#f26419" stroke="none" points="1083,-703 919,-703 919,-667 1083,-667 1083,-703"/>
<text text-anchor="middle" x="1001" y="-681.9" font-family="Helvetica,sans-Serif" font-size="12.00" fill="#ffffff">ClusterMarkersOfAllCells</text>
</a>
</g>
</g>
<!-- SeuratClusteringOfAllCells&#45;&gt;ClusterMarkersOfAllCells -->
<g id="edge35" class="edge">
<title>SeuratClusteringOfAllCells&#45;&gt;ClusterMarkersOfAllCells</title>
<path fill="none" stroke="#3d314a" d="M752.4,-739.05C800.68,-728.75 862.43,-715.57 912.31,-704.93"/>
<polygon fill="#3d314a" stroke="#3d314a" points="912.76,-707.69 920,-703.29 911.59,-702.22 912.76,-707.69"/>
</g>
<!-- TopExpressingGenes -->
<g id="node14" class="node">
<title>TopExpressingGenes</title>
<g id="a_node14"><a xlink:title="Top expressing genes for clusters of T cells.">
<polygon fill="#f26419" stroke="none" points="763,-415 625,-415 625,-379 763,-379 763,-415"/>
<text text-anchor="middle" x="694" y="-393.9" font-family="Helvetica,sans-Serif" font-size="12.00" fill="#ffffff">TopExpressingGenes</text>
</a>
</g>
</g>
<!-- RadarPlots -->
<g id="node15" class="node">
<title>RadarPlots</title>
<g id="a_node15"><a xlink:title="Radar plots for cell proportion in different clusters.">
<polygon fill="#f26419" stroke="none" points="1502.5,-196 1421.5,-196 1421.5,-160 1502.5,-160 1502.5,-196"/>
<text text-anchor="middle" x="1462" y="-174.9" font-family="Helvetica,sans-Serif" font-size="12.00" fill="#ffffff">RadarPlots</text>
</a>
</g>
</g>
<!-- MetaMarkers -->
<g id="node16" class="node">
<title>MetaMarkers</title>
<polygon fill="#f26419" stroke="none" points="1615.5,-196 1520.5,-196 1520.5,-160 1615.5,-160 1615.5,-196"/>
<text text-anchor="middle" x="1568" y="-174.9" font-family="Helvetica,sans-Serif" font-size="12.00" fill="#ffffff">MetaMarkers</text>
</g>
<!-- ScFGSEA -->
<g id="node17" class="node">
<title>ScFGSEA</title>
<polygon fill="#f26419" stroke="none" points="1704,-196 1634,-196 1634,-160 1704,-160 1704,-196"/>
<text text-anchor="middle" x="1669" y="-174.9" font-family="Helvetica,sans-Serif" font-size="12.00" fill="#ffffff">ScFGSEA</text>
</g>
<!-- TCRClusters2Seurat&#45;&gt;MetabolicInput -->
<g id="edge27" class="edge">
<title>TCRClusters2Seurat&#45;&gt;MetabolicInput</title>
<path fill="none" stroke="#3d314a" d="M643.41,-235.07C655.41,-225.12 670.72,-212.41 683.74,-201.61"/>
<polygon fill="#3d314a" stroke="#3d314a" points="685.17,-204.07 689.54,-196.81 681.59,-199.76 685.17,-204.07"/>
</g>
<!-- TCRClusters2Seurat&#45;&gt;SeuratClusterStats -->
<g id="edge28" class="edge">
<title>TCRClusters2Seurat&#45;&gt;SeuratClusterStats</title>
<path fill="none" stroke="#3d314a" d="M689.86,-251.57C844.36,-250.27 1217.12,-245.25 1271,-227 1286.75,-221.66 1302.09,-211.42 1314.2,-201.76"/>
<polygon fill="#3d314a" stroke="#3d314a" points="1315.76,-204.11 1320.13,-196.84 1312.18,-199.8 1315.76,-204.11"/>
</g>
<!-- TCRClusters2Seurat&#45;&gt;RadarPlots -->
<g id="edge12" class="edge">
<title>TCRClusters2Seurat&#45;&gt;RadarPlots</title>
<path fill="none" stroke="#3d314a" d="M689.68,-251.19C874,-248.76 1379,-240.89 1412,-227 1424.37,-221.79 1435.46,-212.01 1444.03,-202.62"/>
<polygon fill="#3d314a" stroke="#3d314a" points="1445.98,-204.65 1449.08,-196.76 1441.74,-200.99 1445.98,-204.65"/>
</g>
<!-- TCRClusters2Seurat&#45;&gt;MetaMarkers -->
<g id="edge34" class="edge">
<title>TCRClusters2Seurat&#45;&gt;MetaMarkers</title>
<path fill="none" stroke="#3d314a" d="M689.73,-251.34C889.9,-249.2 1473.85,-241.73 1512,-227 1525.46,-221.81 1537.92,-211.89 1547.65,-202.41"/>
<polygon fill="#3d314a" stroke="#3d314a" points="1549.59,-204.43 1553.17,-196.74 1545.58,-200.52 1549.59,-204.43"/>
</g>
<!-- TCRClusters2Seurat&#45;&gt;ScFGSEA -->
<g id="edge8" class="edge">
<title>TCRClusters2Seurat&#45;&gt;ScFGSEA</title>
<path fill="none" stroke="#3d314a" d="M689.73,-251.77C906.98,-250.82 1582.51,-246.33 1625,-227 1636.25,-221.88 1645.92,-212.37 1653.31,-203.16"/>
<polygon fill="#3d314a" stroke="#3d314a" points="1655.51,-204.9 1658.05,-196.81 1651.02,-201.55 1655.51,-204.9"/>
</g>
<!-- Immunarch -->
<g id="node20" class="node">
<title>Immunarch</title>
<g id="a_node20"><a xlink:title="Exploration of Single&#45;cell and Bulk T&#45;cell/Antibody Immune Repertoires">
<polygon fill="#f26419" stroke="none" points="360,-196 274,-196 274,-160 360,-160 360,-196"/>
<text text-anchor="middle" x="317" y="-174.9" font-family="Helvetica,sans-Serif" font-size="12.00" fill="#ffffff">Immunarch</text>
</a>
</g>
</g>
<!-- TCRClusters2Seurat&#45;&gt;Immunarch -->
<g id="edge6" class="edge">
<title>TCRClusters2Seurat&#45;&gt;Immunarch</title>
<path fill="none" stroke="#3d314a" d="M556.28,-250.21C492.48,-247.65 401.34,-241.51 369,-227 356.67,-221.47 345.34,-211.83 336.42,-202.64"/>
<polygon fill="#3d314a" stroke="#3d314a" points="338.6,-200.87 331.12,-196.88 334.48,-204.66 338.6,-200.87"/>
</g>
<!-- CDR3AAPhyschem -->
<g id="node26" class="node">
<title>CDR3AAPhyschem</title>
<polygon fill="#f26419" stroke="none" points="128,-196 0,-196 0,-160 128,-160 128,-196"/>
<text text-anchor="middle" x="64" y="-174.9" font-family="Helvetica,sans-Serif" font-size="12.00" fill="#ffffff">CDR3AAPhyschem</text>
</g>
<!-- TCRClusters2Seurat&#45;&gt;CDR3AAPhyschem -->
<g id="edge9" class="edge">
<title>TCRClusters2Seurat&#45;&gt;CDR3AAPhyschem</title>
<path fill="none" stroke="#3d314a" d="M556.15,-252.87C441.61,-253.63 212.87,-251.85 137,-227 120.25,-221.51 103.67,-211.12 90.55,-201.4"/>
<polygon fill="#3d314a" stroke="#3d314a" points="92.5,-199.37 84.45,-196.72 89.09,-203.81 92.5,-199.37"/>
</g>
<!-- CloneResidency -->
<g id="node28" class="node">
<title>CloneResidency</title>
<polygon fill="#f26419" stroke="none" points="256,-196 146,-196 146,-160 256,-160 256,-196"/>
<text text-anchor="middle" x="201" y="-174.9" font-family="Helvetica,sans-Serif" font-size="12.00" fill="#ffffff">CloneResidency</text>
</g>
<!-- TCRClusters2Seurat&#45;&gt;CloneResidency -->
<g id="edge26" class="edge">
<title>TCRClusters2Seurat&#45;&gt;CloneResidency</title>
<path fill="none" stroke="#3d314a" d="M556.15,-251.82C467.6,-250.82 316.6,-246.22 265,-227 250.27,-221.51 236.05,-211.49 224.77,-202.02"/>
<polygon fill="#3d314a" stroke="#3d314a" points="226.81,-200.09 218.95,-196.93 223.13,-204.3 226.81,-200.09"/>
</g>
<!-- MarkersFinder -->
<g id="node31" class="node">
<title>MarkersFinder</title>
<g id="a_node31"><a xlink:title="Find markers between different groups of cells">
<polygon fill="#f26419" stroke="none" points="1824,-196 1722,-196 1722,-160 1824,-160 1824,-196"/>
<text text-anchor="middle" x="1773" y="-174.9" font-family="Helvetica,sans-Serif" font-size="12.00" fill="#ffffff">MarkersFinder</text>
</a>
</g>
</g>
<!-- TCRClusters2Seurat&#45;&gt;MarkersFinder -->
<g id="edge25" class="edge">
<title>TCRClusters2Seurat&#45;&gt;MarkersFinder</title>
<path fill="none" stroke="#3d314a" d="M689.8,-251.65C919.42,-250.28 1664.89,-244.5 1713,-227 1727.26,-221.81 1740.69,-211.76 1751.22,-202.19"/>
<polygon fill="#3d314a" stroke="#3d314a" points="1753.07,-204.3 1756.92,-196.75 1749.2,-200.24 1753.07,-204.3"/>
</g>
<!-- CellsDistribution -->
<g id="node32" class="node">
<title>CellsDistribution</title>
<polygon fill="#f26419" stroke="none" points="491.5,-196 378.5,-196 378.5,-160 491.5,-160 491.5,-196"/>
<text text-anchor="middle" x="435" y="-174.9" font-family="Helvetica,sans-Serif" font-size="12.00" fill="#ffffff">CellsDistribution</text>
</g>
<!-- TCRClusters2Seurat&#45;&gt;CellsDistribution -->
<g id="edge16" class="edge">
<title>TCRClusters2Seurat&#45;&gt;CellsDistribution</title>
<path fill="none" stroke="#3d314a" d="M556.22,-244.93C536.24,-241.22 514.69,-235.58 496,-227 482.57,-220.83 469.45,-211.14 458.84,-202.07"/>
<polygon fill="#3d314a" stroke="#3d314a" points="460.9,-200.16 453.05,-196.95 457.19,-204.35 460.9,-200.16"/>
</g>
<!-- TCellSelection&#45;&gt;ModuleScoreCalculator -->
<g id="edge30" class="edge">
<title>TCellSelection&#45;&gt;ModuleScoreCalculator</title>
<path fill="none" stroke="#3d314a" d="M647.71,-667.05C652.05,-658.63 657.37,-648.28 662.16,-638.97"/>
<polygon fill="#3d314a" stroke="#3d314a" points="664.5,-640.53 665.67,-632.13 659.52,-637.97 664.5,-640.53"/>
</g>
<!-- ImmunarchLoading&#45;&gt;TCRClustering -->
<g id="edge13" class="edge">
<title>ImmunarchLoading&#45;&gt;TCRClustering</title>
<path fill="none" stroke="#3d314a" d="M476.14,-739.05C470.12,-730.46 462.7,-719.86 456.08,-710.4"/>
<polygon fill="#3d314a" stroke="#3d314a" points="458.5,-708.98 451.62,-704.03 453.91,-712.19 458.5,-708.98"/>
</g>
<!-- ImmunarchLoading&#45;&gt;TCellSelection -->
<g id="edge20" class="edge">
<title>ImmunarchLoading&#45;&gt;TCellSelection</title>
<path fill="none" stroke="#3d314a" d="M524.55,-739.05C545.43,-729.37 571.79,-717.16 593.94,-706.89"/>
<polygon fill="#3d314a" stroke="#3d314a" points="595.07,-709.45 601.15,-703.55 592.71,-704.37 595.07,-709.45"/>
</g>
<!-- ImmunarchLoading&#45;&gt;Immunarch -->
<g id="edge21" class="edge">
<title>ImmunarchLoading&#45;&gt;Immunarch</title>
<path fill="none" stroke="#3d314a" d="M438.54,-739.06C388.04,-718.26 317,-677.67 317,-614 317,-614 317,-614 317,-324 317,-282.57 317,-234.47 317,-205.41"/>
<polygon fill="#3d314a" stroke="#3d314a" points="319.8,-205.48 317,-197.48 314.2,-205.48 319.8,-205.48"/>
</g>
<!-- SeuratMetadataMutater -->
<g id="node24" class="node">
<title>SeuratMetadataMutater</title>
<g id="a_node24"><a xlink:title="Attach TCR clone information as meta columns to Seurat object">
<path fill="#219ebc" stroke="none" d="M647.5,-343C647.5,-343 510.5,-343 510.5,-343 504.5,-343 498.5,-337 498.5,-331 498.5,-331 498.5,-319 498.5,-319 498.5,-313 504.5,-307 510.5,-307 510.5,-307 647.5,-307 647.5,-307 653.5,-307 659.5,-313 659.5,-319 659.5,-319 659.5,-331 659.5,-331 659.5,-337 653.5,-343 647.5,-343"/>
<text text-anchor="middle" x="579" y="-321.9" font-family="Helvetica,sans-Serif" font-size="12.00" fill="#ffffff">SeuratMetadataMutater</text>
</a>
</g>
</g>
<!-- ImmunarchLoading&#45;&gt;SeuratMetadataMutater -->
<g id="edge31" class="edge">
<title>ImmunarchLoading&#45;&gt;SeuratMetadataMutater</title>
<path fill="none" stroke="#3d314a" d="M494.91,-739.28C505.11,-713.06 523,-660.46 523,-614 523,-614 523,-614 523,-468 523,-427.46 526.88,-416.2 543,-379 547.33,-369 553.63,-358.89 559.74,-350.22"/>
<polygon fill="#3d314a" stroke="#3d314a" points="561.88,-352.03 564.35,-343.92 557.36,-348.72 561.88,-352.03"/>
</g>
<!-- ImmunarchLoading&#45;&gt;CDR3AAPhyschem -->
<g id="edge18" class="edge">
<title>ImmunarchLoading&#45;&gt;CDR3AAPhyschem</title>
<path fill="none" stroke="#3d314a" d="M421.81,-756.14C324.19,-752.49 153,-729.6 153,-614 153,-614 153,-614 153,-324 153,-275.19 115.92,-228.98 89.63,-202.35"/>
<polygon fill="#3d314a" stroke="#3d314a" points="91.62,-200.38 83.95,-196.76 87.68,-204.37 91.62,-200.38"/>
</g>
<!-- TESSA -->
<g id="node27" class="node">
<title>TESSA</title>
<g id="a_node27"><a xlink:title="Tessa is a Bayesian model to integrate T cell receptor (TCR) sequence profiling with transcriptomes of T cells.">
<path fill="#219ebc" stroke="none" d="M594.5,-415C594.5,-415 563.5,-415 563.5,-415 557.5,-415 551.5,-409 551.5,-403 551.5,-403 551.5,-391 551.5,-391 551.5,-385 557.5,-379 563.5,-379 563.5,-379 594.5,-379 594.5,-379 600.5,-379 606.5,-385 606.5,-391 606.5,-391 606.5,-403 606.5,-403 606.5,-409 600.5,-415 594.5,-415"/>
<text text-anchor="middle" x="579" y="-393.9" font-family="Helvetica,sans-Serif" font-size="12.00" fill="#ffffff">TESSA</text>
</a>
</g>
</g>
<!-- ImmunarchLoading&#45;&gt;TESSA -->
<g id="edge15" class="edge">
<title>ImmunarchLoading&#45;&gt;TESSA</title>
<path fill="none" stroke="#3d314a" d="M507.65,-739.11C517.75,-729.46 529.48,-716.6 537,-703 556.81,-667.14 561,-654.97 561,-614 561,-614 561,-614 561,-540 561,-499.32 568.36,-452.6 573.67,-424.2"/>
<polygon fill="#3d314a" stroke="#3d314a" points="576.4,-424.83 575.16,-416.45 570.9,-423.78 576.4,-424.83"/>
</g>
<!-- ImmunarchLoading&#45;&gt;CloneResidency -->
<g id="edge22" class="edge">
<title>ImmunarchLoading&#45;&gt;CloneResidency</title>
<path fill="none" stroke="#3d314a" d="M421.54,-747C348.08,-732.87 240,-697.85 240,-614 240,-614 240,-614 240,-324 240,-280.72 223.6,-232.59 212.07,-204.1"/>
<polygon fill="#3d314a" stroke="#3d314a" points="214.76,-203.28 209.1,-196.97 209.59,-205.43 214.76,-203.28"/>
</g>
<!-- ClusterMarkers -->
<g id="node23" class="node">
<title>ClusterMarkers</title>
<g id="a_node23"><a xlink:title="Markers for clusters of T cells.">
<polygon fill="#f26419" stroke="none" points="888.5,-415 781.5,-415 781.5,-379 888.5,-379 888.5,-415"/>
<text text-anchor="middle" x="835" y="-393.9" font-family="Helvetica,sans-Serif" font-size="12.00" fill="#ffffff">ClusterMarkers</text>
</a>
</g>
</g>
<!-- SeuratMetadataMutater&#45;&gt;TCRClusters2Seurat -->
<g id="edge37" class="edge">
<title>SeuratMetadataMutater&#45;&gt;TCRClusters2Seurat</title>
<path fill="none" stroke="#3d314a" d="M589.65,-307.05C595,-298.54 601.59,-288.07 607.49,-278.68"/>
<polygon fill="#3d314a" stroke="#3d314a" points="609.75,-280.33 611.64,-272.07 605.01,-277.35 609.75,-280.33"/>
</g>
<!-- TESSA&#45;&gt;SeuratMetadataMutater -->
<g id="edge38" class="edge">
<title>TESSA&#45;&gt;SeuratMetadataMutater</title>
<path fill="none" stroke="#3d314a" d="M579,-379.05C579,-370.97 579,-361.12 579,-352.11"/>
<polygon fill="#3d314a" stroke="#3d314a" points="581.8,-352.3 579,-344.3 576.2,-352.3 581.8,-352.3"/>
</g>
<!-- CellTypeAnnotation -->
<g id="node29" class="node">
<title>CellTypeAnnotation</title>
<g id="a_node29"><a xlink:title="Annotate the T cell clusters.">
<path fill="#219ebc" stroke="none" d="M741.5,-487C741.5,-487 634.5,-487 634.5,-487 628.5,-487 622.5,-481 622.5,-475 622.5,-475 622.5,-463 622.5,-463 622.5,-457 628.5,-451 634.5,-451 634.5,-451 741.5,-451 741.5,-451 747.5,-451 753.5,-457 753.5,-463 753.5,-463 753.5,-475 753.5,-475 753.5,-481 747.5,-487 741.5,-487"/>
<text text-anchor="middle" x="688" y="-465.9" font-family="Helvetica,sans-Serif" font-size="12.00" fill="#ffffff">CellTypeAnnotation</text>
</a>
</g>
</g>
<!-- CellTypeAnnotation&#45;&gt;TopExpressingGenes -->
<g id="edge23" class="edge">
<title>CellTypeAnnotation&#45;&gt;TopExpressingGenes</title>
<path fill="none" stroke="#3d314a" d="M689.45,-451.05C690.15,-442.97 690.99,-433.12 691.76,-424.11"/>
<polygon fill="#3d314a" stroke="#3d314a" points="694.54,-424.51 692.43,-416.3 688.96,-424.03 694.54,-424.51"/>
</g>
<!-- CellTypeAnnotation&#45;&gt;ClusterMarkers -->
<g id="edge36" class="edge">
<title>CellTypeAnnotation&#45;&gt;ClusterMarkers</title>
<path fill="none" stroke="#3d314a" d="M723.58,-451.05C743.91,-441.37 769.57,-429.16 791.14,-418.89"/>
<polygon fill="#3d314a" stroke="#3d314a" points="792.1,-421.53 798.12,-415.56 789.7,-416.47 792.1,-421.53"/>
</g>
<!-- CellTypeAnnotation&#45;&gt;TESSA -->
<g id="edge7" class="edge">
<title>CellTypeAnnotation&#45;&gt;TESSA</title>
<path fill="none" stroke="#3d314a" d="M661.61,-451.05C647.02,-441.68 628.72,-429.93 613.06,-419.87"/>
<polygon fill="#3d314a" stroke="#3d314a" points="614.66,-417.57 606.42,-415.61 611.63,-422.29 614.66,-417.57"/>
</g>
<!-- SeuratClusteringOfTCells&#45;&gt;CellTypeAnnotation -->
<g id="edge10" class="edge">
<title>SeuratClusteringOfTCells&#45;&gt;CellTypeAnnotation</title>
<path fill="none" stroke="#3d314a" d="M684.21,-523.05C684.79,-514.97 685.49,-505.12 686.13,-496.11"/>
<polygon fill="#3d314a" stroke="#3d314a" points="688.92,-496.48 686.69,-488.3 683.33,-496.08 688.92,-496.48"/>
</g>
</g>
</svg>
