<?xml version="1.0" encoding="UTF-8" standalone="no"?>
<!DOCTYPE svg PUBLIC "-//W3C//DTD SVG 1.1//EN"
 "http://www.w3.org/Graphics/SVG/1.1/DTD/svg11.dtd">
<!-- Generated by graphviz version 3.0.0 (20220315.2325)
 -->
<!-- Title: ImmunopipeMinimal Pages: 1 -->
<svg width="308pt" height="370pt"
 viewBox="0.00 0.00 307.50 370.00" xmlns="http://www.w3.org/2000/svg" xmlns:xlink="http://www.w3.org/1999/xlink">
<g id="graph0" class="graph" transform="scale(1 1) rotate(0) translate(4 366)">
<title>ImmunopipeMinimal</title>
<polygon fill="white" stroke="transparent" points="-4,4 -4,-366 303.5,-366 303.5,4 -4,4"/>
<text text-anchor="middle" x="149.75" y="-346.8" font-family="Helvetica,sans-Serif" font-size="14.00">ImmunopipeMinimal</text>
<text text-anchor="middle" x="149.75" y="-331.8" font-family="Helvetica,sans-Serif" font-size="14.00"> </text>
<!-- SampleInfo -->
<g id="node1" class="node">
<title>SampleInfo</title>
<g id="a_node1"><a xlink:title="List sample information and perform statistics">
<polygon fill="none" stroke="black" points="142,-324 74.93,-306 142,-288 209.07,-306 142,-324"/>
<text text-anchor="middle" x="142" y="-302.9" font-family="Helvetica,sans-Serif" font-size="12.00">SampleInfo</text>
</a>
</g>
</g>
<!-- SeuratPreparing -->
<g id="node2" class="node">
<title>SeuratPreparing</title>
<g id="a_node2"><a xlink:title="Load, prepare and apply QC to data, using `Seurat`">
<path fill="none" stroke="black" d="M132,-252C132,-252 52,-252 52,-252 46,-252 40,-246 40,-240 40,-240 40,-228 40,-228 40,-222 46,-216 52,-216 52,-216 132,-216 132,-216 138,-216 144,-222 144,-228 144,-228 144,-240 144,-240 144,-246 138,-252 132,-252"/>
<text text-anchor="middle" x="92" y="-230.9" font-family="Helvetica,sans-Serif" font-size="12.00">SeuratPreparing</text>
</a>
</g>
</g>
<!-- SampleInfo&#45;&gt;SeuratPreparing -->
<g id="edge2" class="edge">
<title>SampleInfo&#45;&gt;SeuratPreparing</title>
<path fill="none" stroke="black" d="M131.64,-290.5C125.12,-281.36 116.54,-269.36 109.03,-258.85"/>
<polygon fill="black" stroke="black" points="111.22,-257.09 104.29,-252.2 106.66,-260.34 111.22,-257.09"/>
</g>
<!-- ScRepLoading -->
<g id="node7" class="node">
<title>ScRepLoading</title>
<g id="a_node7"><a xlink:title="Load the single cell TCR/BCR data into a `scRepertoire` compatible object">
<path fill="none" stroke="black" d="M238.5,-180C238.5,-180 165.5,-180 165.5,-180 159.5,-180 153.5,-174 153.5,-168 153.5,-168 153.5,-156 153.5,-156 153.5,-150 159.5,-144 165.5,-144 165.5,-144 238.5,-144 238.5,-144 244.5,-144 250.5,-150 250.5,-156 250.5,-156 250.5,-168 250.5,-168 250.5,-174 244.5,-180 238.5,-180"/>
<text text-anchor="middle" x="202" y="-158.9" font-family="Helvetica,sans-Serif" font-size="12.00">ScRepLoading</text>
</a>
</g>
</g>
<!-- SampleInfo&#45;&gt;ScRepLoading -->
<g id="edge8" class="edge">
<title>SampleInfo&#45;&gt;ScRepLoading</title>
<path fill="none" stroke="black" d="M148.54,-289.53C158.91,-264.99 179.23,-216.9 191.61,-187.59"/>
<polygon fill="black" stroke="black" points="194.19,-188.67 194.73,-180.21 189.04,-186.49 194.19,-188.67"/>
</g>
<!-- SeuratClustering -->
<g id="node4" class="node">
<title>SeuratClustering</title>
<g id="a_node4"><a xlink:title="Cluster all T cells or selected T cells selected by `TCellSelection`.">
<path fill="none" stroke="black" d="M123.5,-180C123.5,-180 40.5,-180 40.5,-180 34.5,-180 28.5,-174 28.5,-168 28.5,-168 28.5,-156 28.5,-156 28.5,-150 34.5,-144 40.5,-144 40.5,-144 123.5,-144 123.5,-144 129.5,-144 135.5,-150 135.5,-156 135.5,-156 135.5,-168 135.5,-168 135.5,-174 129.5,-180 123.5,-180"/>
<text text-anchor="middle" x="82" y="-158.9" font-family="Helvetica,sans-Serif" font-size="12.00">SeuratClustering</text>
</a>
</g>
</g>
<!-- SeuratPreparing&#45;&gt;SeuratClustering -->
<g id="edge4" class="edge">
<title>SeuratPreparing&#45;&gt;SeuratClustering</title>
<path fill="none" stroke="black" d="M89.53,-215.7C88.34,-207.39 86.9,-197.28 85.59,-188.14"/>
<polygon fill="black" stroke="black" points="88.35,-187.63 84.44,-180.1 82.8,-188.42 88.35,-187.63"/>
</g>
<!-- ClusterMarkers -->
<g id="node3" class="node">
<title>ClusterMarkers</title>
<g id="a_node3"><a xlink:title="Markers for clusters of all or selected T cells.">
<polygon fill="none" stroke="black" points="98,-108 0,-108 0,-72 98,-72 98,-108"/>
<text text-anchor="middle" x="49" y="-86.9" font-family="Helvetica,sans-Serif" font-size="12.00">ClusterMarkers</text>
</a>
</g>
</g>
<!-- SeuratClustering&#45;&gt;ClusterMarkers -->
<g id="edge6" class="edge">
<title>SeuratClustering&#45;&gt;ClusterMarkers</title>
<path fill="none" stroke="black" d="M73.84,-143.7C69.85,-135.22 64.96,-124.86 60.59,-115.58"/>
<polygon fill="black" stroke="black" points="63.01,-114.15 57.06,-108.1 57.94,-116.53 63.01,-114.15"/>
</g>
<!-- ScRepCombiningExpression -->
<g id="node6" class="node">
<title>ScRepCombiningExpression</title>
<path fill="none" stroke="black" d="M276,-108C276,-108 128,-108 128,-108 122,-108 116,-102 116,-96 116,-96 116,-84 116,-84 116,-78 122,-72 128,-72 128,-72 276,-72 276,-72 282,-72 288,-78 288,-84 288,-84 288,-96 288,-96 288,-102 282,-108 276,-108"/>
<text text-anchor="middle" x="202" y="-86.9" font-family="Helvetica,sans-Serif" font-size="12.00">ScRepCombiningExpression</text>
</g>
<!-- SeuratClustering&#45;&gt;ScRepCombiningExpression -->
<g id="edge1" class="edge">
<title>SeuratClustering&#45;&gt;ScRepCombiningExpression</title>
<path fill="none" stroke="black" d="M111.36,-143.88C127.63,-134.38 148.01,-122.5 165.32,-112.4"/>
<polygon fill="black" stroke="black" points="167.03,-114.64 172.53,-108.19 164.21,-109.8 167.03,-114.64"/>
</g>
<!-- SeuratClusterStats -->
<g id="node5" class="node">
<title>SeuratClusterStats</title>
<polygon fill="none" stroke="black" points="202.5,-36 85.5,-36 85.5,0 202.5,0 202.5,-36"/>
<text text-anchor="middle" x="144" y="-14.9" font-family="Helvetica,sans-Serif" font-size="12.00">SeuratClusterStats</text>
</g>
<!-- ScRepCombiningExpression&#45;&gt;SeuratClusterStats -->
<g id="edge7" class="edge">
<title>ScRepCombiningExpression&#45;&gt;SeuratClusterStats</title>
<path fill="none" stroke="black" d="M187.66,-71.7C180.36,-62.88 171.37,-52.03 163.45,-42.47"/>
<polygon fill="black" stroke="black" points="165.43,-40.48 158.17,-36.1 161.12,-44.05 165.43,-40.48"/>
</g>
<!-- ClonalStats -->
<g id="node8" class="node">
<title>ClonalStats</title>
<polygon fill="none" stroke="black" points="299.5,-36 220.5,-36 220.5,0 299.5,0 299.5,-36"/>
<text text-anchor="middle" x="260" y="-14.9" font-family="Helvetica,sans-Serif" font-size="12.00">ClonalStats</text>
</g>
<!-- ScRepCombiningExpression&#45;&gt;ClonalStats -->
<g id="edge5" class="edge">
<title>ScRepCombiningExpression&#45;&gt;ClonalStats</title>
<path fill="none" stroke="black" d="M216.34,-71.7C223.64,-62.88 232.63,-52.03 240.55,-42.47"/>
<polygon fill="black" stroke="black" points="242.88,-44.05 245.83,-36.1 238.57,-40.48 242.88,-44.05"/>
</g>
<!-- ScRepLoading&#45;&gt;ScRepCombiningExpression -->
<g id="edge3" class="edge">
<title>ScRepLoading&#45;&gt;ScRepCombiningExpression</title>
<path fill="none" stroke="black" d="M202,-143.7C202,-135.39 202,-125.28 202,-116.14"/>
<polygon fill="black" stroke="black" points="204.8,-116.1 202,-108.1 199.2,-116.1 204.8,-116.1"/>
</g>
</g>
</svg>
