<?xml version="1.0" encoding="UTF-8" standalone="no"?>
<!DOCTYPE svg PUBLIC "-//W3C//DTD SVG 1.1//EN"
 "http://www.w3.org/Graphics/SVG/1.1/DTD/svg11.dtd">
<!-- Generated by graphviz version 3.0.0 (20220315.2325)
 -->
<!-- Title: Immunopipe Pages: 1 -->
<svg width="1220pt" height="893pt"
 viewBox="0.00 0.00 1220.00 893.00" xmlns="http://www.w3.org/2000/svg" xmlns:xlink="http://www.w3.org/1999/xlink">
<g id="graph0" class="graph" transform="scale(1 1) rotate(0) translate(4 889)">
<title>Immunopipe</title>
<polygon fill="white" stroke="transparent" points="-4,4 -4,-889 1216,-889 1216,4 -4,4"/>
<text text-anchor="middle" x="606" y="-869.8" font-family="Helvetica,sans-Serif" font-size="14.00">Immunopipe</text>
<text text-anchor="middle" x="606" y="-854.8" font-family="Helvetica,sans-Serif" font-size="14.00"> </text>
<g id="clust1" class="cluster">
<title>cluster_ScrnaMetabolicLandscape</title>
<polygon fill="#eeeeee" stroke="#eeeeee" points="8,-8 8,-155 520,-155 520,-8 8,-8"/>
<text text-anchor="middle" x="96" y="-139.8" font-family="Helvetica,sans-Serif" font-size="14.00">ScrnaMetabolicLandscape</text>
</g>
<!-- MetabolicInput -->
<g id="node1" class="node">
<title>MetabolicInput</title>
<g id="a_node1"><a xlink:title="This process takes Seurat object as input and pass it to the next processes in the `ScrnaMetabolicLandscape` group.">
<path fill="#219ebc" stroke="transparent" d="M393.5,-124C393.5,-124 322.5,-124 322.5,-124 316.5,-124 310.5,-118 310.5,-112 310.5,-112 310.5,-100 310.5,-100 310.5,-94 316.5,-88 322.5,-88 322.5,-88 393.5,-88 393.5,-88 399.5,-88 405.5,-94 405.5,-100 405.5,-100 405.5,-112 405.5,-112 405.5,-118 399.5,-124 393.5,-124"/>
<text text-anchor="middle" x="358" y="-102.9" font-family="Helvetica,sans-Serif" font-size="12.00" fill="#ffffff">MetabolicInput</text>
</a>
</g>
</g>
<!-- MetabolicPathwayHeterogeneity -->
<g id="node2" class="node">
<title>MetabolicPathwayHeterogeneity</title>
<g id="a_node2"><a xlink:title="Calculate Metabolic Pathway heterogeneity.">
<polygon fill="#f26419" stroke="transparent" points="206,-52 16,-52 16,-16 206,-16 206,-52"/>
<text text-anchor="middle" x="111" y="-30.9" font-family="Helvetica,sans-Serif" font-size="12.00" fill="#ffffff">MetabolicPathwayHeterogeneity</text>
</a>
</g>
</g>
<!-- MetabolicInput&#45;&gt;MetabolicPathwayHeterogeneity -->
<g id="edge2" class="edge">
<title>MetabolicInput&#45;&gt;MetabolicPathwayHeterogeneity</title>
<path fill="none" stroke="#3d314a" d="M310.38,-91.5C273.11,-80.94 220.78,-66.11 179.09,-54.3"/>
<polygon fill="#3d314a" stroke="#3d314a" points="179.63,-51.54 171.17,-52.05 178.1,-56.93 179.63,-51.54"/>
</g>
<!-- MetabolicFeatures -->
<g id="node3" class="node">
<title>MetabolicFeatures</title>
<g id="a_node3"><a xlink:title="This process performs enrichment analysis for the metabolic pathways for each group in each subset.">
<polygon fill="#f26419" stroke="transparent" points="340,-52 224,-52 224,-16 340,-16 340,-52"/>
<text text-anchor="middle" x="282" y="-30.9" font-family="Helvetica,sans-Serif" font-size="12.00" fill="#ffffff">MetabolicFeatures</text>
</a>
</g>
</g>
<!-- MetabolicInput&#45;&gt;MetabolicFeatures -->
<g id="edge1" class="edge">
<title>MetabolicInput&#45;&gt;MetabolicFeatures</title>
<path fill="none" stroke="#3d314a" d="M339.21,-87.7C329.37,-78.63 317.18,-67.4 306.59,-57.65"/>
<polygon fill="#3d314a" stroke="#3d314a" points="308.35,-55.46 300.57,-52.1 304.56,-59.58 308.35,-55.46"/>
</g>
<!-- MetabolicPathwayActivity -->
<g id="node4" class="node">
<title>MetabolicPathwayActivity</title>
<g id="a_node4"><a xlink:title="This process calculates the pathway activities in different groups and subsets.">
<polygon fill="#f26419" stroke="transparent" points="511.5,-52 358.5,-52 358.5,-16 511.5,-16 511.5,-52"/>
<text text-anchor="middle" x="435" y="-30.9" font-family="Helvetica,sans-Serif" font-size="12.00" fill="#ffffff">MetabolicPathwayActivity</text>
</a>
</g>
</g>
<!-- MetabolicInput&#45;&gt;MetabolicPathwayActivity -->
<g id="edge3" class="edge">
<title>MetabolicInput&#45;&gt;MetabolicPathwayActivity</title>
<path fill="none" stroke="#3d314a" d="M377.03,-87.7C387.01,-78.63 399.36,-67.4 410.08,-57.65"/>
<polygon fill="#3d314a" stroke="#3d314a" points="412.15,-59.56 416.19,-52.1 408.38,-55.41 412.15,-59.56"/>
</g>
<!-- ClonalStats -->
<g id="node5" class="node">
<title>ClonalStats</title>
<polygon fill="#f26419" stroke="transparent" points="606.5,-124 527.5,-124 527.5,-88 606.5,-88 606.5,-124"/>
<text text-anchor="middle" x="567" y="-102.9" font-family="Helvetica,sans-Serif" font-size="12.00" fill="#ffffff">ClonalStats</text>
</g>
<!-- SeuratPreparing -->
<g id="node6" class="node">
<title>SeuratPreparing</title>
<g id="a_node6"><a xlink:title="Load, prepare and apply QC to data, using `Seurat`">
<path fill="#219ebc" stroke="transparent" d="M626,-775C626,-775 546,-775 546,-775 540,-775 534,-769 534,-763 534,-763 534,-751 534,-751 534,-745 540,-739 546,-739 546,-739 626,-739 626,-739 632,-739 638,-745 638,-751 638,-751 638,-763 638,-763 638,-769 632,-775 626,-775"/>
<text text-anchor="middle" x="586" y="-753.9" font-family="Helvetica,sans-Serif" font-size="12.00" fill="#ffffff">SeuratPreparing</text>
</a>
</g>
</g>
<!-- SeuratClusteringOfAllCells -->
<g id="node13" class="node">
<title>SeuratClusteringOfAllCells</title>
<g id="a_node13"><a xlink:title="Cluster all cells, including T cells and non&#45;T cells using Seurat">
<path fill="#219ebc" stroke="transparent" d="M621.5,-703C621.5,-703 484.5,-703 484.5,-703 478.5,-703 472.5,-697 472.5,-691 472.5,-691 472.5,-679 472.5,-679 472.5,-673 478.5,-667 484.5,-667 484.5,-667 621.5,-667 621.5,-667 627.5,-667 633.5,-673 633.5,-679 633.5,-679 633.5,-691 633.5,-691 633.5,-697 627.5,-703 621.5,-703"/>
<text text-anchor="middle" x="553" y="-681.9" font-family="Helvetica,sans-Serif" font-size="12.00" fill="#ffffff">SeuratClusteringOfAllCells</text>
</a>
</g>
</g>
<!-- SeuratPreparing&#45;&gt;SeuratClusteringOfAllCells -->
<g id="edge13" class="edge">
<title>SeuratPreparing&#45;&gt;SeuratClusteringOfAllCells</title>
<path fill="none" stroke="#3d314a" d="M577.84,-738.7C573.85,-730.22 568.96,-719.86 564.59,-710.58"/>
<polygon fill="#3d314a" stroke="#3d314a" points="567.01,-709.15 561.06,-703.1 561.94,-711.53 567.01,-709.15"/>
</g>
<!-- PseudoBulkDEG -->
<g id="node7" class="node">
<title>PseudoBulkDEG</title>
<polygon fill="#f26419" stroke="transparent" points="733,-124 625,-124 625,-88 733,-88 733,-124"/>
<text text-anchor="middle" x="679" y="-102.9" font-family="Helvetica,sans-Serif" font-size="12.00" fill="#ffffff">PseudoBulkDEG</text>
</g>
<!-- TopExpressingGenes -->
<g id="node8" class="node">
<title>TopExpressingGenes</title>
<g id="a_node8"><a xlink:title="Top expressing genes for clusters of all or selected T cells.">
<polygon fill="#f26419" stroke="transparent" points="577.5,-343 446.5,-343 446.5,-307 577.5,-307 577.5,-343"/>
<text text-anchor="middle" x="512" y="-321.9" font-family="Helvetica,sans-Serif" font-size="12.00" fill="#ffffff">TopExpressingGenes</text>
</a>
</g>
</g>
<!-- TESSA -->
<g id="node9" class="node">
<title>TESSA</title>
<g id="a_node9"><a xlink:title="Tessa is a Bayesian model to integrate T cell receptor (TCR) sequence profiling with transcriptomes of T cells.">
<path fill="#219ebc" stroke="transparent" d="M814.5,-199C814.5,-199 781.5,-199 781.5,-199 775.5,-199 769.5,-193 769.5,-187 769.5,-187 769.5,-175 769.5,-175 769.5,-169 775.5,-163 781.5,-163 781.5,-163 814.5,-163 814.5,-163 820.5,-163 826.5,-169 826.5,-175 826.5,-175 826.5,-187 826.5,-187 826.5,-193 820.5,-199 814.5,-199"/>
<text text-anchor="middle" x="798" y="-177.9" font-family="Helvetica,sans-Serif" font-size="12.00" fill="#ffffff">TESSA</text>
</a>
</g>
</g>
<!-- TESSA&#45;&gt;MetabolicInput -->
<g id="edge24" class="edge">
<title>TESSA&#45;&gt;MetabolicInput</title>
<path fill="none" stroke="#3d314a" d="M769.22,-179.32C718.32,-177.69 609.27,-172.32 519,-155 483.22,-148.13 444.02,-136.54 413.27,-126.47"/>
<polygon fill="#3d314a" stroke="#3d314a" points="414.11,-123.8 405.63,-123.94 412.35,-129.11 414.11,-123.8"/>
</g>
<!-- TESSA&#45;&gt;ClonalStats -->
<g id="edge12" class="edge">
<title>TESSA&#45;&gt;ClonalStats</title>
<path fill="none" stroke="#3d314a" d="M769.16,-178.24C724.84,-175.18 642.35,-167.92 616,-155 604.18,-149.21 593.44,-139.47 585.04,-130.28"/>
<polygon fill="#3d314a" stroke="#3d314a" points="586.99,-128.25 579.62,-124.05 582.76,-131.92 586.99,-128.25"/>
</g>
<!-- TESSA&#45;&gt;PseudoBulkDEG -->
<g id="edge18" class="edge">
<title>TESSA&#45;&gt;PseudoBulkDEG</title>
<path fill="none" stroke="#3d314a" d="M769.45,-168.77C760.44,-164.83 750.61,-160.11 742,-155 729.37,-147.5 716.31,-137.91 705.38,-129.27"/>
<polygon fill="#3d314a" stroke="#3d314a" points="706.86,-126.86 698.87,-124.04 703.35,-131.23 706.86,-126.86"/>
</g>
<!-- MarkersFinder -->
<g id="node16" class="node">
<title>MarkersFinder</title>
<g id="a_node16"><a xlink:title="Find markers between different groups of cells">
<polygon fill="#f26419" stroke="transparent" points="845,-124 751,-124 751,-88 845,-88 845,-124"/>
<text text-anchor="middle" x="798" y="-102.9" font-family="Helvetica,sans-Serif" font-size="12.00" fill="#ffffff">MarkersFinder</text>
</a>
</g>
</g>
<!-- TESSA&#45;&gt;MarkersFinder -->
<g id="edge6" class="edge">
<title>TESSA&#45;&gt;MarkersFinder</title>
<path fill="none" stroke="#3d314a" d="M798,-162.7C798,-153.61 798,-142.3 798,-132.25"/>
<polygon fill="#3d314a" stroke="#3d314a" points="800.8,-132.18 798,-124.18 795.2,-132.18 800.8,-132.18"/>
</g>
<!-- SeuratClusterStats -->
<g id="node21" class="node">
<title>SeuratClusterStats</title>
<polygon fill="#f26419" stroke="transparent" points="980.5,-124 863.5,-124 863.5,-88 980.5,-88 980.5,-124"/>
<text text-anchor="middle" x="922" y="-102.9" font-family="Helvetica,sans-Serif" font-size="12.00" fill="#ffffff">SeuratClusterStats</text>
</g>
<!-- TESSA&#45;&gt;SeuratClusterStats -->
<g id="edge9" class="edge">
<title>TESSA&#45;&gt;SeuratClusterStats</title>
<path fill="none" stroke="#3d314a" d="M826.73,-168.46C835.65,-164.53 845.39,-159.9 854,-155 867.44,-147.35 881.52,-137.71 893.37,-129.08"/>
<polygon fill="#3d314a" stroke="#3d314a" points="895.29,-131.15 900.06,-124.14 891.96,-126.64 895.29,-131.15"/>
</g>
<!-- CDR3AAPhyschem -->
<g id="node22" class="node">
<title>CDR3AAPhyschem</title>
<polygon fill="#f26419" stroke="transparent" points="1121.5,-124 998.5,-124 998.5,-88 1121.5,-88 1121.5,-124"/>
<text text-anchor="middle" x="1060" y="-102.9" font-family="Helvetica,sans-Serif" font-size="12.00" fill="#ffffff">CDR3AAPhyschem</text>
</g>
<!-- TESSA&#45;&gt;CDR3AAPhyschem -->
<g id="edge11" class="edge">
<title>TESSA&#45;&gt;CDR3AAPhyschem</title>
<path fill="none" stroke="#3d314a" d="M826.67,-180.39C865.11,-180 934.9,-176.07 990,-155 1005.79,-148.96 1021.49,-138.69 1034.01,-129.2"/>
<polygon fill="#3d314a" stroke="#3d314a" points="1036.04,-131.17 1040.62,-124.03 1032.59,-126.75 1036.04,-131.17"/>
</g>
<!-- ScFGSEA -->
<g id="node23" class="node">
<title>ScFGSEA</title>
<polygon fill="#f26419" stroke="transparent" points="1212,-124 1140,-124 1140,-88 1212,-88 1212,-124"/>
<text text-anchor="middle" x="1176" y="-102.9" font-family="Helvetica,sans-Serif" font-size="12.00" fill="#ffffff">ScFGSEA</text>
</g>
<!-- TESSA&#45;&gt;ScFGSEA -->
<g id="edge22" class="edge">
<title>TESSA&#45;&gt;ScFGSEA</title>
<path fill="none" stroke="#3d314a" d="M826.52,-180.48C896.99,-181.25 1077.53,-180.59 1131,-155 1142.28,-149.6 1152.14,-140.05 1159.73,-130.88"/>
<polygon fill="#3d314a" stroke="#3d314a" points="1162.12,-132.36 1164.84,-124.33 1157.71,-128.91 1162.12,-132.36"/>
</g>
<!-- ClusterMarkersOfAllCells -->
<g id="node10" class="node">
<title>ClusterMarkersOfAllCells</title>
<g id="a_node10"><a xlink:title="Markers for clusters of all cells.">
<polygon fill="#f26419" stroke="transparent" points="436,-631 284,-631 284,-595 436,-595 436,-631"/>
<text text-anchor="middle" x="360" y="-609.9" font-family="Helvetica,sans-Serif" font-size="12.00" fill="#ffffff">ClusterMarkersOfAllCells</text>
</a>
</g>
</g>
<!-- SampleInfo -->
<g id="node11" class="node">
<title>SampleInfo</title>
<g id="a_node11"><a xlink:title="List sample information and perform statistics">
<polygon fill="#4c956c" stroke="transparent" points="626,-847 558.93,-829 626,-811 693.07,-829 626,-847"/>
<text text-anchor="middle" x="626" y="-825.9" font-family="Helvetica,sans-Serif" font-size="12.00" fill="#ffffff">SampleInfo</text>
</a>
</g>
</g>
<!-- SampleInfo&#45;&gt;SeuratPreparing -->
<g id="edge25" class="edge">
<title>SampleInfo&#45;&gt;SeuratPreparing</title>
<path fill="none" stroke="#3d314a" d="M617.52,-813.15C612.39,-804.18 605.72,-792.52 599.85,-782.23"/>
<polygon fill="#3d314a" stroke="#3d314a" points="602.14,-780.6 595.74,-775.04 597.28,-783.38 602.14,-780.6"/>
</g>
<!-- ScRepLoading -->
<g id="node12" class="node">
<title>ScRepLoading</title>
<g id="a_node12"><a xlink:title="Load the single cell TCR/BCR data into a `scRepertoire` compatible object">
<path fill="#219ebc" stroke="transparent" d="M742.5,-703C742.5,-703 669.5,-703 669.5,-703 663.5,-703 657.5,-697 657.5,-691 657.5,-691 657.5,-679 657.5,-679 657.5,-673 663.5,-667 669.5,-667 669.5,-667 742.5,-667 742.5,-667 748.5,-667 754.5,-673 754.5,-679 754.5,-679 754.5,-691 754.5,-691 754.5,-697 748.5,-703 742.5,-703"/>
<text text-anchor="middle" x="706" y="-681.9" font-family="Helvetica,sans-Serif" font-size="12.00" fill="#ffffff">ScRepLoading</text>
</a>
</g>
</g>
<!-- SampleInfo&#45;&gt;ScRepLoading -->
<g id="edge4" class="edge">
<title>SampleInfo&#45;&gt;ScRepLoading</title>
<path fill="none" stroke="#3d314a" d="M634.41,-813.07C648.17,-788.65 675.61,-739.94 692.24,-710.43"/>
<polygon fill="#3d314a" stroke="#3d314a" points="694.73,-711.71 696.22,-703.37 689.85,-708.96 694.73,-711.71"/>
</g>
<!-- TCellSelection -->
<g id="node14" class="node">
<title>TCellSelection</title>
<path fill="#219ebc" stroke="transparent" d="M742,-631C742,-631 670,-631 670,-631 664,-631 658,-625 658,-619 658,-619 658,-607 658,-607 658,-601 664,-595 670,-595 670,-595 742,-595 742,-595 748,-595 754,-601 754,-607 754,-607 754,-619 754,-619 754,-625 748,-631 742,-631"/>
<text text-anchor="middle" x="706" y="-609.9" font-family="Helvetica,sans-Serif" font-size="12.00" fill="#ffffff">TCellSelection</text>
</g>
<!-- ScRepLoading&#45;&gt;TCellSelection -->
<g id="edge5" class="edge">
<title>ScRepLoading&#45;&gt;TCellSelection</title>
<path fill="none" stroke="#3d314a" d="M706,-666.7C706,-658.39 706,-648.28 706,-639.14"/>
<polygon fill="#3d314a" stroke="#3d314a" points="708.8,-639.1 706,-631.1 703.2,-639.1 708.8,-639.1"/>
</g>
<!-- ScRepCombiningExpression -->
<g id="node24" class="node">
<title>ScRepCombiningExpression</title>
<path fill="#219ebc" stroke="transparent" d="M872,-343C872,-343 724,-343 724,-343 718,-343 712,-337 712,-331 712,-331 712,-319 712,-319 712,-313 718,-307 724,-307 724,-307 872,-307 872,-307 878,-307 884,-313 884,-319 884,-319 884,-331 884,-331 884,-337 878,-343 872,-343"/>
<text text-anchor="middle" x="798" y="-321.9" font-family="Helvetica,sans-Serif" font-size="12.00" fill="#ffffff">ScRepCombiningExpression</text>
</g>
<!-- ScRepLoading&#45;&gt;ScRepCombiningExpression -->
<g id="edge16" class="edge">
<title>ScRepLoading&#45;&gt;ScRepCombiningExpression</title>
<path fill="none" stroke="#3d314a" d="M729.09,-666.98C740.62,-657.49 753.99,-644.8 763,-631 785.9,-595.93 794,-583.89 794,-542 794,-542 794,-542 794,-468 794,-427.1 795.68,-379.6 796.86,-351.21"/>
<polygon fill="#3d314a" stroke="#3d314a" points="799.67,-351.16 797.21,-343.04 794.07,-350.92 799.67,-351.16"/>
</g>
<!-- SeuratClusteringOfAllCells&#45;&gt;ClusterMarkersOfAllCells -->
<g id="edge10" class="edge">
<title>SeuratClusteringOfAllCells&#45;&gt;ClusterMarkersOfAllCells</title>
<path fill="none" stroke="#3d314a" d="M505.79,-666.88C478.23,-656.88 443.34,-644.23 414.61,-633.81"/>
<polygon fill="#3d314a" stroke="#3d314a" points="415.54,-631.16 407.06,-631.07 413.63,-636.43 415.54,-631.16"/>
</g>
<!-- SeuratClusteringOfAllCells&#45;&gt;TCellSelection -->
<g id="edge7" class="edge">
<title>SeuratClusteringOfAllCells&#45;&gt;TCellSelection</title>
<path fill="none" stroke="#3d314a" d="M590.43,-666.88C611.81,-657.09 638.76,-644.77 661.25,-634.47"/>
<polygon fill="#3d314a" stroke="#3d314a" points="662.58,-636.94 668.69,-631.07 660.25,-631.85 662.58,-636.94"/>
</g>
<!-- TopExpressingGenesOfAllCells -->
<g id="node25" class="node">
<title>TopExpressingGenesOfAllCells</title>
<g id="a_node25"><a xlink:title="Top expressing genes for clusters of all cells.">
<polygon fill="#f26419" stroke="transparent" points="639.5,-631 454.5,-631 454.5,-595 639.5,-595 639.5,-631"/>
<text text-anchor="middle" x="547" y="-609.9" font-family="Helvetica,sans-Serif" font-size="12.00" fill="#ffffff">TopExpressingGenesOfAllCells</text>
</a>
</g>
</g>
<!-- SeuratClusteringOfAllCells&#45;&gt;TopExpressingGenesOfAllCells -->
<g id="edge8" class="edge">
<title>SeuratClusteringOfAllCells&#45;&gt;TopExpressingGenesOfAllCells</title>
<path fill="none" stroke="#3d314a" d="M551.52,-666.7C550.8,-658.39 549.94,-648.28 549.15,-639.14"/>
<polygon fill="#3d314a" stroke="#3d314a" points="551.94,-638.84 548.47,-631.1 546.36,-639.31 551.94,-638.84"/>
</g>
<!-- ModuleScoreCalculator -->
<g id="node19" class="node">
<title>ModuleScoreCalculator</title>
<g id="a_node19"><a xlink:title="Calculate the module scores for each cell">
<path fill="#219ebc" stroke="transparent" d="M746.5,-559C746.5,-559 627.5,-559 627.5,-559 621.5,-559 615.5,-553 615.5,-547 615.5,-547 615.5,-535 615.5,-535 615.5,-529 621.5,-523 627.5,-523 627.5,-523 746.5,-523 746.5,-523 752.5,-523 758.5,-529 758.5,-535 758.5,-535 758.5,-547 758.5,-547 758.5,-553 752.5,-559 746.5,-559"/>
<text text-anchor="middle" x="687" y="-537.9" font-family="Helvetica,sans-Serif" font-size="12.00" fill="#ffffff">ModuleScoreCalculator</text>
</a>
</g>
</g>
<!-- TCellSelection&#45;&gt;ModuleScoreCalculator -->
<g id="edge14" class="edge">
<title>TCellSelection&#45;&gt;ModuleScoreCalculator</title>
<path fill="none" stroke="#3d314a" d="M701.3,-594.7C699.03,-586.3 696.25,-576.07 693.75,-566.86"/>
<polygon fill="#3d314a" stroke="#3d314a" points="696.44,-566.09 691.64,-559.1 691.04,-567.56 696.44,-566.09"/>
</g>
<!-- CellTypeAnnotation -->
<g id="node15" class="node">
<title>CellTypeAnnotation</title>
<g id="a_node15"><a xlink:title="Annotate the T cell clusters.">
<path fill="#219ebc" stroke="transparent" d="M697,-415C697,-415 599,-415 599,-415 593,-415 587,-409 587,-403 587,-403 587,-391 587,-391 587,-385 593,-379 599,-379 599,-379 697,-379 697,-379 703,-379 709,-385 709,-391 709,-391 709,-403 709,-403 709,-409 703,-415 697,-415"/>
<text text-anchor="middle" x="648" y="-393.9" font-family="Helvetica,sans-Serif" font-size="12.00" fill="#ffffff">CellTypeAnnotation</text>
</a>
</g>
</g>
<!-- CellTypeAnnotation&#45;&gt;TopExpressingGenes -->
<g id="edge19" class="edge">
<title>CellTypeAnnotation&#45;&gt;TopExpressingGenes</title>
<path fill="none" stroke="#3d314a" d="M614.73,-378.88C595.96,-369.22 572.36,-357.07 552.52,-346.86"/>
<polygon fill="#3d314a" stroke="#3d314a" points="553.79,-344.36 545.4,-343.19 551.23,-349.34 553.79,-344.36"/>
</g>
<!-- ClusterMarkers -->
<g id="node20" class="node">
<title>ClusterMarkers</title>
<g id="a_node20"><a xlink:title="Markers for clusters of all or selected T cells.">
<polygon fill="#f26419" stroke="transparent" points="694,-343 596,-343 596,-307 694,-307 694,-343"/>
<text text-anchor="middle" x="645" y="-321.9" font-family="Helvetica,sans-Serif" font-size="12.00" fill="#ffffff">ClusterMarkers</text>
</a>
</g>
</g>
<!-- CellTypeAnnotation&#45;&gt;ClusterMarkers -->
<g id="edge26" class="edge">
<title>CellTypeAnnotation&#45;&gt;ClusterMarkers</title>
<path fill="none" stroke="#3d314a" d="M647.26,-378.7C646.9,-370.39 646.47,-360.28 646.08,-351.14"/>
<polygon fill="#3d314a" stroke="#3d314a" points="648.87,-350.98 645.73,-343.1 643.28,-351.22 648.87,-350.98"/>
</g>
<!-- CellTypeAnnotation&#45;&gt;ScRepCombiningExpression -->
<g id="edge20" class="edge">
<title>CellTypeAnnotation&#45;&gt;ScRepCombiningExpression</title>
<path fill="none" stroke="#3d314a" d="M684.69,-378.88C705.66,-369.09 732.07,-356.77 754.13,-346.47"/>
<polygon fill="#3d314a" stroke="#3d314a" points="755.36,-348.99 761.43,-343.07 752.99,-343.91 755.36,-348.99"/>
</g>
<!-- SeuratClustering -->
<g id="node17" class="node">
<title>SeuratClustering</title>
<g id="a_node17"><a xlink:title="Cluster all T cells or selected T cells selected by `TCellSelection`.">
<path fill="#219ebc" stroke="transparent" d="M715.5,-487C715.5,-487 632.5,-487 632.5,-487 626.5,-487 620.5,-481 620.5,-475 620.5,-475 620.5,-463 620.5,-463 620.5,-457 626.5,-451 632.5,-451 632.5,-451 715.5,-451 715.5,-451 721.5,-451 727.5,-457 727.5,-463 727.5,-463 727.5,-475 727.5,-475 727.5,-481 721.5,-487 715.5,-487"/>
<text text-anchor="middle" x="674" y="-465.9" font-family="Helvetica,sans-Serif" font-size="12.00" fill="#ffffff">SeuratClustering</text>
</a>
</g>
</g>
<!-- SeuratClustering&#45;&gt;CellTypeAnnotation -->
<g id="edge15" class="edge">
<title>SeuratClustering&#45;&gt;CellTypeAnnotation</title>
<path fill="none" stroke="#3d314a" d="M667.57,-450.7C664.46,-442.3 660.65,-432.07 657.23,-422.86"/>
<polygon fill="#3d314a" stroke="#3d314a" points="659.76,-421.63 654.35,-415.1 654.51,-423.58 659.76,-421.63"/>
</g>
<!-- TCRClustering -->
<g id="node18" class="node">
<title>TCRClustering</title>
<g id="a_node18"><a xlink:title="Cluster the TCR clones by their CDR3 sequences">
<path fill="#219ebc" stroke="transparent" d="M834.5,-271C834.5,-271 761.5,-271 761.5,-271 755.5,-271 749.5,-265 749.5,-259 749.5,-259 749.5,-247 749.5,-247 749.5,-241 755.5,-235 761.5,-235 761.5,-235 834.5,-235 834.5,-235 840.5,-235 846.5,-241 846.5,-247 846.5,-247 846.5,-259 846.5,-259 846.5,-265 840.5,-271 834.5,-271"/>
<text text-anchor="middle" x="798" y="-249.9" font-family="Helvetica,sans-Serif" font-size="12.00" fill="#ffffff">TCRClustering</text>
</a>
</g>
</g>
<!-- TCRClustering&#45;&gt;TESSA -->
<g id="edge21" class="edge">
<title>TCRClustering&#45;&gt;TESSA</title>
<path fill="none" stroke="#3d314a" d="M798,-234.7C798,-226.39 798,-216.28 798,-207.14"/>
<polygon fill="#3d314a" stroke="#3d314a" points="800.8,-207.1 798,-199.1 795.2,-207.1 800.8,-207.1"/>
</g>
<!-- ModuleScoreCalculator&#45;&gt;SeuratClustering -->
<g id="edge23" class="edge">
<title>ModuleScoreCalculator&#45;&gt;SeuratClustering</title>
<path fill="none" stroke="#3d314a" d="M683.79,-522.7C682.24,-514.39 680.37,-504.28 678.67,-495.14"/>
<polygon fill="#3d314a" stroke="#3d314a" points="681.39,-494.46 677.18,-487.1 675.88,-495.48 681.39,-494.46"/>
</g>
<!-- ScRepCombiningExpression&#45;&gt;TCRClustering -->
<g id="edge17" class="edge">
<title>ScRepCombiningExpression&#45;&gt;TCRClustering</title>
<path fill="none" stroke="#3d314a" d="M798,-306.7C798,-298.39 798,-288.28 798,-279.14"/>
<polygon fill="#3d314a" stroke="#3d314a" points="800.8,-279.1 798,-271.1 795.2,-279.1 800.8,-279.1"/>
</g>
</g>
</svg>
