<?xml version="1.0" encoding="UTF-8" standalone="no"?>
<!DOCTYPE svg PUBLIC "-//W3C//DTD SVG 1.1//EN"
 "http://www.w3.org/Graphics/SVG/1.1/DTD/svg11.dtd">
<!-- Generated by graphviz version 3.0.0 (20220315.2325)
 -->
<!-- Title: ImmunopipeLocal Pages: 1 -->
<svg width="1515pt" height="965pt"
 viewBox="0.00 0.00 1514.50 965.00" xmlns="http://www.w3.org/2000/svg" xmlns:xlink="http://www.w3.org/1999/xlink">
<g id="graph0" class="graph" transform="scale(1 1) rotate(0) translate(4 961)">
<title>ImmunopipeLocal</title>
<polygon fill="white" stroke="transparent" points="-4,4 -4,-961 1510.5,-961 1510.5,4 -4,4"/>
<text text-anchor="middle" x="753.25" y="-941.8" font-family="Helvetica,sans-Serif" font-size="14.00">ImmunopipeLocal</text>
<text text-anchor="middle" x="753.25" y="-926.8" font-family="Helvetica,sans-Serif" font-size="14.00"> </text>
<g id="clust1" class="cluster">
<title>cluster_ScrnaMetabolicLandscape</title>
<polygon fill="#eeeeee" stroke="#eeeeee" points="792.5,-8 792.5,-227 1498.5,-227 1498.5,-8 792.5,-8"/>
<text text-anchor="middle" x="880.5" y="-211.8" font-family="Helvetica,sans-Serif" font-size="14.00">ScrnaMetabolicLandscape</text>
</g>
<!-- MetabolicExprImpution -->
<g id="node1" class="node">
<title>MetabolicExprImpution</title>
<g id="a_node1"><a xlink:title="This process imputes the dropout values in scRNA&#45;seq data.">
<path fill="#219ebc" stroke="transparent" d="M1124,-124C1124,-124 1009,-124 1009,-124 1003,-124 997,-118 997,-112 997,-112 997,-100 997,-100 997,-94 1003,-88 1009,-88 1009,-88 1124,-88 1124,-88 1130,-88 1136,-94 1136,-100 1136,-100 1136,-112 1136,-112 1136,-118 1130,-124 1124,-124"/>
<text text-anchor="middle" x="1066.5" y="-102.9" font-family="Helvetica,sans-Serif" font-size="12.00" fill="#ffffff">MetabolicExprImpution</text>
</a>
</g>
</g>
<!-- MetabolicPathwayHeterogeneity -->
<g id="node3" class="node">
<title>MetabolicPathwayHeterogeneity</title>
<g id="a_node3"><a xlink:title="Calculate Metabolic Pathway heterogeneity.">
<polygon fill="#f26419" stroke="transparent" points="990.5,-52 800.5,-52 800.5,-16 990.5,-16 990.5,-52"/>
<text text-anchor="middle" x="895.5" y="-30.9" font-family="Helvetica,sans-Serif" font-size="12.00" fill="#ffffff">MetabolicPathwayHeterogeneity</text>
</a>
</g>
</g>
<!-- MetabolicExprImpution&#45;&gt;MetabolicPathwayHeterogeneity -->
<g id="edge3" class="edge">
<title>MetabolicExprImpution&#45;&gt;MetabolicPathwayHeterogeneity</title>
<path fill="none" stroke="#3d314a" d="M1024.67,-87.88C1000.56,-78.01 970.13,-65.55 944.86,-55.21"/>
<polygon fill="#3d314a" stroke="#3d314a" points="945.66,-52.51 937.2,-52.07 943.54,-57.69 945.66,-52.51"/>
</g>
<!-- MetabolicFeatures -->
<g id="node4" class="node">
<title>MetabolicFeatures</title>
<g id="a_node4"><a xlink:title="This process performs enrichment analysis for the metabolic pathways for each group in each subset.">
<polygon fill="#f26419" stroke="transparent" points="1124.5,-52 1008.5,-52 1008.5,-16 1124.5,-16 1124.5,-52"/>
<text text-anchor="middle" x="1066.5" y="-30.9" font-family="Helvetica,sans-Serif" font-size="12.00" fill="#ffffff">MetabolicFeatures</text>
</a>
</g>
</g>
<!-- MetabolicExprImpution&#45;&gt;MetabolicFeatures -->
<g id="edge2" class="edge">
<title>MetabolicExprImpution&#45;&gt;MetabolicFeatures</title>
<path fill="none" stroke="#3d314a" d="M1066.5,-87.7C1066.5,-79.39 1066.5,-69.28 1066.5,-60.14"/>
<polygon fill="#3d314a" stroke="#3d314a" points="1069.3,-60.1 1066.5,-52.1 1063.7,-60.1 1069.3,-60.1"/>
</g>
<!-- MetabolicFeaturesIntraSubset -->
<g id="node5" class="node">
<title>MetabolicFeaturesIntraSubset</title>
<g id="a_node5"><a xlink:title="Intra&#45;subset metabolic features &#45; Enrichment analysis in details">
<polygon fill="#f26419" stroke="transparent" points="1318.5,-52 1142.5,-52 1142.5,-16 1318.5,-16 1318.5,-52"/>
<text text-anchor="middle" x="1230.5" y="-30.9" font-family="Helvetica,sans-Serif" font-size="12.00" fill="#ffffff">MetabolicFeaturesIntraSubset</text>
</a>
</g>
</g>
<!-- MetabolicExprImpution&#45;&gt;MetabolicFeaturesIntraSubset -->
<g id="edge1" class="edge">
<title>MetabolicExprImpution&#45;&gt;MetabolicFeaturesIntraSubset</title>
<path fill="none" stroke="#3d314a" d="M1106.62,-87.88C1129.64,-78.05 1158.67,-65.66 1182.85,-55.34"/>
<polygon fill="#3d314a" stroke="#3d314a" points="1184.25,-57.78 1190.51,-52.07 1182.05,-52.63 1184.25,-57.78"/>
</g>
<!-- MetabolicPathwayActivity -->
<g id="node6" class="node">
<title>MetabolicPathwayActivity</title>
<g id="a_node6"><a xlink:title="This process calculates the pathway activities in different groups and subsets.">
<polygon fill="#f26419" stroke="transparent" points="1490,-52 1337,-52 1337,-16 1490,-16 1490,-52"/>
<text text-anchor="middle" x="1413.5" y="-30.9" font-family="Helvetica,sans-Serif" font-size="12.00" fill="#ffffff">MetabolicPathwayActivity</text>
</a>
</g>
</g>
<!-- MetabolicExprImpution&#45;&gt;MetabolicPathwayActivity -->
<g id="edge4" class="edge">
<title>MetabolicExprImpution&#45;&gt;MetabolicPathwayActivity</title>
<path fill="none" stroke="#3d314a" d="M1136.3,-90.92C1191.89,-79.7 1269.92,-63.96 1329.03,-52.04"/>
<polygon fill="#3d314a" stroke="#3d314a" points="1329.59,-54.78 1336.87,-50.46 1328.48,-49.3 1329.59,-54.78"/>
</g>
<!-- MetabolicInput -->
<g id="node2" class="node">
<title>MetabolicInput</title>
<g id="a_node2"><a xlink:title="This process takes Seurat object as input and pass it to the next processes in the `ScrnaMetabolicLandscape` group.">
<path fill="#219ebc" stroke="transparent" d="M993,-196C993,-196 922,-196 922,-196 916,-196 910,-190 910,-184 910,-184 910,-172 910,-172 910,-166 916,-160 922,-160 922,-160 993,-160 993,-160 999,-160 1005,-166 1005,-172 1005,-172 1005,-184 1005,-184 1005,-190 999,-196 993,-196"/>
<text text-anchor="middle" x="957.5" y="-174.9" font-family="Helvetica,sans-Serif" font-size="12.00" fill="#ffffff">MetabolicInput</text>
</a>
</g>
</g>
<!-- MetabolicInput&#45;&gt;MetabolicExprImpution -->
<g id="edge5" class="edge">
<title>MetabolicInput&#45;&gt;MetabolicExprImpution</title>
<path fill="none" stroke="#3d314a" d="M984.16,-159.88C998.81,-150.47 1017.13,-138.71 1032.76,-128.67"/>
<polygon fill="#3d314a" stroke="#3d314a" points="1034.51,-130.87 1039.73,-124.19 1031.49,-126.16 1034.51,-130.87"/>
</g>
<!-- TCRClustering -->
<g id="node7" class="node">
<title>TCRClustering</title>
<g id="a_node7"><a xlink:title="Cluster the TCR clones by their CDR3 sequences">
<path fill="#219ebc" stroke="transparent" d="M543,-703C543,-703 470,-703 470,-703 464,-703 458,-697 458,-691 458,-691 458,-679 458,-679 458,-673 464,-667 470,-667 470,-667 543,-667 543,-667 549,-667 555,-673 555,-679 555,-679 555,-691 555,-691 555,-697 549,-703 543,-703"/>
<text text-anchor="middle" x="506.5" y="-681.9" font-family="Helvetica,sans-Serif" font-size="12.00" fill="#ffffff">TCRClustering</text>
</a>
</g>
</g>
<!-- TCRClusterStats -->
<g id="node10" class="node">
<title>TCRClusterStats</title>
<polygon fill="#f26419" stroke="transparent" points="555,-631 448,-631 448,-595 555,-595 555,-631"/>
<text text-anchor="middle" x="501.5" y="-609.9" font-family="Helvetica,sans-Serif" font-size="12.00" fill="#ffffff">TCRClusterStats</text>
</g>
<!-- TCRClustering&#45;&gt;TCRClusterStats -->
<g id="edge20" class="edge">
<title>TCRClustering&#45;&gt;TCRClusterStats</title>
<path fill="none" stroke="#3d314a" d="M505.26,-666.7C504.67,-658.39 503.95,-648.28 503.3,-639.14"/>
<polygon fill="#3d314a" stroke="#3d314a" points="506.08,-638.88 502.72,-631.1 500.5,-639.28 506.08,-638.88"/>
</g>
<!-- TCRClusters2Seurat -->
<g id="node27" class="node">
<title>TCRClusters2Seurat</title>
<g id="a_node27"><a xlink:title="Attach TCR clusters as meta columns to Seurat object">
<path fill="#219ebc" stroke="transparent" d="M511.5,-271C511.5,-271 407.5,-271 407.5,-271 401.5,-271 395.5,-265 395.5,-259 395.5,-259 395.5,-247 395.5,-247 395.5,-241 401.5,-235 407.5,-235 407.5,-235 511.5,-235 511.5,-235 517.5,-235 523.5,-241 523.5,-247 523.5,-247 523.5,-259 523.5,-259 523.5,-265 517.5,-271 511.5,-271"/>
<text text-anchor="middle" x="459.5" y="-249.9" font-family="Helvetica,sans-Serif" font-size="12.00" fill="#ffffff">TCRClusters2Seurat</text>
</a>
</g>
</g>
<!-- TCRClustering&#45;&gt;TCRClusters2Seurat -->
<g id="edge22" class="edge">
<title>TCRClustering&#45;&gt;TCRClusters2Seurat</title>
<path fill="none" stroke="#3d314a" d="M476,-666.99C462.54,-657.98 447.72,-645.71 438.5,-631 417.03,-596.72 419.5,-582.45 419.5,-542 419.5,-542 419.5,-542 419.5,-396 419.5,-353.57 436.25,-306.6 448.07,-278.72"/>
<polygon fill="#3d314a" stroke="#3d314a" points="450.78,-279.5 451.41,-271.05 445.65,-277.27 450.78,-279.5"/>
</g>
<!-- TESSA -->
<g id="node8" class="node">
<title>TESSA</title>
<g id="a_node8"><a xlink:title="Tessa is a Bayesian model to integrate T cell receptor (TCR) sequence profiling with transcriptomes of T cells.">
<path fill="#219ebc" stroke="transparent" d="M657,-415C657,-415 624,-415 624,-415 618,-415 612,-409 612,-403 612,-403 612,-391 612,-391 612,-385 618,-379 624,-379 624,-379 657,-379 657,-379 663,-379 669,-385 669,-391 669,-391 669,-403 669,-403 669,-409 663,-415 657,-415"/>
<text text-anchor="middle" x="640.5" y="-393.9" font-family="Helvetica,sans-Serif" font-size="12.00" fill="#ffffff">TESSA</text>
</a>
</g>
</g>
<!-- SeuratMetadataMutater -->
<g id="node17" class="node">
<title>SeuratMetadataMutater</title>
<g id="a_node17"><a xlink:title="Attach TCR clone information as meta columns to Seurat object">
<path fill="#219ebc" stroke="transparent" d="M642,-343C642,-343 525,-343 525,-343 519,-343 513,-337 513,-331 513,-331 513,-319 513,-319 513,-313 519,-307 525,-307 525,-307 642,-307 642,-307 648,-307 654,-313 654,-319 654,-319 654,-331 654,-331 654,-337 648,-343 642,-343"/>
<text text-anchor="middle" x="583.5" y="-321.9" font-family="Helvetica,sans-Serif" font-size="12.00" fill="#ffffff">SeuratMetadataMutater</text>
</a>
</g>
</g>
<!-- TESSA&#45;&gt;SeuratMetadataMutater -->
<g id="edge7" class="edge">
<title>TESSA&#45;&gt;SeuratMetadataMutater</title>
<path fill="none" stroke="#3d314a" d="M626.41,-378.7C619.23,-369.88 610.4,-359.03 602.61,-349.47"/>
<polygon fill="#3d314a" stroke="#3d314a" points="604.65,-347.54 597.43,-343.1 600.31,-351.08 604.65,-347.54"/>
</g>
<!-- ClusterMarkersOfAllCells -->
<g id="node9" class="node">
<title>ClusterMarkersOfAllCells</title>
<g id="a_node9"><a xlink:title="Markers for clusters of all cells.">
<polygon fill="#f26419" stroke="transparent" points="915.5,-703 763.5,-703 763.5,-667 915.5,-667 915.5,-703"/>
<text text-anchor="middle" x="839.5" y="-681.9" font-family="Helvetica,sans-Serif" font-size="12.00" fill="#ffffff">ClusterMarkersOfAllCells</text>
</a>
</g>
</g>
<!-- SeuratPreparing -->
<g id="node11" class="node">
<title>SeuratPreparing</title>
<g id="a_node11"><a xlink:title="Load, prepare and apply QC to data, using `Seurat`">
<path fill="#219ebc" stroke="transparent" d="M709.5,-847C709.5,-847 629.5,-847 629.5,-847 623.5,-847 617.5,-841 617.5,-835 617.5,-835 617.5,-823 617.5,-823 617.5,-817 623.5,-811 629.5,-811 629.5,-811 709.5,-811 709.5,-811 715.5,-811 721.5,-817 721.5,-823 721.5,-823 721.5,-835 721.5,-835 721.5,-841 715.5,-847 709.5,-847"/>
<text text-anchor="middle" x="669.5" y="-825.9" font-family="Helvetica,sans-Serif" font-size="12.00" fill="#ffffff">SeuratPreparing</text>
</a>
</g>
</g>
<!-- SeuratClusteringOfAllCells -->
<g id="node15" class="node">
<title>SeuratClusteringOfAllCells</title>
<g id="a_node15"><a xlink:title="Cluster all cells using Seurat">
<path fill="#219ebc" stroke="transparent" d="M837,-775C837,-775 700,-775 700,-775 694,-775 688,-769 688,-763 688,-763 688,-751 688,-751 688,-745 694,-739 700,-739 700,-739 837,-739 837,-739 843,-739 849,-745 849,-751 849,-751 849,-763 849,-763 849,-769 843,-775 837,-775"/>
<text text-anchor="middle" x="768.5" y="-753.9" font-family="Helvetica,sans-Serif" font-size="12.00" fill="#ffffff">SeuratClusteringOfAllCells</text>
</a>
</g>
</g>
<!-- SeuratPreparing&#45;&gt;SeuratClusteringOfAllCells -->
<g id="edge13" class="edge">
<title>SeuratPreparing&#45;&gt;SeuratClusteringOfAllCells</title>
<path fill="none" stroke="#3d314a" d="M693.72,-810.88C706.9,-801.55 723.36,-789.92 737.47,-779.94"/>
<polygon fill="#3d314a" stroke="#3d314a" points="739.27,-782.09 744.19,-775.19 736.04,-777.52 739.27,-782.09"/>
</g>
<!-- ImmunarchLoading -->
<g id="node12" class="node">
<title>ImmunarchLoading</title>
<path fill="#219ebc" stroke="transparent" d="M554,-775C554,-775 459,-775 459,-775 453,-775 447,-769 447,-763 447,-763 447,-751 447,-751 447,-745 453,-739 459,-739 459,-739 554,-739 554,-739 560,-739 566,-745 566,-751 566,-751 566,-763 566,-763 566,-769 560,-775 554,-775"/>
<text text-anchor="middle" x="506.5" y="-753.9" font-family="Helvetica,sans-Serif" font-size="12.00" fill="#ffffff">ImmunarchLoading</text>
</g>
<!-- ImmunarchLoading&#45;&gt;TCRClustering -->
<g id="edge17" class="edge">
<title>ImmunarchLoading&#45;&gt;TCRClustering</title>
<path fill="none" stroke="#3d314a" d="M506.5,-738.7C506.5,-730.39 506.5,-720.28 506.5,-711.14"/>
<polygon fill="#3d314a" stroke="#3d314a" points="509.3,-711.1 506.5,-703.1 503.7,-711.1 509.3,-711.1"/>
</g>
<!-- ImmunarchLoading&#45;&gt;TESSA -->
<g id="edge32" class="edge">
<title>ImmunarchLoading&#45;&gt;TESSA</title>
<path fill="none" stroke="#3d314a" d="M551.01,-738.82C567.76,-730.34 585.61,-718.53 597.5,-703 622.4,-670.47 621.5,-654.97 621.5,-614 621.5,-614 621.5,-614 621.5,-540 621.5,-498.98 629.39,-451.87 635,-423.55"/>
<polygon fill="#3d314a" stroke="#3d314a" points="637.81,-423.79 636.66,-415.39 632.32,-422.67 637.81,-423.79"/>
</g>
<!-- ImmunarchLoading&#45;&gt;SeuratMetadataMutater -->
<g id="edge33" class="edge">
<title>ImmunarchLoading&#45;&gt;SeuratMetadataMutater</title>
<path fill="none" stroke="#3d314a" d="M530.83,-738.92C542.39,-729.58 555.42,-717.06 563.5,-703 583.69,-667.85 583.5,-654.54 583.5,-614 583.5,-614 583.5,-614 583.5,-468 583.5,-427.11 583.5,-379.61 583.5,-351.22"/>
<polygon fill="#3d314a" stroke="#3d314a" points="586.3,-351.05 583.5,-343.05 580.7,-351.05 586.3,-351.05"/>
</g>
<!-- CloneResidency -->
<g id="node18" class="node">
<title>CloneResidency</title>
<polygon fill="#f26419" stroke="transparent" points="345.5,-703 239.5,-703 239.5,-667 345.5,-667 345.5,-703"/>
<text text-anchor="middle" x="292.5" y="-681.9" font-family="Helvetica,sans-Serif" font-size="12.00" fill="#ffffff">CloneResidency</text>
</g>
<!-- ImmunarchLoading&#45;&gt;CloneResidency -->
<g id="edge27" class="edge">
<title>ImmunarchLoading&#45;&gt;CloneResidency</title>
<path fill="none" stroke="#3d314a" d="M454.42,-738.97C423.74,-728.93 384.8,-716.19 352.79,-705.72"/>
<polygon fill="#3d314a" stroke="#3d314a" points="353.28,-702.94 344.81,-703.11 351.54,-708.26 353.28,-702.94"/>
</g>
<!-- TCellSelection -->
<g id="node21" class="node">
<title>TCellSelection</title>
<path fill="#219ebc" stroke="transparent" d="M733.5,-703C733.5,-703 661.5,-703 661.5,-703 655.5,-703 649.5,-697 649.5,-691 649.5,-691 649.5,-679 649.5,-679 649.5,-673 655.5,-667 661.5,-667 661.5,-667 733.5,-667 733.5,-667 739.5,-667 745.5,-673 745.5,-679 745.5,-679 745.5,-691 745.5,-691 745.5,-697 739.5,-703 733.5,-703"/>
<text text-anchor="middle" x="697.5" y="-681.9" font-family="Helvetica,sans-Serif" font-size="12.00" fill="#ffffff">TCellSelection</text>
</g>
<!-- ImmunarchLoading&#45;&gt;TCellSelection -->
<g id="edge8" class="edge">
<title>ImmunarchLoading&#45;&gt;TCellSelection</title>
<path fill="none" stroke="#3d314a" d="M553.22,-738.88C580.38,-728.92 614.73,-716.34 643.1,-705.94"/>
<polygon fill="#3d314a" stroke="#3d314a" points="644.38,-708.45 650.93,-703.07 642.45,-703.19 644.38,-708.45"/>
</g>
<!-- Immunarch -->
<g id="node23" class="node">
<title>Immunarch</title>
<polygon fill="#f26419" stroke="transparent" points="439.5,-703 363.5,-703 363.5,-667 439.5,-667 439.5,-703"/>
<text text-anchor="middle" x="401.5" y="-681.9" font-family="Helvetica,sans-Serif" font-size="12.00" fill="#ffffff">Immunarch</text>
</g>
<!-- ImmunarchLoading&#45;&gt;Immunarch -->
<g id="edge29" class="edge">
<title>ImmunarchLoading&#45;&gt;Immunarch</title>
<path fill="none" stroke="#3d314a" d="M480.81,-738.88C466.7,-729.47 449.06,-717.71 434,-707.67"/>
<polygon fill="#3d314a" stroke="#3d314a" points="435.49,-705.3 427.28,-703.19 432.39,-709.96 435.49,-705.3"/>
</g>
<!-- Immunarch2VDJtools -->
<g id="node25" class="node">
<title>Immunarch2VDJtools</title>
<path fill="#219ebc" stroke="transparent" d="M209,-703C209,-703 102,-703 102,-703 96,-703 90,-697 90,-691 90,-691 90,-679 90,-679 90,-673 96,-667 102,-667 102,-667 209,-667 209,-667 215,-667 221,-673 221,-679 221,-679 221,-691 221,-691 221,-697 215,-703 209,-703"/>
<text text-anchor="middle" x="155.5" y="-681.9" font-family="Helvetica,sans-Serif" font-size="12.00" fill="#ffffff">Immunarch2VDJtools</text>
</g>
<!-- ImmunarchLoading&#45;&gt;Immunarch2VDJtools -->
<g id="edge24" class="edge">
<title>ImmunarchLoading&#45;&gt;Immunarch2VDJtools</title>
<path fill="none" stroke="#3d314a" d="M446.89,-745.14C390.92,-734.81 304.88,-718.57 230.5,-703 230.12,-702.92 229.75,-702.84 229.37,-702.76"/>
<polygon fill="#3d314a" stroke="#3d314a" points="229.73,-699.98 221.32,-701.05 228.56,-705.45 229.73,-699.98"/>
</g>
<!-- CDR3AAPhyschem -->
<g id="node34" class="node">
<title>CDR3AAPhyschem</title>
<polygon fill="#f26419" stroke="transparent" points="123,-196 0,-196 0,-160 123,-160 123,-196"/>
<text text-anchor="middle" x="61.5" y="-174.9" font-family="Helvetica,sans-Serif" font-size="12.00" fill="#ffffff">CDR3AAPhyschem</text>
</g>
<!-- ImmunarchLoading&#45;&gt;CDR3AAPhyschem -->
<g id="edge30" class="edge">
<title>ImmunarchLoading&#45;&gt;CDR3AAPhyschem</title>
<path fill="none" stroke="#3d314a" d="M446.97,-756.79C342.62,-756.88 132.75,-750.91 80.5,-703 50.69,-675.66 61.5,-654.45 61.5,-614 61.5,-614 61.5,-614 61.5,-324 61.5,-282.25 61.5,-233.74 61.5,-204.75"/>
<polygon fill="#3d314a" stroke="#3d314a" points="64.3,-204.41 61.5,-196.41 58.7,-204.41 64.3,-204.41"/>
</g>
<!-- RadarPlots -->
<g id="node13" class="node">
<title>RadarPlots</title>
<g id="a_node13"><a xlink:title="Envs: mutaters: Mutaters to mutate the metadata of the seurat object. Keys are the column names and values are the expressions to mutate the columns. These new columns will be used to define your cases.. See also [`mutating the metadata`](../configurations.md#mutating&#45;the&#45;metadata).">
<polygon fill="#f26419" stroke="transparent" points="218,-196 141,-196 141,-160 218,-160 218,-196"/>
<text text-anchor="middle" x="179.5" y="-174.9" font-family="Helvetica,sans-Serif" font-size="12.00" fill="#ffffff">RadarPlots</text>
</a>
</g>
</g>
<!-- TopExpressingGenes -->
<g id="node14" class="node">
<title>TopExpressingGenes</title>
<g id="a_node14"><a xlink:title="Top expressing genes for clusters of T cells.">
<polygon fill="#f26419" stroke="transparent" points="818,-415 687,-415 687,-379 818,-379 818,-415"/>
<text text-anchor="middle" x="752.5" y="-393.9" font-family="Helvetica,sans-Serif" font-size="12.00" fill="#ffffff">TopExpressingGenes</text>
</a>
</g>
</g>
<!-- SeuratClusteringOfAllCells&#45;&gt;ClusterMarkersOfAllCells -->
<g id="edge34" class="edge">
<title>SeuratClusteringOfAllCells&#45;&gt;ClusterMarkersOfAllCells</title>
<path fill="none" stroke="#3d314a" d="M786.05,-738.7C795.16,-729.71 806.42,-718.61 816.25,-708.92"/>
<polygon fill="#3d314a" stroke="#3d314a" points="818.42,-710.71 822.15,-703.1 814.49,-706.73 818.42,-710.71"/>
</g>
<!-- SeuratClusteringOfAllCells&#45;&gt;TCellSelection -->
<g id="edge31" class="edge">
<title>SeuratClusteringOfAllCells&#45;&gt;TCellSelection</title>
<path fill="none" stroke="#3d314a" d="M750.95,-738.7C741.84,-729.71 730.58,-718.61 720.75,-708.92"/>
<polygon fill="#3d314a" stroke="#3d314a" points="722.51,-706.73 714.85,-703.1 718.58,-710.71 722.51,-706.73"/>
</g>
<!-- TopExpressingGenesOfAllCells -->
<g id="node26" class="node">
<title>TopExpressingGenesOfAllCells</title>
<g id="a_node26"><a xlink:title="Top expressing genes for clusters of all cells.">
<polygon fill="#f26419" stroke="transparent" points="1119,-703 934,-703 934,-667 1119,-667 1119,-703"/>
<text text-anchor="middle" x="1026.5" y="-681.9" font-family="Helvetica,sans-Serif" font-size="12.00" fill="#ffffff">TopExpressingGenesOfAllCells</text>
</a>
</g>
</g>
<!-- SeuratClusteringOfAllCells&#45;&gt;TopExpressingGenesOfAllCells -->
<g id="edge25" class="edge">
<title>SeuratClusteringOfAllCells&#45;&gt;TopExpressingGenesOfAllCells</title>
<path fill="none" stroke="#3d314a" d="M831.28,-738.97C868.74,-728.8 916.42,-715.87 955.28,-705.32"/>
<polygon fill="#3d314a" stroke="#3d314a" points="956.45,-707.91 963.43,-703.11 954.98,-702.5 956.45,-707.91"/>
</g>
<!-- SampleInfo -->
<g id="node16" class="node">
<title>SampleInfo</title>
<g id="a_node16"><a xlink:title="List sample information and perform statistics">
<polygon fill="#4c956c" stroke="transparent" points="601.5,-919 534.43,-901 601.5,-883 668.57,-901 601.5,-919"/>
<text text-anchor="middle" x="601.5" y="-897.9" font-family="Helvetica,sans-Serif" font-size="12.00" fill="#ffffff">SampleInfo</text>
</a>
</g>
</g>
<!-- SampleInfo&#45;&gt;SeuratPreparing -->
<g id="edge19" class="edge">
<title>SampleInfo&#45;&gt;SeuratPreparing</title>
<path fill="none" stroke="#3d314a" d="M614.61,-886.5C623.79,-877.05 636.3,-864.18 647.05,-853.11"/>
<polygon fill="#3d314a" stroke="#3d314a" points="649.24,-854.87 652.81,-847.18 645.23,-850.97 649.24,-854.87"/>
</g>
<!-- SampleInfo&#45;&gt;ImmunarchLoading -->
<g id="edge6" class="edge">
<title>SampleInfo&#45;&gt;ImmunarchLoading</title>
<path fill="none" stroke="#3d314a" d="M591.69,-885.34C575.36,-860.93 542.46,-811.75 522.66,-782.16"/>
<polygon fill="#3d314a" stroke="#3d314a" points="524.95,-780.54 518.17,-775.44 520.29,-783.65 524.95,-780.54"/>
</g>
<!-- SeuratMetadataMutater&#45;&gt;TCRClusters2Seurat -->
<g id="edge16" class="edge">
<title>SeuratMetadataMutater&#45;&gt;TCRClusters2Seurat</title>
<path fill="none" stroke="#3d314a" d="M553.17,-306.88C536.2,-297.3 514.92,-285.28 496.92,-275.13"/>
<polygon fill="#3d314a" stroke="#3d314a" points="498.29,-272.68 489.95,-271.19 495.54,-277.56 498.29,-272.68"/>
</g>
<!-- VJUsage -->
<g id="node19" class="node">
<title>VJUsage</title>
<polygon fill="#f26419" stroke="transparent" points="188.5,-631 122.5,-631 122.5,-595 188.5,-595 188.5,-631"/>
<text text-anchor="middle" x="155.5" y="-609.9" font-family="Helvetica,sans-Serif" font-size="12.00" fill="#ffffff">VJUsage</text>
</g>
<!-- MetaMarkers -->
<g id="node20" class="node">
<title>MetaMarkers</title>
<polygon fill="#f26419" stroke="transparent" points="322.5,-196 236.5,-196 236.5,-160 322.5,-160 322.5,-196"/>
<text text-anchor="middle" x="279.5" y="-174.9" font-family="Helvetica,sans-Serif" font-size="12.00" fill="#ffffff">MetaMarkers</text>
</g>
<!-- ModuleScoreCalculator -->
<g id="node30" class="node">
<title>ModuleScoreCalculator</title>
<g id="a_node30"><a xlink:title="Calculate the module scores for each cell">
<path fill="#219ebc" stroke="transparent" d="M790,-631C790,-631 671,-631 671,-631 665,-631 659,-625 659,-619 659,-619 659,-607 659,-607 659,-601 665,-595 671,-595 671,-595 790,-595 790,-595 796,-595 802,-601 802,-607 802,-607 802,-619 802,-619 802,-625 796,-631 790,-631"/>
<text text-anchor="middle" x="730.5" y="-609.9" font-family="Helvetica,sans-Serif" font-size="12.00" fill="#ffffff">ModuleScoreCalculator</text>
</a>
</g>
</g>
<!-- TCellSelection&#45;&gt;ModuleScoreCalculator -->
<g id="edge38" class="edge">
<title>TCellSelection&#45;&gt;ModuleScoreCalculator</title>
<path fill="none" stroke="#3d314a" d="M705.66,-666.7C709.65,-658.22 714.54,-647.86 718.91,-638.58"/>
<polygon fill="#3d314a" stroke="#3d314a" points="721.56,-639.53 722.44,-631.1 716.49,-637.15 721.56,-639.53"/>
</g>
<!-- ClusterMarkers -->
<g id="node22" class="node">
<title>ClusterMarkers</title>
<g id="a_node22"><a xlink:title="Markers for clusters of T cells.">
<polygon fill="#f26419" stroke="transparent" points="934.5,-415 836.5,-415 836.5,-379 934.5,-379 934.5,-415"/>
<text text-anchor="middle" x="885.5" y="-393.9" font-family="Helvetica,sans-Serif" font-size="12.00" fill="#ffffff">ClusterMarkers</text>
</a>
</g>
</g>
<!-- CellsDistribution -->
<g id="node24" class="node">
<title>CellsDistribution</title>
<polygon fill="#f26419" stroke="transparent" points="446,-196 341,-196 341,-160 446,-160 446,-196"/>
<text text-anchor="middle" x="393.5" y="-174.9" font-family="Helvetica,sans-Serif" font-size="12.00" fill="#ffffff">CellsDistribution</text>
</g>
<!-- Immunarch2VDJtools&#45;&gt;VJUsage -->
<g id="edge23" class="edge">
<title>Immunarch2VDJtools&#45;&gt;VJUsage</title>
<path fill="none" stroke="#3d314a" d="M155.5,-666.7C155.5,-658.39 155.5,-648.28 155.5,-639.14"/>
<polygon fill="#3d314a" stroke="#3d314a" points="158.3,-639.1 155.5,-631.1 152.7,-639.1 158.3,-639.1"/>
</g>
<!-- TCRClusters2Seurat&#45;&gt;MetabolicInput -->
<g id="edge21" class="edge">
<title>TCRClusters2Seurat&#45;&gt;MetabolicInput</title>
<path fill="none" stroke="#3d314a" d="M523.72,-251.18C591.35,-249.39 700.67,-243.86 793.5,-227 830.23,-220.33 870.48,-208.62 901.91,-198.43"/>
<polygon fill="#3d314a" stroke="#3d314a" points="902.97,-201.03 909.7,-195.88 901.23,-195.71 902.97,-201.03"/>
</g>
<!-- TCRClusters2Seurat&#45;&gt;RadarPlots -->
<g id="edge12" class="edge">
<title>TCRClusters2Seurat&#45;&gt;RadarPlots</title>
<path fill="none" stroke="#3d314a" d="M395.39,-249.85C337.2,-247.04 256.23,-240.75 227.5,-227 215.75,-221.38 205.2,-211.67 197.01,-202.44"/>
<polygon fill="#3d314a" stroke="#3d314a" points="199.03,-200.49 191.72,-196.19 194.75,-204.11 199.03,-200.49"/>
</g>
<!-- TCRClusters2Seurat&#45;&gt;MetaMarkers -->
<g id="edge9" class="edge">
<title>TCRClusters2Seurat&#45;&gt;MetaMarkers</title>
<path fill="none" stroke="#3d314a" d="M395.38,-246.54C374.21,-242.92 351.09,-236.93 331.5,-227 319.45,-220.89 308.17,-211.18 299.21,-202.09"/>
<polygon fill="#3d314a" stroke="#3d314a" points="301.2,-200.12 293.67,-196.24 297.14,-203.98 301.2,-200.12"/>
</g>
<!-- TCRClusters2Seurat&#45;&gt;CellsDistribution -->
<g id="edge28" class="edge">
<title>TCRClusters2Seurat&#45;&gt;CellsDistribution</title>
<path fill="none" stroke="#3d314a" d="M443.86,-234.7C435.06,-224.97 423.97,-212.7 414.43,-202.15"/>
<polygon fill="#3d314a" stroke="#3d314a" points="416.47,-200.23 409.03,-196.18 412.32,-203.99 416.47,-200.23"/>
</g>
<!-- ScFGSEA -->
<g id="node31" class="node">
<title>ScFGSEA</title>
<polygon fill="#f26419" stroke="transparent" points="536.5,-196 464.5,-196 464.5,-160 536.5,-160 536.5,-196"/>
<text text-anchor="middle" x="500.5" y="-174.9" font-family="Helvetica,sans-Serif" font-size="12.00" fill="#ffffff">ScFGSEA</text>
</g>
<!-- TCRClusters2Seurat&#45;&gt;ScFGSEA -->
<g id="edge35" class="edge">
<title>TCRClusters2Seurat&#45;&gt;ScFGSEA</title>
<path fill="none" stroke="#3d314a" d="M469.22,-234.7C474.48,-225.34 481.06,-213.62 486.83,-203.34"/>
<polygon fill="#3d314a" stroke="#3d314a" points="489.38,-204.52 490.85,-196.18 484.49,-201.78 489.38,-204.52"/>
</g>
<!-- MarkersFinder -->
<g id="node32" class="node">
<title>MarkersFinder</title>
<g id="a_node32"><a xlink:title="Find markers between different groups of cells">
<polygon fill="#f26419" stroke="transparent" points="648.5,-196 554.5,-196 554.5,-160 648.5,-160 648.5,-196"/>
<text text-anchor="middle" x="601.5" y="-174.9" font-family="Helvetica,sans-Serif" font-size="12.00" fill="#ffffff">MarkersFinder</text>
</a>
</g>
</g>
<!-- TCRClusters2Seurat&#45;&gt;MarkersFinder -->
<g id="edge26" class="edge">
<title>TCRClusters2Seurat&#45;&gt;MarkersFinder</title>
<path fill="none" stroke="#3d314a" d="M523.66,-236.67C531.21,-233.91 538.66,-230.7 545.5,-227 557.7,-220.4 569.59,-210.8 579.26,-201.91"/>
<polygon fill="#3d314a" stroke="#3d314a" points="581.4,-203.75 585.28,-196.22 577.54,-199.69 581.4,-203.75"/>
</g>
<!-- SeuratClusterStats -->
<g id="node33" class="node">
<title>SeuratClusterStats</title>
<polygon fill="#f26419" stroke="transparent" points="784,-196 667,-196 667,-160 784,-160 784,-196"/>
<text text-anchor="middle" x="725.5" y="-174.9" font-family="Helvetica,sans-Serif" font-size="12.00" fill="#ffffff">SeuratClusterStats</text>
</g>
<!-- TCRClusters2Seurat&#45;&gt;SeuratClusterStats -->
<g id="edge37" class="edge">
<title>TCRClusters2Seurat&#45;&gt;SeuratClusterStats</title>
<path fill="none" stroke="#3d314a" d="M523.85,-251.73C563.55,-249.67 614.86,-243.54 657.5,-227 672.96,-221 688.22,-210.74 700.36,-201.23"/>
<polygon fill="#3d314a" stroke="#3d314a" points="702.29,-203.27 706.76,-196.07 698.78,-198.91 702.29,-203.27"/>
</g>
<!-- TCRClusters2Seurat&#45;&gt;CDR3AAPhyschem -->
<g id="edge18" class="edge">
<title>TCRClusters2Seurat&#45;&gt;CDR3AAPhyschem</title>
<path fill="none" stroke="#3d314a" d="M395.23,-251.04C313.83,-249.15 178.5,-243.55 131.5,-227 115.43,-221.34 99.6,-211.01 87.07,-201.37"/>
<polygon fill="#3d314a" stroke="#3d314a" points="88.48,-198.91 80.47,-196.13 84.99,-203.3 88.48,-198.91"/>
</g>
<!-- SeuratClusteringOfTCells -->
<g id="node28" class="node">
<title>SeuratClusteringOfTCells</title>
<g id="a_node28"><a xlink:title="Cluster the T cells selected by `TCellSelection`.">
<path fill="#219ebc" stroke="transparent" d="M804.5,-559C804.5,-559 674.5,-559 674.5,-559 668.5,-559 662.5,-553 662.5,-547 662.5,-547 662.5,-535 662.5,-535 662.5,-529 668.5,-523 674.5,-523 674.5,-523 804.5,-523 804.5,-523 810.5,-523 816.5,-529 816.5,-535 816.5,-535 816.5,-547 816.5,-547 816.5,-553 810.5,-559 804.5,-559"/>
<text text-anchor="middle" x="739.5" y="-537.9" font-family="Helvetica,sans-Serif" font-size="12.00" fill="#ffffff">SeuratClusteringOfTCells</text>
</a>
</g>
</g>
<!-- CellTypeAnnotation -->
<g id="node29" class="node">
<title>CellTypeAnnotation</title>
<g id="a_node29"><a xlink:title="Annotate the T cell clusters.">
<path fill="#219ebc" stroke="transparent" d="M794.5,-487C794.5,-487 696.5,-487 696.5,-487 690.5,-487 684.5,-481 684.5,-475 684.5,-475 684.5,-463 684.5,-463 684.5,-457 690.5,-451 696.5,-451 696.5,-451 794.5,-451 794.5,-451 800.5,-451 806.5,-457 806.5,-463 806.5,-463 806.5,-475 806.5,-475 806.5,-481 800.5,-487 794.5,-487"/>
<text text-anchor="middle" x="745.5" y="-465.9" font-family="Helvetica,sans-Serif" font-size="12.00" fill="#ffffff">CellTypeAnnotation</text>
</a>
</g>
</g>
<!-- SeuratClusteringOfTCells&#45;&gt;CellTypeAnnotation -->
<g id="edge10" class="edge">
<title>SeuratClusteringOfTCells&#45;&gt;CellTypeAnnotation</title>
<path fill="none" stroke="#3d314a" d="M740.98,-522.7C741.7,-514.39 742.56,-504.28 743.35,-495.14"/>
<polygon fill="#3d314a" stroke="#3d314a" points="746.14,-495.31 744.03,-487.1 740.56,-494.84 746.14,-495.31"/>
</g>
<!-- CellTypeAnnotation&#45;&gt;TESSA -->
<g id="edge11" class="edge">
<title>CellTypeAnnotation&#45;&gt;TESSA</title>
<path fill="none" stroke="#3d314a" d="M719.81,-450.88C705.7,-441.47 688.06,-429.71 673,-419.67"/>
<polygon fill="#3d314a" stroke="#3d314a" points="674.49,-417.3 666.28,-415.19 671.39,-421.96 674.49,-417.3"/>
</g>
<!-- CellTypeAnnotation&#45;&gt;TopExpressingGenes -->
<g id="edge15" class="edge">
<title>CellTypeAnnotation&#45;&gt;TopExpressingGenes</title>
<path fill="none" stroke="#3d314a" d="M747.23,-450.7C748.06,-442.39 749.07,-432.28 749.99,-423.14"/>
<polygon fill="#3d314a" stroke="#3d314a" points="752.78,-423.34 750.79,-415.1 747.21,-422.79 752.78,-423.34"/>
</g>
<!-- CellTypeAnnotation&#45;&gt;ClusterMarkers -->
<g id="edge36" class="edge">
<title>CellTypeAnnotation&#45;&gt;ClusterMarkers</title>
<path fill="none" stroke="#3d314a" d="M779.75,-450.88C799.07,-441.22 823.36,-429.07 843.79,-418.86"/>
<polygon fill="#3d314a" stroke="#3d314a" points="845.22,-421.27 851.12,-415.19 842.71,-416.26 845.22,-421.27"/>
</g>
<!-- ModuleScoreCalculator&#45;&gt;SeuratClusteringOfTCells -->
<g id="edge14" class="edge">
<title>ModuleScoreCalculator&#45;&gt;SeuratClusteringOfTCells</title>
<path fill="none" stroke="#3d314a" d="M732.72,-594.7C733.79,-586.39 735.09,-576.28 736.27,-567.14"/>
<polygon fill="#3d314a" stroke="#3d314a" points="739.06,-567.4 737.3,-559.1 733.5,-566.68 739.06,-567.4"/>
</g>
</g>
</svg>
