<?xml version="1.0" encoding="UTF-8" standalone="no"?>
<!DOCTYPE svg PUBLIC "-//W3C//DTD SVG 1.1//EN"
 "http://www.w3.org/Graphics/SVG/1.1/DTD/svg11.dtd">
<!-- Generated by graphviz version 3.0.0 (20220315.2325)
 -->
<!-- Title: ImmunopipeMM Pages: 1 -->
<svg width="1564pt" height="1501pt"
 viewBox="0.00 0.00 1563.50 1501.00" xmlns="http://www.w3.org/2000/svg" xmlns:xlink="http://www.w3.org/1999/xlink">
<g id="graph0" class="graph" transform="scale(1 1) rotate(0) translate(4 1497)">
<title>ImmunopipeMM</title>
<polygon fill="white" stroke="transparent" points="-4,4 -4,-1497 1559.5,-1497 1559.5,4 -4,4"/>
<text text-anchor="middle" x="777.75" y="-1477.8" font-family="Times,serif" font-size="14.00">ImmunopipeMM</text>
<text text-anchor="middle" x="777.75" y="-1462.8" font-family="Times,serif" font-size="14.00"> </text>
<g id="clust1" class="cluster">
<title>cluster_ScrnaMetabolicLandscape</title>
<polygon fill="#eeeeee" stroke="#eeeeee" points="8,-8 8,-501.5 917,-501.5 917,-8 8,-8"/>
<text text-anchor="middle" x="110" y="-486.3" font-family="Times,serif" font-size="14.00">ScrnaMetabolicLandscape</text>
</g>
<!-- MetabolicFeatures -->
<g id="node1" class="node">
<title>MetabolicFeatures</title>
<polygon fill="none" stroke="black" points="166,-216.5 16,-216.5 16,-66.5 166,-66.5 166,-216.5"/>
<polyline fill="none" stroke="black" points="28,-216.5 16,-204.5 "/>
<polyline fill="none" stroke="black" points="16,-78.5 28,-66.5 "/>
<polyline fill="none" stroke="black" points="154,-66.5 166,-78.5 "/>
<polyline fill="none" stroke="black" points="166,-204.5 154,-216.5 "/>
<text text-anchor="middle" x="91" y="-137.8" font-family="Times,serif" font-size="14.00">MetabolicFeatures</text>
</g>
<!-- MetabolicExprImpute -->
<g id="node2" class="node">
<title>MetabolicExprImpute</title>
<path fill="none" stroke="black" d="M628.5,-339C628.5,-339 479.5,-339 479.5,-339 473.5,-339 467.5,-333 467.5,-327 467.5,-327 467.5,-315 467.5,-315 467.5,-309 473.5,-303 479.5,-303 479.5,-303 628.5,-303 628.5,-303 634.5,-303 640.5,-309 640.5,-315 640.5,-315 640.5,-327 640.5,-327 640.5,-333 634.5,-339 628.5,-339"/>
<text text-anchor="middle" x="554" y="-317.3" font-family="Times,serif" font-size="14.00">MetabolicExprImpute</text>
</g>
<!-- MetabolicExprImpute&#45;&gt;MetabolicFeatures -->
<g id="edge2" class="edge">
<title>MetabolicExprImpute&#45;&gt;MetabolicFeatures</title>
<path fill="none" stroke="black" d="M467.22,-315.99C370.77,-310.14 222.34,-296.55 175,-267 158.24,-256.53 144.04,-241.35 132.35,-225.17"/>
<polygon fill="black" stroke="black" points="135.03,-222.88 126.47,-216.63 129.26,-226.85 135.03,-222.88"/>
</g>
<!-- MetabolicPathwayHeterogeneity -->
<g id="node3" class="node">
<title>MetabolicPathwayHeterogeneity</title>
<polygon fill="none" stroke="black" points="434.5,-267 183.5,-267 183.5,-16 434.5,-16 434.5,-267"/>
<polyline fill="none" stroke="black" points="195.5,-267 183.5,-255 "/>
<polyline fill="none" stroke="black" points="183.5,-28 195.5,-16 "/>
<polyline fill="none" stroke="black" points="422.5,-16 434.5,-28 "/>
<polyline fill="none" stroke="black" points="434.5,-255 422.5,-267 "/>
<text text-anchor="middle" x="309" y="-137.8" font-family="Times,serif" font-size="14.00">MetabolicPathwayHeterogeneity</text>
</g>
<!-- MetabolicExprImpute&#45;&gt;MetabolicPathwayHeterogeneity -->
<g id="edge3" class="edge">
<title>MetabolicExprImpute&#45;&gt;MetabolicPathwayHeterogeneity</title>
<path fill="none" stroke="black" d="M511.13,-302.89C490.1,-293.63 464.86,-281.18 444,-267 443.6,-266.73 443.21,-266.46 442.81,-266.19"/>
<polygon fill="black" stroke="black" points="444.71,-263.24 434.51,-260.34 440.67,-268.96 444.71,-263.24"/>
</g>
<!-- MetabolicPathwayActivity -->
<g id="node5" class="node">
<title>MetabolicPathwayActivity</title>
<polygon fill="none" stroke="black" points="655.5,-243 452.5,-243 452.5,-40 655.5,-40 655.5,-243"/>
<polyline fill="none" stroke="black" points="464.5,-243 452.5,-231 "/>
<polyline fill="none" stroke="black" points="452.5,-52 464.5,-40 "/>
<polyline fill="none" stroke="black" points="643.5,-40 655.5,-52 "/>
<polyline fill="none" stroke="black" points="655.5,-231 643.5,-243 "/>
<text text-anchor="middle" x="554" y="-137.8" font-family="Times,serif" font-size="14.00">MetabolicPathwayActivity</text>
</g>
<!-- MetabolicExprImpute&#45;&gt;MetabolicPathwayActivity -->
<g id="edge4" class="edge">
<title>MetabolicExprImpute&#45;&gt;MetabolicPathwayActivity</title>
<path fill="none" stroke="black" d="M554,-302.98C554,-290.64 554,-272.78 554,-253.41"/>
<polygon fill="black" stroke="black" points="557.5,-253.16 554,-243.16 550.5,-253.16 557.5,-253.16"/>
</g>
<!-- MetabolicFeaturesIntraSubset -->
<g id="node6" class="node">
<title>MetabolicFeaturesIntraSubset</title>
<polygon fill="none" stroke="black" points="908.5,-259 673.5,-259 673.5,-24 908.5,-24 908.5,-259"/>
<polyline fill="none" stroke="black" points="685.5,-259 673.5,-247 "/>
<polyline fill="none" stroke="black" points="673.5,-36 685.5,-24 "/>
<polyline fill="none" stroke="black" points="896.5,-24 908.5,-36 "/>
<polyline fill="none" stroke="black" points="908.5,-247 896.5,-259 "/>
<text text-anchor="middle" x="791" y="-137.8" font-family="Times,serif" font-size="14.00">MetabolicFeaturesIntraSubset</text>
</g>
<!-- MetabolicExprImpute&#45;&gt;MetabolicFeaturesIntraSubset -->
<g id="edge1" class="edge">
<title>MetabolicExprImpute&#45;&gt;MetabolicFeaturesIntraSubset</title>
<path fill="none" stroke="black" d="M598.29,-302.91C619.4,-293.77 644.47,-281.42 665,-267 665.91,-266.36 666.82,-265.71 667.73,-265.06"/>
<polygon fill="black" stroke="black" points="669.96,-267.77 675.91,-259 665.79,-262.14 669.96,-267.77"/>
</g>
<!-- MetabolicInput -->
<g id="node4" class="node">
<title>MetabolicInput</title>
<path fill="none" stroke="black" d="M749.5,-470.5C749.5,-470.5 648.5,-470.5 648.5,-470.5 642.5,-470.5 636.5,-464.5 636.5,-458.5 636.5,-458.5 636.5,-446.5 636.5,-446.5 636.5,-440.5 642.5,-434.5 648.5,-434.5 648.5,-434.5 749.5,-434.5 749.5,-434.5 755.5,-434.5 761.5,-440.5 761.5,-446.5 761.5,-446.5 761.5,-458.5 761.5,-458.5 761.5,-464.5 755.5,-470.5 749.5,-470.5"/>
<text text-anchor="middle" x="699" y="-448.8" font-family="Times,serif" font-size="14.00">MetabolicInput</text>
</g>
<!-- MetabolicInput&#45;&gt;MetabolicExprImpute -->
<g id="edge5" class="edge">
<title>MetabolicInput&#45;&gt;MetabolicExprImpute</title>
<path fill="none" stroke="black" d="M679.75,-434.3C654.4,-411.66 609.69,-371.74 580.98,-346.09"/>
<polygon fill="black" stroke="black" points="583.12,-343.32 573.33,-339.27 578.46,-348.54 583.12,-343.32"/>
</g>
<!-- VJUsage -->
<g id="node7" class="node">
<title>VJUsage</title>
<polygon fill="none" stroke="black" points="1021.5,-972 944.5,-972 944.5,-895 1021.5,-895 1021.5,-972"/>
<polyline fill="none" stroke="black" points="956.5,-972 944.5,-960 "/>
<polyline fill="none" stroke="black" points="944.5,-907 956.5,-895 "/>
<polyline fill="none" stroke="black" points="1009.5,-895 1021.5,-907 "/>
<polyline fill="none" stroke="black" points="1021.5,-960 1009.5,-972 "/>
<text text-anchor="middle" x="983" y="-929.8" font-family="Times,serif" font-size="14.00">VJUsage</text>
</g>
<!-- SeuratClusteringOfTCells -->
<g id="node8" class="node">
<title>SeuratClusteringOfTCells</title>
<path fill="none" stroke="black" d="M1320,-951.5C1320,-951.5 1144,-951.5 1144,-951.5 1138,-951.5 1132,-945.5 1132,-939.5 1132,-939.5 1132,-927.5 1132,-927.5 1132,-921.5 1138,-915.5 1144,-915.5 1144,-915.5 1320,-915.5 1320,-915.5 1326,-915.5 1332,-921.5 1332,-927.5 1332,-927.5 1332,-939.5 1332,-939.5 1332,-945.5 1326,-951.5 1320,-951.5"/>
<text text-anchor="middle" x="1232" y="-929.8" font-family="Times,serif" font-size="14.00">SeuratClusteringOfTCells</text>
</g>
<!-- MarkersForClustersOfTCells -->
<g id="node15" class="node">
<title>MarkersForClustersOfTCells</title>
<polygon fill="none" stroke="black" points="1142.5,-859 921.5,-859 921.5,-638 1142.5,-638 1142.5,-859"/>
<polyline fill="none" stroke="black" points="933.5,-859 921.5,-847 "/>
<polyline fill="none" stroke="black" points="921.5,-650 933.5,-638 "/>
<polyline fill="none" stroke="black" points="1130.5,-638 1142.5,-650 "/>
<polyline fill="none" stroke="black" points="1142.5,-847 1130.5,-859 "/>
<text text-anchor="middle" x="1032" y="-744.8" font-family="Times,serif" font-size="14.00">MarkersForClustersOfTCells</text>
</g>
<!-- SeuratClusteringOfTCells&#45;&gt;MarkersForClustersOfTCells -->
<g id="edge22" class="edge">
<title>SeuratClusteringOfTCells&#45;&gt;MarkersForClustersOfTCells</title>
<path fill="none" stroke="black" d="M1213.18,-915.28C1197.85,-901.25 1174.78,-880.14 1150.18,-857.64"/>
<polygon fill="black" stroke="black" points="1152.25,-854.78 1142.51,-850.62 1147.52,-859.95 1152.25,-854.78"/>
</g>
<!-- CellTypeAnnotate -->
<g id="node17" class="node">
<title>CellTypeAnnotate</title>
<path fill="none" stroke="black" d="M1291.5,-766.5C1291.5,-766.5 1172.5,-766.5 1172.5,-766.5 1166.5,-766.5 1160.5,-760.5 1160.5,-754.5 1160.5,-754.5 1160.5,-742.5 1160.5,-742.5 1160.5,-736.5 1166.5,-730.5 1172.5,-730.5 1172.5,-730.5 1291.5,-730.5 1291.5,-730.5 1297.5,-730.5 1303.5,-736.5 1303.5,-742.5 1303.5,-742.5 1303.5,-754.5 1303.5,-754.5 1303.5,-760.5 1297.5,-766.5 1291.5,-766.5"/>
<text text-anchor="middle" x="1232" y="-744.8" font-family="Times,serif" font-size="14.00">CellTypeAnnotate</text>
</g>
<!-- SeuratClusteringOfTCells&#45;&gt;CellTypeAnnotate -->
<g id="edge9" class="edge">
<title>SeuratClusteringOfTCells&#45;&gt;CellTypeAnnotate</title>
<path fill="none" stroke="black" d="M1232,-915.28C1232,-883.46 1232,-815.19 1232,-776.93"/>
<polygon fill="black" stroke="black" points="1235.5,-776.54 1232,-766.54 1228.5,-776.54 1235.5,-776.54"/>
</g>
<!-- ImmunarchLoading -->
<g id="node9" class="node">
<title>ImmunarchLoading</title>
<path fill="none" stroke="black" d="M1083.5,-1311C1083.5,-1311 952.5,-1311 952.5,-1311 946.5,-1311 940.5,-1305 940.5,-1299 940.5,-1299 940.5,-1287 940.5,-1287 940.5,-1281 946.5,-1275 952.5,-1275 952.5,-1275 1083.5,-1275 1083.5,-1275 1089.5,-1275 1095.5,-1281 1095.5,-1287 1095.5,-1287 1095.5,-1299 1095.5,-1299 1095.5,-1305 1089.5,-1311 1083.5,-1311"/>
<text text-anchor="middle" x="1018" y="-1289.3" font-family="Times,serif" font-size="14.00">ImmunarchLoading</text>
</g>
<!-- CloneResidency -->
<g id="node13" class="node">
<title>CloneResidency</title>
<polygon fill="none" stroke="black" points="843,-1188.5 713,-1188.5 713,-1058.5 843,-1058.5 843,-1188.5"/>
<polyline fill="none" stroke="black" points="725,-1188.5 713,-1176.5 "/>
<polyline fill="none" stroke="black" points="713,-1070.5 725,-1058.5 "/>
<polyline fill="none" stroke="black" points="831,-1058.5 843,-1070.5 "/>
<polyline fill="none" stroke="black" points="843,-1176.5 831,-1188.5 "/>
<text text-anchor="middle" x="778" y="-1119.8" font-family="Times,serif" font-size="14.00">CloneResidency</text>
</g>
<!-- ImmunarchLoading&#45;&gt;CloneResidency -->
<g id="edge10" class="edge">
<title>ImmunarchLoading&#45;&gt;CloneResidency</title>
<path fill="none" stroke="black" d="M940.22,-1277.29C912.07,-1269.29 881.27,-1257.16 857,-1239 841.91,-1227.71 828.68,-1212.66 817.57,-1197.19"/>
<polygon fill="black" stroke="black" points="820.19,-1194.82 811.62,-1188.58 814.43,-1198.79 820.19,-1194.82"/>
</g>
<!-- SeuratMetadataMutater -->
<g id="node14" class="node">
<title>SeuratMetadataMutater</title>
<path fill="none" stroke="black" d="M1123.5,-602C1123.5,-602 956.5,-602 956.5,-602 950.5,-602 944.5,-596 944.5,-590 944.5,-590 944.5,-578 944.5,-578 944.5,-572 950.5,-566 956.5,-566 956.5,-566 1123.5,-566 1123.5,-566 1129.5,-566 1135.5,-572 1135.5,-578 1135.5,-578 1135.5,-590 1135.5,-590 1135.5,-596 1129.5,-602 1123.5,-602"/>
<text text-anchor="middle" x="1040" y="-580.3" font-family="Times,serif" font-size="14.00">SeuratMetadataMutater</text>
</g>
<!-- ImmunarchLoading&#45;&gt;SeuratMetadataMutater -->
<g id="edge14" class="edge">
<title>ImmunarchLoading&#45;&gt;SeuratMetadataMutater</title>
<path fill="none" stroke="black" d="M940.17,-1276.22C920.56,-1268.36 901.76,-1256.6 890,-1239 832.96,-1153.64 886.81,-1110.62 890,-1008 895.11,-843.32 817.43,-772.21 913,-638 922.9,-624.09 937.18,-613.82 952.61,-606.23"/>
<polygon fill="black" stroke="black" points="954.14,-609.38 961.8,-602.07 951.25,-603 954.14,-609.38"/>
</g>
<!-- Immunarch2VDJtools -->
<g id="node18" class="node">
<title>Immunarch2VDJtools</title>
<path fill="none" stroke="black" d="M1055,-1141.5C1055,-1141.5 911,-1141.5 911,-1141.5 905,-1141.5 899,-1135.5 899,-1129.5 899,-1129.5 899,-1117.5 899,-1117.5 899,-1111.5 905,-1105.5 911,-1105.5 911,-1105.5 1055,-1105.5 1055,-1105.5 1061,-1105.5 1067,-1111.5 1067,-1117.5 1067,-1117.5 1067,-1129.5 1067,-1129.5 1067,-1135.5 1061,-1141.5 1055,-1141.5"/>
<text text-anchor="middle" x="983" y="-1119.8" font-family="Times,serif" font-size="14.00">Immunarch2VDJtools</text>
</g>
<!-- ImmunarchLoading&#45;&gt;Immunarch2VDJtools -->
<g id="edge7" class="edge">
<title>ImmunarchLoading&#45;&gt;Immunarch2VDJtools</title>
<path fill="none" stroke="black" d="M1014.39,-1274.71C1008.31,-1245.62 995.99,-1186.68 988.73,-1151.91"/>
<polygon fill="black" stroke="black" points="992.12,-1151.02 986.65,-1141.95 985.27,-1152.46 992.12,-1151.02"/>
</g>
<!-- SelectTCells -->
<g id="node21" class="node">
<title>SelectTCells</title>
<path fill="none" stroke="black" d="M1294.5,-1141.5C1294.5,-1141.5 1213.5,-1141.5 1213.5,-1141.5 1207.5,-1141.5 1201.5,-1135.5 1201.5,-1129.5 1201.5,-1129.5 1201.5,-1117.5 1201.5,-1117.5 1201.5,-1111.5 1207.5,-1105.5 1213.5,-1105.5 1213.5,-1105.5 1294.5,-1105.5 1294.5,-1105.5 1300.5,-1105.5 1306.5,-1111.5 1306.5,-1117.5 1306.5,-1117.5 1306.5,-1129.5 1306.5,-1129.5 1306.5,-1135.5 1300.5,-1141.5 1294.5,-1141.5"/>
<text text-anchor="middle" x="1254" y="-1119.8" font-family="Times,serif" font-size="14.00">SelectTCells</text>
</g>
<!-- ImmunarchLoading&#45;&gt;SelectTCells -->
<g id="edge24" class="edge">
<title>ImmunarchLoading&#45;&gt;SelectTCells</title>
<path fill="none" stroke="black" d="M1095.67,-1281.7C1128.21,-1274.21 1164.73,-1261.28 1192,-1239 1219.97,-1216.14 1237.18,-1177.21 1246.16,-1151.18"/>
<polygon fill="black" stroke="black" points="1249.53,-1152.15 1249.31,-1141.56 1242.87,-1149.97 1249.53,-1152.15"/>
</g>
<!-- Immunarch -->
<g id="node22" class="node">
<title>Immunarch</title>
<polygon fill="none" stroke="black" points="1183,-1172.5 1085,-1172.5 1085,-1074.5 1183,-1074.5 1183,-1172.5"/>
<polyline fill="none" stroke="black" points="1097,-1172.5 1085,-1160.5 "/>
<polyline fill="none" stroke="black" points="1085,-1086.5 1097,-1074.5 "/>
<polyline fill="none" stroke="black" points="1171,-1074.5 1183,-1086.5 "/>
<polyline fill="none" stroke="black" points="1183,-1160.5 1171,-1172.5 "/>
<text text-anchor="middle" x="1134" y="-1119.8" font-family="Times,serif" font-size="14.00">Immunarch</text>
</g>
<!-- ImmunarchLoading&#45;&gt;Immunarch -->
<g id="edge21" class="edge">
<title>ImmunarchLoading&#45;&gt;Immunarch</title>
<path fill="none" stroke="black" d="M1040.48,-1274.77C1052.07,-1265.12 1065.85,-1252.36 1076,-1239 1089.15,-1221.69 1100.7,-1200.95 1109.96,-1181.91"/>
<polygon fill="black" stroke="black" points="1113.19,-1183.25 1114.31,-1172.72 1106.87,-1180.25 1113.19,-1183.25"/>
</g>
<!-- RadarPlots -->
<g id="node10" class="node">
<title>RadarPlots</title>
<polygon fill="none" stroke="black" points="1020.5,-500 925.5,-500 925.5,-405 1020.5,-405 1020.5,-500"/>
<polyline fill="none" stroke="black" points="937.5,-500 925.5,-488 "/>
<polyline fill="none" stroke="black" points="925.5,-417 937.5,-405 "/>
<polyline fill="none" stroke="black" points="1008.5,-405 1020.5,-417 "/>
<polyline fill="none" stroke="black" points="1020.5,-488 1008.5,-500 "/>
<text text-anchor="middle" x="973" y="-448.8" font-family="Times,serif" font-size="14.00">RadarPlots</text>
</g>
<!-- SampleInfo -->
<g id="node11" class="node">
<title>SampleInfo</title>
<polygon fill="none" stroke="black" points="1118,-1455 1027.85,-1437 1118,-1419 1208.15,-1437 1118,-1455"/>
<polyline fill="none" stroke="black" points="1039.61,-1439.35 1039.61,-1434.65 "/>
<polyline fill="none" stroke="black" points="1106.23,-1421.35 1129.77,-1421.35 "/>
<polyline fill="none" stroke="black" points="1196.39,-1434.65 1196.39,-1439.35 "/>
<polyline fill="none" stroke="black" points="1129.77,-1452.65 1106.23,-1452.65 "/>
<text text-anchor="middle" x="1118" y="-1433.3" font-family="Times,serif" font-size="14.00">SampleInfo</text>
</g>
<!-- SampleInfo&#45;&gt;ImmunarchLoading -->
<g id="edge20" class="edge">
<title>SampleInfo&#45;&gt;ImmunarchLoading</title>
<path fill="none" stroke="black" d="M1107.49,-1421.07C1090.51,-1396.96 1056.85,-1349.17 1036,-1319.56"/>
<polygon fill="black" stroke="black" points="1038.85,-1317.53 1030.23,-1311.37 1033.13,-1321.56 1038.85,-1317.53"/>
</g>
<!-- SeuratPreparing -->
<g id="node23" class="node">
<title>SeuratPreparing</title>
<path fill="none" stroke="black" d="M1248,-1383C1248,-1383 1136,-1383 1136,-1383 1130,-1383 1124,-1377 1124,-1371 1124,-1371 1124,-1359 1124,-1359 1124,-1353 1130,-1347 1136,-1347 1136,-1347 1248,-1347 1248,-1347 1254,-1347 1260,-1353 1260,-1359 1260,-1359 1260,-1371 1260,-1371 1260,-1377 1254,-1383 1248,-1383"/>
<text text-anchor="middle" x="1192" y="-1361.3" font-family="Times,serif" font-size="14.00">SeuratPreparing</text>
</g>
<!-- SampleInfo&#45;&gt;SeuratPreparing -->
<g id="edge18" class="edge">
<title>SampleInfo&#45;&gt;SeuratPreparing</title>
<path fill="none" stroke="black" d="M1132.98,-1421.83C1142.58,-1412.75 1155.31,-1400.71 1166.48,-1390.14"/>
<polygon fill="black" stroke="black" points="1169.05,-1392.53 1173.91,-1383.11 1164.24,-1387.44 1169.05,-1392.53"/>
</g>
<!-- MarkersForClustersOfAllCells -->
<g id="node12" class="node">
<title>MarkersForClustersOfAllCells</title>
<polygon fill="none" stroke="black" points="1555.5,-1239 1324.5,-1239 1324.5,-1008 1555.5,-1008 1555.5,-1239"/>
<polyline fill="none" stroke="black" points="1336.5,-1239 1324.5,-1227 "/>
<polyline fill="none" stroke="black" points="1324.5,-1020 1336.5,-1008 "/>
<polyline fill="none" stroke="black" points="1543.5,-1008 1555.5,-1020 "/>
<polyline fill="none" stroke="black" points="1555.5,-1227 1543.5,-1239 "/>
<text text-anchor="middle" x="1440" y="-1119.8" font-family="Times,serif" font-size="14.00">MarkersForClustersOfAllCells</text>
</g>
<!-- SeuratMetadataMutater&#45;&gt;MetabolicInput -->
<g id="edge23" class="edge">
<title>SeuratMetadataMutater&#45;&gt;MetabolicInput</title>
<path fill="none" stroke="black" d="M995.07,-565.94C932.84,-542.31 820.54,-499.66 753.57,-474.22"/>
<polygon fill="black" stroke="black" points="754.62,-470.88 744.03,-470.6 752.14,-477.42 754.62,-470.88"/>
</g>
<!-- SeuratMetadataMutater&#45;&gt;RadarPlots -->
<g id="edge19" class="edge">
<title>SeuratMetadataMutater&#45;&gt;RadarPlots</title>
<path fill="none" stroke="black" d="M1031.1,-565.8C1023.57,-551.24 1012.33,-529.52 1001.74,-509.06"/>
<polygon fill="black" stroke="black" points="1004.8,-507.35 997.1,-500.08 998.59,-510.57 1004.8,-507.35"/>
</g>
<!-- CellsDistribution -->
<g id="node16" class="node">
<title>CellsDistribution</title>
<polygon fill="none" stroke="black" points="1177,-521.5 1039,-521.5 1039,-383.5 1177,-383.5 1177,-521.5"/>
<polyline fill="none" stroke="black" points="1051,-521.5 1039,-509.5 "/>
<polyline fill="none" stroke="black" points="1039,-395.5 1051,-383.5 "/>
<polyline fill="none" stroke="black" points="1165,-383.5 1177,-395.5 "/>
<polyline fill="none" stroke="black" points="1177,-509.5 1165,-521.5 "/>
<text text-anchor="middle" x="1108" y="-448.8" font-family="Times,serif" font-size="14.00">CellsDistribution</text>
</g>
<!-- SeuratMetadataMutater&#45;&gt;CellsDistribution -->
<g id="edge16" class="edge">
<title>SeuratMetadataMutater&#45;&gt;CellsDistribution</title>
<path fill="none" stroke="black" d="M1049.03,-565.8C1053.99,-556.36 1060.53,-543.9 1067.45,-530.73"/>
<polygon fill="black" stroke="black" points="1070.73,-532 1072.28,-521.52 1064.54,-528.75 1070.73,-532"/>
</g>
<!-- SeuratClusterStats -->
<g id="node19" class="node">
<title>SeuratClusterStats</title>
<polygon fill="none" stroke="black" points="1350.5,-530 1195.5,-530 1195.5,-375 1350.5,-375 1350.5,-530"/>
<polyline fill="none" stroke="black" points="1207.5,-530 1195.5,-518 "/>
<polyline fill="none" stroke="black" points="1195.5,-387 1207.5,-375 "/>
<polyline fill="none" stroke="black" points="1338.5,-375 1350.5,-387 "/>
<polyline fill="none" stroke="black" points="1350.5,-518 1338.5,-530 "/>
<text text-anchor="middle" x="1273" y="-448.8" font-family="Times,serif" font-size="14.00">SeuratClusterStats</text>
</g>
<!-- SeuratMetadataMutater&#45;&gt;SeuratClusterStats -->
<g id="edge11" class="edge">
<title>SeuratMetadataMutater&#45;&gt;SeuratClusterStats</title>
<path fill="none" stroke="black" d="M1102.67,-565.93C1129.38,-557.24 1160.25,-545.25 1186,-530 1186.19,-529.88 1186.39,-529.77 1186.58,-529.65"/>
<polygon fill="black" stroke="black" points="1188.73,-532.44 1195.31,-524.13 1184.98,-526.52 1188.73,-532.44"/>
</g>
<!-- CellTypeAnnotate&#45;&gt;SeuratMetadataMutater -->
<g id="edge12" class="edge">
<title>CellTypeAnnotate&#45;&gt;SeuratMetadataMutater</title>
<path fill="none" stroke="black" d="M1223.02,-730.24C1210.06,-706.74 1184.12,-664.56 1152,-638 1136.33,-625.04 1116.96,-614.43 1098.76,-606.19"/>
<polygon fill="black" stroke="black" points="1099.95,-602.89 1089.38,-602.1 1097.15,-609.31 1099.95,-602.89"/>
</g>
<!-- Immunarch2VDJtools&#45;&gt;VJUsage -->
<g id="edge8" class="edge">
<title>Immunarch2VDJtools&#45;&gt;VJUsage</title>
<path fill="none" stroke="black" d="M983,-1105.48C983,-1077.96 983,-1022.7 983,-982.43"/>
<polygon fill="black" stroke="black" points="986.5,-982.28 983,-972.28 979.5,-982.28 986.5,-982.28"/>
</g>
<!-- SeuratClusteringOfAllCells -->
<g id="node20" class="node">
<title>SeuratClusteringOfAllCells</title>
<path fill="none" stroke="black" d="M1347,-1311C1347,-1311 1161,-1311 1161,-1311 1155,-1311 1149,-1305 1149,-1299 1149,-1299 1149,-1287 1149,-1287 1149,-1281 1155,-1275 1161,-1275 1161,-1275 1347,-1275 1347,-1275 1353,-1275 1359,-1281 1359,-1287 1359,-1287 1359,-1299 1359,-1299 1359,-1305 1353,-1311 1347,-1311"/>
<text text-anchor="middle" x="1254" y="-1289.3" font-family="Times,serif" font-size="14.00">SeuratClusteringOfAllCells</text>
</g>
<!-- SeuratClusteringOfAllCells&#45;&gt;MarkersForClustersOfAllCells -->
<g id="edge15" class="edge">
<title>SeuratClusteringOfAllCells&#45;&gt;MarkersForClustersOfAllCells</title>
<path fill="none" stroke="black" d="M1274.55,-1274.77C1286.71,-1264.5 1302.34,-1251.13 1316,-1239 1316.26,-1238.77 1316.51,-1238.54 1316.77,-1238.31"/>
<polygon fill="black" stroke="black" points="1319.16,-1240.87 1324.29,-1231.6 1314.5,-1235.65 1319.16,-1240.87"/>
</g>
<!-- SeuratClusteringOfAllCells&#45;&gt;SelectTCells -->
<g id="edge17" class="edge">
<title>SeuratClusteringOfAllCells&#45;&gt;SelectTCells</title>
<path fill="none" stroke="black" d="M1254,-1274.71C1254,-1245.74 1254,-1187.19 1254,-1152.36"/>
<polygon fill="black" stroke="black" points="1257.5,-1151.95 1254,-1141.95 1250.5,-1151.95 1257.5,-1151.95"/>
</g>
<!-- SelectTCells&#45;&gt;SeuratClusteringOfTCells -->
<g id="edge6" class="edge">
<title>SelectTCells&#45;&gt;SeuratClusteringOfTCells</title>
<path fill="none" stroke="black" d="M1252.01,-1105.48C1248.18,-1072.78 1239.77,-1000.91 1235.17,-961.56"/>
<polygon fill="black" stroke="black" points="1238.64,-961.14 1234,-951.61 1231.69,-961.95 1238.64,-961.14"/>
</g>
<!-- SeuratPreparing&#45;&gt;SeuratClusteringOfAllCells -->
<g id="edge13" class="edge">
<title>SeuratPreparing&#45;&gt;SeuratClusteringOfAllCells</title>
<path fill="none" stroke="black" d="M1207.33,-1346.7C1214.76,-1338.3 1223.82,-1328.07 1231.98,-1318.86"/>
<polygon fill="black" stroke="black" points="1234.84,-1320.91 1238.85,-1311.1 1229.6,-1316.27 1234.84,-1320.91"/>
</g>
</g>
</svg>
