<?xml version="1.0" encoding="UTF-8" standalone="no"?>
<!DOCTYPE svg PUBLIC "-//W3C//DTD SVG 1.1//EN"
 "http://www.w3.org/Graphics/SVG/1.1/DTD/svg11.dtd">
<!-- Generated by graphviz version 3.0.0 (20220315.2325)
 -->
<!-- Title: Immunopipe Pages: 1 -->
<svg width="1714pt" height="965pt"
 viewBox="0.00 0.00 1714.00 965.00" xmlns="http://www.w3.org/2000/svg" xmlns:xlink="http://www.w3.org/1999/xlink">
<g id="graph0" class="graph" transform="scale(1 1) rotate(0) translate(4 961)">
<title>Immunopipe</title>
<polygon fill="white" stroke="transparent" points="-4,4 -4,-961 1710,-961 1710,4 -4,4"/>
<text text-anchor="middle" x="853" y="-941.8" font-family="Helvetica,sans-Serif" font-size="14.00">Immunopipe</text>
<text text-anchor="middle" x="853" y="-926.8" font-family="Helvetica,sans-Serif" font-size="14.00"> </text>
<g id="clust1" class="cluster">
<title>cluster_ScrnaMetabolicLandscape</title>
<polygon fill="#eeeeee" stroke="#eeeeee" points="350,-8 350,-227 1056,-227 1056,-8 350,-8"/>
<text text-anchor="middle" x="438" y="-211.8" font-family="Helvetica,sans-Serif" font-size="14.00">ScrnaMetabolicLandscape</text>
</g>
<!-- MetabolicInput -->
<g id="node1" class="node">
<title>MetabolicInput</title>
<g id="a_node1"><a xlink:title="This process takes Seurat object as input and pass it to the next processes in the `ScrnaMetabolicLandscape` group.">
<path fill="#219ebc" stroke="transparent" d="M923.5,-196C923.5,-196 852.5,-196 852.5,-196 846.5,-196 840.5,-190 840.5,-184 840.5,-184 840.5,-172 840.5,-172 840.5,-166 846.5,-160 852.5,-160 852.5,-160 923.5,-160 923.5,-160 929.5,-160 935.5,-166 935.5,-172 935.5,-172 935.5,-184 935.5,-184 935.5,-190 929.5,-196 923.5,-196"/>
<text text-anchor="middle" x="888" y="-174.9" font-family="Helvetica,sans-Serif" font-size="12.00" fill="#ffffff">MetabolicInput</text>
</a>
</g>
</g>
<!-- MetabolicExprImpution -->
<g id="node6" class="node">
<title>MetabolicExprImpution</title>
<g id="a_node6"><a xlink:title="This process imputes the dropout values in scRNA&#45;seq data.">
<path fill="#219ebc" stroke="transparent" d="M834.5,-124C834.5,-124 719.5,-124 719.5,-124 713.5,-124 707.5,-118 707.5,-112 707.5,-112 707.5,-100 707.5,-100 707.5,-94 713.5,-88 719.5,-88 719.5,-88 834.5,-88 834.5,-88 840.5,-88 846.5,-94 846.5,-100 846.5,-100 846.5,-112 846.5,-112 846.5,-118 840.5,-124 834.5,-124"/>
<text text-anchor="middle" x="777" y="-102.9" font-family="Helvetica,sans-Serif" font-size="12.00" fill="#ffffff">MetabolicExprImpution</text>
</a>
</g>
</g>
<!-- MetabolicInput&#45;&gt;MetabolicExprImpution -->
<g id="edge5" class="edge">
<title>MetabolicInput&#45;&gt;MetabolicExprImpution</title>
<path fill="none" stroke="#3d314a" d="M860.85,-159.88C845.93,-150.47 827.28,-138.71 811.36,-128.67"/>
<polygon fill="#3d314a" stroke="#3d314a" points="812.52,-126.09 804.26,-124.19 809.53,-130.83 812.52,-126.09"/>
</g>
<!-- MetabolicFeatures -->
<g id="node2" class="node">
<title>MetabolicFeatures</title>
<g id="a_node2"><a xlink:title="This process performs enrichment analysis for the metabolic pathways for each group in each subset.">
<polygon fill="#f26419" stroke="transparent" points="474,-52 358,-52 358,-16 474,-16 474,-52"/>
<text text-anchor="middle" x="416" y="-30.9" font-family="Helvetica,sans-Serif" font-size="12.00" fill="#ffffff">MetabolicFeatures</text>
</a>
</g>
</g>
<!-- MetabolicPathwayHeterogeneity -->
<g id="node3" class="node">
<title>MetabolicPathwayHeterogeneity</title>
<g id="a_node3"><a xlink:title="Calculate Metabolic Pathway heterogeneity.">
<polygon fill="#f26419" stroke="transparent" points="682,-52 492,-52 492,-16 682,-16 682,-52"/>
<text text-anchor="middle" x="587" y="-30.9" font-family="Helvetica,sans-Serif" font-size="12.00" fill="#ffffff">MetabolicPathwayHeterogeneity</text>
</a>
</g>
</g>
<!-- MetabolicPathwayActivity -->
<g id="node4" class="node">
<title>MetabolicPathwayActivity</title>
<g id="a_node4"><a xlink:title="This process calculates the pathway activities in different groups and subsets.">
<polygon fill="#f26419" stroke="transparent" points="853.5,-52 700.5,-52 700.5,-16 853.5,-16 853.5,-52"/>
<text text-anchor="middle" x="777" y="-30.9" font-family="Helvetica,sans-Serif" font-size="12.00" fill="#ffffff">MetabolicPathwayActivity</text>
</a>
</g>
</g>
<!-- MetabolicFeaturesIntraSubset -->
<g id="node5" class="node">
<title>MetabolicFeaturesIntraSubset</title>
<g id="a_node5"><a xlink:title="Intra&#45;subset metabolic features &#45; Enrichment analysis in details">
<polygon fill="#f26419" stroke="transparent" points="1048,-52 872,-52 872,-16 1048,-16 1048,-52"/>
<text text-anchor="middle" x="960" y="-30.9" font-family="Helvetica,sans-Serif" font-size="12.00" fill="#ffffff">MetabolicFeaturesIntraSubset</text>
</a>
</g>
</g>
<!-- MetabolicExprImpution&#45;&gt;MetabolicFeatures -->
<g id="edge2" class="edge">
<title>MetabolicExprImpution&#45;&gt;MetabolicFeatures</title>
<path fill="none" stroke="#3d314a" d="M707.23,-93.84C647.49,-83.94 559.28,-68.53 483,-52 482.63,-51.92 482.27,-51.84 481.9,-51.76"/>
<polygon fill="#3d314a" stroke="#3d314a" points="482.47,-49.02 474.05,-49.99 481.24,-54.48 482.47,-49.02"/>
</g>
<!-- MetabolicExprImpution&#45;&gt;MetabolicPathwayHeterogeneity -->
<g id="edge3" class="edge">
<title>MetabolicExprImpution&#45;&gt;MetabolicPathwayHeterogeneity</title>
<path fill="none" stroke="#3d314a" d="M730.52,-87.88C703.51,-77.92 669.34,-65.34 641.12,-54.94"/>
<polygon fill="#3d314a" stroke="#3d314a" points="641.8,-52.21 633.33,-52.07 639.87,-57.46 641.8,-52.21"/>
</g>
<!-- MetabolicExprImpution&#45;&gt;MetabolicPathwayActivity -->
<g id="edge1" class="edge">
<title>MetabolicExprImpution&#45;&gt;MetabolicPathwayActivity</title>
<path fill="none" stroke="#3d314a" d="M777,-87.7C777,-79.39 777,-69.28 777,-60.14"/>
<polygon fill="#3d314a" stroke="#3d314a" points="779.8,-60.1 777,-52.1 774.2,-60.1 779.8,-60.1"/>
</g>
<!-- MetabolicExprImpution&#45;&gt;MetabolicFeaturesIntraSubset -->
<g id="edge4" class="edge">
<title>MetabolicExprImpution&#45;&gt;MetabolicFeaturesIntraSubset</title>
<path fill="none" stroke="#3d314a" d="M821.77,-87.88C847.78,-77.92 880.69,-65.34 907.87,-54.94"/>
<polygon fill="#3d314a" stroke="#3d314a" points="908.91,-57.54 915.38,-52.07 906.91,-52.31 908.91,-57.54"/>
</g>
<!-- ClusterMarkersOfAllCells -->
<g id="node7" class="node">
<title>ClusterMarkersOfAllCells</title>
<g id="a_node7"><a xlink:title="Markers for clusters of all cells.">
<polygon fill="#f26419" stroke="transparent" points="929,-703 777,-703 777,-667 929,-667 929,-703"/>
<text text-anchor="middle" x="853" y="-681.9" font-family="Helvetica,sans-Serif" font-size="12.00" fill="#ffffff">ClusterMarkersOfAllCells</text>
</a>
</g>
</g>
<!-- Immunarch2VDJtools -->
<g id="node8" class="node">
<title>Immunarch2VDJtools</title>
<path fill="#219ebc" stroke="transparent" d="M436.5,-703C436.5,-703 329.5,-703 329.5,-703 323.5,-703 317.5,-697 317.5,-691 317.5,-691 317.5,-679 317.5,-679 317.5,-673 323.5,-667 329.5,-667 329.5,-667 436.5,-667 436.5,-667 442.5,-667 448.5,-673 448.5,-679 448.5,-679 448.5,-691 448.5,-691 448.5,-697 442.5,-703 436.5,-703"/>
<text text-anchor="middle" x="383" y="-681.9" font-family="Helvetica,sans-Serif" font-size="12.00" fill="#ffffff">Immunarch2VDJtools</text>
</g>
<!-- VJUsage -->
<g id="node9" class="node">
<title>VJUsage</title>
<polygon fill="#f26419" stroke="transparent" points="405,-631 339,-631 339,-595 405,-595 405,-631"/>
<text text-anchor="middle" x="372" y="-609.9" font-family="Helvetica,sans-Serif" font-size="12.00" fill="#ffffff">VJUsage</text>
</g>
<!-- Immunarch2VDJtools&#45;&gt;VJUsage -->
<g id="edge38" class="edge">
<title>Immunarch2VDJtools&#45;&gt;VJUsage</title>
<path fill="none" stroke="#3d314a" d="M380.28,-666.7C378.98,-658.39 377.39,-648.28 375.95,-639.14"/>
<polygon fill="#3d314a" stroke="#3d314a" points="378.7,-638.57 374.69,-631.1 373.16,-639.44 378.7,-638.57"/>
</g>
<!-- TopExpressingGenesOfAllCells -->
<g id="node10" class="node">
<title>TopExpressingGenesOfAllCells</title>
<g id="a_node10"><a xlink:title="Top expressing genes for clusters of all cells.">
<polygon fill="#f26419" stroke="transparent" points="1132.5,-703 947.5,-703 947.5,-667 1132.5,-667 1132.5,-703"/>
<text text-anchor="middle" x="1040" y="-681.9" font-family="Helvetica,sans-Serif" font-size="12.00" fill="#ffffff">TopExpressingGenesOfAllCells</text>
</a>
</g>
</g>
<!-- SeuratClusterStats -->
<g id="node11" class="node">
<title>SeuratClusterStats</title>
<polygon fill="#f26419" stroke="transparent" points="1181.5,-196 1064.5,-196 1064.5,-160 1181.5,-160 1181.5,-196"/>
<text text-anchor="middle" x="1123" y="-174.9" font-family="Helvetica,sans-Serif" font-size="12.00" fill="#ffffff">SeuratClusterStats</text>
</g>
<!-- SeuratPreparing -->
<g id="node12" class="node">
<title>SeuratPreparing</title>
<g id="a_node12"><a xlink:title="Load, prepare and apply QC to data, using `Seurat`">
<path fill="#219ebc" stroke="transparent" d="M722,-847C722,-847 642,-847 642,-847 636,-847 630,-841 630,-835 630,-835 630,-823 630,-823 630,-817 636,-811 642,-811 642,-811 722,-811 722,-811 728,-811 734,-817 734,-823 734,-823 734,-835 734,-835 734,-841 728,-847 722,-847"/>
<text text-anchor="middle" x="682" y="-825.9" font-family="Helvetica,sans-Serif" font-size="12.00" fill="#ffffff">SeuratPreparing</text>
</a>
</g>
</g>
<!-- SeuratClusteringOfAllCells -->
<g id="node33" class="node">
<title>SeuratClusteringOfAllCells</title>
<g id="a_node33"><a xlink:title="Cluster all cells using Seurat">
<path fill="#219ebc" stroke="transparent" d="M850.5,-775C850.5,-775 713.5,-775 713.5,-775 707.5,-775 701.5,-769 701.5,-763 701.5,-763 701.5,-751 701.5,-751 701.5,-745 707.5,-739 713.5,-739 713.5,-739 850.5,-739 850.5,-739 856.5,-739 862.5,-745 862.5,-751 862.5,-751 862.5,-763 862.5,-763 862.5,-769 856.5,-775 850.5,-775"/>
<text text-anchor="middle" x="782" y="-753.9" font-family="Helvetica,sans-Serif" font-size="12.00" fill="#ffffff">SeuratClusteringOfAllCells</text>
</a>
</g>
</g>
<!-- SeuratPreparing&#45;&gt;SeuratClusteringOfAllCells -->
<g id="edge13" class="edge">
<title>SeuratPreparing&#45;&gt;SeuratClusteringOfAllCells</title>
<path fill="none" stroke="#3d314a" d="M706.46,-810.88C719.78,-801.55 736.4,-789.92 750.66,-779.94"/>
<polygon fill="#3d314a" stroke="#3d314a" points="752.5,-782.07 757.44,-775.19 749.28,-777.48 752.5,-782.07"/>
</g>
<!-- CDR3AAPhyschem -->
<g id="node13" class="node">
<title>CDR3AAPhyschem</title>
<polygon fill="#f26419" stroke="transparent" points="217.5,-196 94.5,-196 94.5,-160 217.5,-160 217.5,-196"/>
<text text-anchor="middle" x="156" y="-174.9" font-family="Helvetica,sans-Serif" font-size="12.00" fill="#ffffff">CDR3AAPhyschem</text>
</g>
<!-- ModuleScoreCalculator -->
<g id="node14" class="node">
<title>ModuleScoreCalculator</title>
<g id="a_node14"><a xlink:title="Calculate the module scores for each cell">
<path fill="#219ebc" stroke="transparent" d="M803.5,-631C803.5,-631 684.5,-631 684.5,-631 678.5,-631 672.5,-625 672.5,-619 672.5,-619 672.5,-607 672.5,-607 672.5,-601 678.5,-595 684.5,-595 684.5,-595 803.5,-595 803.5,-595 809.5,-595 815.5,-601 815.5,-607 815.5,-607 815.5,-619 815.5,-619 815.5,-625 809.5,-631 803.5,-631"/>
<text text-anchor="middle" x="744" y="-609.9" font-family="Helvetica,sans-Serif" font-size="12.00" fill="#ffffff">ModuleScoreCalculator</text>
</a>
</g>
</g>
<!-- SeuratClusteringOfTCells -->
<g id="node15" class="node">
<title>SeuratClusteringOfTCells</title>
<g id="a_node15"><a xlink:title="Cluster the T cells selected by `TCellSelection`.">
<path fill="#219ebc" stroke="transparent" d="M818,-559C818,-559 688,-559 688,-559 682,-559 676,-553 676,-547 676,-547 676,-535 676,-535 676,-529 682,-523 688,-523 688,-523 818,-523 818,-523 824,-523 830,-529 830,-535 830,-535 830,-547 830,-547 830,-553 824,-559 818,-559"/>
<text text-anchor="middle" x="753" y="-537.9" font-family="Helvetica,sans-Serif" font-size="12.00" fill="#ffffff">SeuratClusteringOfTCells</text>
</a>
</g>
</g>
<!-- ModuleScoreCalculator&#45;&gt;SeuratClusteringOfTCells -->
<g id="edge19" class="edge">
<title>ModuleScoreCalculator&#45;&gt;SeuratClusteringOfTCells</title>
<path fill="none" stroke="#3d314a" d="M746.22,-594.7C747.29,-586.39 748.59,-576.28 749.77,-567.14"/>
<polygon fill="#3d314a" stroke="#3d314a" points="752.56,-567.4 750.8,-559.1 747,-566.68 752.56,-567.4"/>
</g>
<!-- CellTypeAnnotation -->
<g id="node16" class="node">
<title>CellTypeAnnotation</title>
<g id="a_node16"><a xlink:title="Annotate the T cell clusters.">
<path fill="#219ebc" stroke="transparent" d="M808,-487C808,-487 710,-487 710,-487 704,-487 698,-481 698,-475 698,-475 698,-463 698,-463 698,-457 704,-451 710,-451 710,-451 808,-451 808,-451 814,-451 820,-457 820,-463 820,-463 820,-475 820,-475 820,-481 814,-487 808,-487"/>
<text text-anchor="middle" x="759" y="-465.9" font-family="Helvetica,sans-Serif" font-size="12.00" fill="#ffffff">CellTypeAnnotation</text>
</a>
</g>
</g>
<!-- SeuratClusteringOfTCells&#45;&gt;CellTypeAnnotation -->
<g id="edge37" class="edge">
<title>SeuratClusteringOfTCells&#45;&gt;CellTypeAnnotation</title>
<path fill="none" stroke="#3d314a" d="M754.48,-522.7C755.2,-514.39 756.06,-504.28 756.85,-495.14"/>
<polygon fill="#3d314a" stroke="#3d314a" points="759.64,-495.31 757.53,-487.1 754.06,-494.84 759.64,-495.31"/>
</g>
<!-- TopExpressingGenes -->
<g id="node19" class="node">
<title>TopExpressingGenes</title>
<g id="a_node19"><a xlink:title="Top expressing genes for clusters of T cells.">
<polygon fill="#f26419" stroke="transparent" points="831.5,-415 700.5,-415 700.5,-379 831.5,-379 831.5,-415"/>
<text text-anchor="middle" x="766" y="-393.9" font-family="Helvetica,sans-Serif" font-size="12.00" fill="#ffffff">TopExpressingGenes</text>
</a>
</g>
</g>
<!-- CellTypeAnnotation&#45;&gt;TopExpressingGenes -->
<g id="edge15" class="edge">
<title>CellTypeAnnotation&#45;&gt;TopExpressingGenes</title>
<path fill="none" stroke="#3d314a" d="M760.73,-450.7C761.56,-442.39 762.57,-432.28 763.49,-423.14"/>
<polygon fill="#3d314a" stroke="#3d314a" points="766.28,-423.34 764.29,-415.1 760.71,-422.79 766.28,-423.34"/>
</g>
<!-- ClusterMarkers -->
<g id="node29" class="node">
<title>ClusterMarkers</title>
<g id="a_node29"><a xlink:title="Markers for clusters of T cells.">
<polygon fill="#f26419" stroke="transparent" points="948,-415 850,-415 850,-379 948,-379 948,-415"/>
<text text-anchor="middle" x="899" y="-393.9" font-family="Helvetica,sans-Serif" font-size="12.00" fill="#ffffff">ClusterMarkers</text>
</a>
</g>
</g>
<!-- CellTypeAnnotation&#45;&gt;ClusterMarkers -->
<g id="edge25" class="edge">
<title>CellTypeAnnotation&#45;&gt;ClusterMarkers</title>
<path fill="none" stroke="#3d314a" d="M793.25,-450.88C812.57,-441.22 836.86,-429.07 857.29,-418.86"/>
<polygon fill="#3d314a" stroke="#3d314a" points="858.72,-421.27 864.62,-415.19 856.21,-416.26 858.72,-421.27"/>
</g>
<!-- TESSA -->
<g id="node31" class="node">
<title>TESSA</title>
<g id="a_node31"><a xlink:title="Tessa is a Bayesian model to integrate T cell receptor (TCR) sequence profiling with transcriptomes of T cells.">
<path fill="#219ebc" stroke="transparent" d="M670.5,-415C670.5,-415 637.5,-415 637.5,-415 631.5,-415 625.5,-409 625.5,-403 625.5,-403 625.5,-391 625.5,-391 625.5,-385 631.5,-379 637.5,-379 637.5,-379 670.5,-379 670.5,-379 676.5,-379 682.5,-385 682.5,-391 682.5,-391 682.5,-403 682.5,-403 682.5,-409 676.5,-415 670.5,-415"/>
<text text-anchor="middle" x="654" y="-393.9" font-family="Helvetica,sans-Serif" font-size="12.00" fill="#ffffff">TESSA</text>
</a>
</g>
</g>
<!-- CellTypeAnnotation&#45;&gt;TESSA -->
<g id="edge12" class="edge">
<title>CellTypeAnnotation&#45;&gt;TESSA</title>
<path fill="none" stroke="#3d314a" d="M733.31,-450.88C719.2,-441.47 701.56,-429.71 686.5,-419.67"/>
<polygon fill="#3d314a" stroke="#3d314a" points="687.99,-417.3 679.78,-415.19 684.89,-421.96 687.99,-417.3"/>
</g>
<!-- RadarPlots -->
<g id="node17" class="node">
<title>RadarPlots</title>
<g id="a_node17"><a xlink:title="Radar plots for cell proportion in different clusters.">
<polygon fill="#f26419" stroke="transparent" points="1276.5,-196 1199.5,-196 1199.5,-160 1276.5,-160 1276.5,-196"/>
<text text-anchor="middle" x="1238" y="-174.9" font-family="Helvetica,sans-Serif" font-size="12.00" fill="#ffffff">RadarPlots</text>
</a>
</g>
</g>
<!-- CellsDistribution -->
<g id="node18" class="node">
<title>CellsDistribution</title>
<polygon fill="#f26419" stroke="transparent" points="1399.5,-196 1294.5,-196 1294.5,-160 1399.5,-160 1399.5,-196"/>
<text text-anchor="middle" x="1347" y="-174.9" font-family="Helvetica,sans-Serif" font-size="12.00" fill="#ffffff">CellsDistribution</text>
</g>
<!-- TCRClusters2Seurat -->
<g id="node20" class="node">
<title>TCRClusters2Seurat</title>
<g id="a_node20"><a xlink:title="Attach TCR clusters as meta columns to Seurat object">
<path fill="#219ebc" stroke="transparent" d="M1057,-271C1057,-271 953,-271 953,-271 947,-271 941,-265 941,-259 941,-259 941,-247 941,-247 941,-241 947,-235 953,-235 953,-235 1057,-235 1057,-235 1063,-235 1069,-241 1069,-247 1069,-247 1069,-259 1069,-259 1069,-265 1063,-271 1057,-271"/>
<text text-anchor="middle" x="1005" y="-249.9" font-family="Helvetica,sans-Serif" font-size="12.00" fill="#ffffff">TCRClusters2Seurat</text>
</a>
</g>
</g>
<!-- TCRClusters2Seurat&#45;&gt;MetabolicInput -->
<g id="edge36" class="edge">
<title>TCRClusters2Seurat&#45;&gt;MetabolicInput</title>
<path fill="none" stroke="#3d314a" d="M977.57,-234.88C960.99,-224.54 939.73,-211.27 922.08,-200.26"/>
<polygon fill="#3d314a" stroke="#3d314a" points="923.53,-197.87 915.26,-196.01 920.56,-202.62 923.53,-197.87"/>
</g>
<!-- TCRClusters2Seurat&#45;&gt;SeuratClusterStats -->
<g id="edge6" class="edge">
<title>TCRClusters2Seurat&#45;&gt;SeuratClusterStats</title>
<path fill="none" stroke="#3d314a" d="M1045.49,-234.86C1050.46,-232.39 1055.41,-229.74 1060,-227 1072.51,-219.52 1085.46,-210.01 1096.34,-201.42"/>
<polygon fill="#3d314a" stroke="#3d314a" points="1098.34,-203.41 1102.83,-196.23 1094.84,-199.04 1098.34,-203.41"/>
</g>
<!-- TCRClusters2Seurat&#45;&gt;CDR3AAPhyschem -->
<g id="edge35" class="edge">
<title>TCRClusters2Seurat&#45;&gt;CDR3AAPhyschem</title>
<path fill="none" stroke="#3d314a" d="M940.88,-251.98C766.81,-251.63 293.93,-248.68 227,-227 210.37,-221.61 194.04,-211.06 181.25,-201.21"/>
<polygon fill="#3d314a" stroke="#3d314a" points="182.9,-198.95 174.9,-196.16 179.42,-203.33 182.9,-198.95"/>
</g>
<!-- TCRClusters2Seurat&#45;&gt;RadarPlots -->
<g id="edge34" class="edge">
<title>TCRClusters2Seurat&#45;&gt;RadarPlots</title>
<path fill="none" stroke="#3d314a" d="M1069.08,-247.83C1114.19,-244.06 1170.1,-237.48 1191,-227 1202.52,-221.22 1212.85,-211.49 1220.88,-202.29"/>
<polygon fill="#3d314a" stroke="#3d314a" points="1223.09,-204.01 1226.05,-196.07 1218.78,-200.43 1223.09,-204.01"/>
</g>
<!-- TCRClusters2Seurat&#45;&gt;CellsDistribution -->
<g id="edge26" class="edge">
<title>TCRClusters2Seurat&#45;&gt;CellsDistribution</title>
<path fill="none" stroke="#3d314a" d="M1069.17,-250.52C1139.67,-248.14 1247.93,-242.1 1286,-227 1300.24,-221.35 1313.86,-211.25 1324.61,-201.77"/>
<polygon fill="#3d314a" stroke="#3d314a" points="1326.58,-203.77 1330.58,-196.3 1322.79,-199.64 1326.58,-203.77"/>
</g>
<!-- MarkersFinder -->
<g id="node21" class="node">
<title>MarkersFinder</title>
<g id="a_node21"><a xlink:title="Find markers between different groups of cells">
<polygon fill="#f26419" stroke="transparent" points="1512,-196 1418,-196 1418,-160 1512,-160 1512,-196"/>
<text text-anchor="middle" x="1465" y="-174.9" font-family="Helvetica,sans-Serif" font-size="12.00" fill="#ffffff">MarkersFinder</text>
</a>
</g>
</g>
<!-- TCRClusters2Seurat&#45;&gt;MarkersFinder -->
<g id="edge10" class="edge">
<title>TCRClusters2Seurat&#45;&gt;MarkersFinder</title>
<path fill="none" stroke="#3d314a" d="M1069.32,-250.26C1175.4,-247.06 1378.43,-239.39 1409,-227 1422.36,-221.58 1434.81,-211.64 1444.56,-202.2"/>
<polygon fill="#3d314a" stroke="#3d314a" points="1446.62,-204.1 1450.26,-196.44 1442.64,-200.16 1446.62,-204.1"/>
</g>
<!-- CloneResidency -->
<g id="node24" class="node">
<title>CloneResidency</title>
<polygon fill="#f26419" stroke="transparent" points="342,-196 236,-196 236,-160 342,-160 342,-196"/>
<text text-anchor="middle" x="289" y="-174.9" font-family="Helvetica,sans-Serif" font-size="12.00" fill="#ffffff">CloneResidency</text>
</g>
<!-- TCRClusters2Seurat&#45;&gt;CloneResidency -->
<g id="edge21" class="edge">
<title>TCRClusters2Seurat&#45;&gt;CloneResidency</title>
<path fill="none" stroke="#3d314a" d="M940.93,-251.93C786.12,-251.42 400.43,-248.04 346,-227 332.21,-221.67 319.37,-211.53 309.39,-201.94"/>
<polygon fill="#3d314a" stroke="#3d314a" points="311.18,-199.78 303.55,-196.09 307.22,-203.73 311.18,-199.78"/>
</g>
<!-- Immunarch -->
<g id="node25" class="node">
<title>Immunarch</title>
<polygon fill="#f26419" stroke="transparent" points="76,-196 0,-196 0,-160 76,-160 76,-196"/>
<text text-anchor="middle" x="38" y="-174.9" font-family="Helvetica,sans-Serif" font-size="12.00" fill="#ffffff">Immunarch</text>
</g>
<!-- TCRClusters2Seurat&#45;&gt;Immunarch -->
<g id="edge17" class="edge">
<title>TCRClusters2Seurat&#45;&gt;Immunarch</title>
<path fill="none" stroke="#3d314a" d="M940.94,-251.57C738.58,-250.06 124.1,-244.07 85,-227 73.01,-221.77 62.51,-211.91 54.49,-202.49"/>
<polygon fill="#3d314a" stroke="#3d314a" points="56.54,-200.57 49.35,-196.09 52.18,-204.08 56.54,-200.57"/>
</g>
<!-- ScFGSEA -->
<g id="node26" class="node">
<title>ScFGSEA</title>
<polygon fill="#f26419" stroke="transparent" points="1602,-196 1530,-196 1530,-160 1602,-160 1602,-196"/>
<text text-anchor="middle" x="1566" y="-174.9" font-family="Helvetica,sans-Serif" font-size="12.00" fill="#ffffff">ScFGSEA</text>
</g>
<!-- TCRClusters2Seurat&#45;&gt;ScFGSEA -->
<g id="edge32" class="edge">
<title>TCRClusters2Seurat&#45;&gt;ScFGSEA</title>
<path fill="none" stroke="#3d314a" d="M1069.18,-251.57C1198.39,-250.32 1481.01,-245.49 1521,-227 1532.35,-221.75 1542.22,-212.22 1549.8,-203.03"/>
<polygon fill="#3d314a" stroke="#3d314a" points="1552.2,-204.49 1554.9,-196.46 1547.78,-201.06 1552.2,-204.49"/>
</g>
<!-- MetaMarkers -->
<g id="node32" class="node">
<title>MetaMarkers</title>
<polygon fill="#f26419" stroke="transparent" points="1706,-196 1620,-196 1620,-160 1706,-160 1706,-196"/>
<text text-anchor="middle" x="1663" y="-174.9" font-family="Helvetica,sans-Serif" font-size="12.00" fill="#ffffff">MetaMarkers</text>
</g>
<!-- TCRClusters2Seurat&#45;&gt;MetaMarkers -->
<g id="edge40" class="edge">
<title>TCRClusters2Seurat&#45;&gt;MetaMarkers</title>
<path fill="none" stroke="#3d314a" d="M1069.04,-251.85C1214.7,-251.14 1562.01,-247.33 1611,-227 1623.85,-221.67 1635.5,-211.67 1644.5,-202.17"/>
<polygon fill="#3d314a" stroke="#3d314a" points="1646.74,-203.87 1650.02,-196.05 1642.58,-200.11 1646.74,-203.87"/>
</g>
<!-- TCRClusterStats -->
<g id="node22" class="node">
<title>TCRClusterStats</title>
<polygon fill="#f26419" stroke="transparent" points="568.5,-631 461.5,-631 461.5,-595 568.5,-595 568.5,-631"/>
<text text-anchor="middle" x="515" y="-609.9" font-family="Helvetica,sans-Serif" font-size="12.00" fill="#ffffff">TCRClusterStats</text>
</g>
<!-- TCellSelection -->
<g id="node23" class="node">
<title>TCellSelection</title>
<path fill="#219ebc" stroke="transparent" d="M747,-703C747,-703 675,-703 675,-703 669,-703 663,-697 663,-691 663,-691 663,-679 663,-679 663,-673 669,-667 675,-667 675,-667 747,-667 747,-667 753,-667 759,-673 759,-679 759,-679 759,-691 759,-691 759,-697 753,-703 747,-703"/>
<text text-anchor="middle" x="711" y="-681.9" font-family="Helvetica,sans-Serif" font-size="12.00" fill="#ffffff">TCellSelection</text>
</g>
<!-- TCellSelection&#45;&gt;ModuleScoreCalculator -->
<g id="edge16" class="edge">
<title>TCellSelection&#45;&gt;ModuleScoreCalculator</title>
<path fill="none" stroke="#3d314a" d="M719.16,-666.7C723.15,-658.22 728.04,-647.86 732.41,-638.58"/>
<polygon fill="#3d314a" stroke="#3d314a" points="735.06,-639.53 735.94,-631.1 729.99,-637.15 735.06,-639.53"/>
</g>
<!-- TCRClustering -->
<g id="node27" class="node">
<title>TCRClustering</title>
<g id="a_node27"><a xlink:title="Cluster the TCR clones by their CDR3 sequences">
<path fill="#219ebc" stroke="transparent" d="M551.5,-703C551.5,-703 478.5,-703 478.5,-703 472.5,-703 466.5,-697 466.5,-691 466.5,-691 466.5,-679 466.5,-679 466.5,-673 472.5,-667 478.5,-667 478.5,-667 551.5,-667 551.5,-667 557.5,-667 563.5,-673 563.5,-679 563.5,-679 563.5,-691 563.5,-691 563.5,-697 557.5,-703 551.5,-703"/>
<text text-anchor="middle" x="515" y="-681.9" font-family="Helvetica,sans-Serif" font-size="12.00" fill="#ffffff">TCRClustering</text>
</a>
</g>
</g>
<!-- TCRClustering&#45;&gt;TCRClusters2Seurat -->
<g id="edge30" class="edge">
<title>TCRClustering&#45;&gt;TCRClusters2Seurat</title>
<path fill="none" stroke="#3d314a" d="M487.89,-666.88C475.47,-657.69 461.62,-645.31 453,-631 432.08,-596.27 433,-582.54 433,-542 433,-542 433,-542 433,-396 433,-294.16 778.86,-264.84 932.7,-256.84"/>
<polygon fill="#3d314a" stroke="#3d314a" points="932.93,-259.63 940.77,-256.43 932.64,-254.03 932.93,-259.63"/>
</g>
<!-- TCRClustering&#45;&gt;TCRClusterStats -->
<g id="edge9" class="edge">
<title>TCRClustering&#45;&gt;TCRClusterStats</title>
<path fill="none" stroke="#3d314a" d="M515,-666.7C515,-658.39 515,-648.28 515,-639.14"/>
<polygon fill="#3d314a" stroke="#3d314a" points="517.8,-639.1 515,-631.1 512.2,-639.1 517.8,-639.1"/>
</g>
<!-- ImmunarchLoading -->
<g id="node28" class="node">
<title>ImmunarchLoading</title>
<path fill="#219ebc" stroke="transparent" d="M562.5,-775C562.5,-775 467.5,-775 467.5,-775 461.5,-775 455.5,-769 455.5,-763 455.5,-763 455.5,-751 455.5,-751 455.5,-745 461.5,-739 467.5,-739 467.5,-739 562.5,-739 562.5,-739 568.5,-739 574.5,-745 574.5,-751 574.5,-751 574.5,-763 574.5,-763 574.5,-769 568.5,-775 562.5,-775"/>
<text text-anchor="middle" x="515" y="-753.9" font-family="Helvetica,sans-Serif" font-size="12.00" fill="#ffffff">ImmunarchLoading</text>
</g>
<!-- ImmunarchLoading&#45;&gt;Immunarch2VDJtools -->
<g id="edge22" class="edge">
<title>ImmunarchLoading&#45;&gt;Immunarch2VDJtools</title>
<path fill="none" stroke="#3d314a" d="M482.71,-738.88C464.57,-729.26 441.79,-717.18 422.58,-706.99"/>
<polygon fill="#3d314a" stroke="#3d314a" points="423.79,-704.46 415.41,-703.19 421.17,-709.41 423.79,-704.46"/>
</g>
<!-- ImmunarchLoading&#45;&gt;CDR3AAPhyschem -->
<g id="edge18" class="edge">
<title>ImmunarchLoading&#45;&gt;CDR3AAPhyschem</title>
<path fill="none" stroke="#3d314a" d="M455.21,-754.63C364.62,-749.02 203,-723.65 203,-614 203,-614 203,-614 203,-324 203,-279.98 183.15,-231.94 169.25,-203.69"/>
<polygon fill="#3d314a" stroke="#3d314a" points="171.61,-202.15 165.51,-196.27 166.61,-204.67 171.61,-202.15"/>
</g>
<!-- ImmunarchLoading&#45;&gt;TCellSelection -->
<g id="edge27" class="edge">
<title>ImmunarchLoading&#45;&gt;TCellSelection</title>
<path fill="none" stroke="#3d314a" d="M562.7,-738.97C590.68,-728.97 626.16,-716.3 655.41,-705.85"/>
<polygon fill="#3d314a" stroke="#3d314a" points="656.5,-708.44 663.09,-703.11 654.61,-703.16 656.5,-708.44"/>
</g>
<!-- ImmunarchLoading&#45;&gt;CloneResidency -->
<g id="edge33" class="edge">
<title>ImmunarchLoading&#45;&gt;CloneResidency</title>
<path fill="none" stroke="#3d314a" d="M455.38,-747.82C401.69,-739.23 328.2,-724.04 308,-703 279.98,-673.83 289,-654.45 289,-614 289,-614 289,-614 289,-324 289,-282.25 289,-233.74 289,-204.75"/>
<polygon fill="#3d314a" stroke="#3d314a" points="291.8,-204.41 289,-196.41 286.2,-204.41 291.8,-204.41"/>
</g>
<!-- ImmunarchLoading&#45;&gt;Immunarch -->
<g id="edge28" class="edge">
<title>ImmunarchLoading&#45;&gt;Immunarch</title>
<path fill="none" stroke="#3d314a" d="M455.26,-755.64C392.44,-753 292.31,-742.23 216,-703 165.69,-677.13 125,-670.57 125,-614 125,-614 125,-614 125,-324 125,-275.15 88.24,-228.53 62.51,-201.89"/>
<polygon fill="#3d314a" stroke="#3d314a" points="64.49,-199.92 56.88,-196.2 60.51,-203.86 64.49,-199.92"/>
</g>
<!-- ImmunarchLoading&#45;&gt;TCRClustering -->
<g id="edge11" class="edge">
<title>ImmunarchLoading&#45;&gt;TCRClustering</title>
<path fill="none" stroke="#3d314a" d="M515,-738.7C515,-730.39 515,-720.28 515,-711.14"/>
<polygon fill="#3d314a" stroke="#3d314a" points="517.8,-711.1 515,-703.1 512.2,-711.1 517.8,-711.1"/>
</g>
<!-- ImmunarchLoading&#45;&gt;TESSA -->
<g id="edge23" class="edge">
<title>ImmunarchLoading&#45;&gt;TESSA</title>
<path fill="none" stroke="#3d314a" d="M562.93,-738.85C580.3,-730.47 598.67,-718.73 611,-703 636.28,-670.76 635,-654.97 635,-614 635,-614 635,-614 635,-540 635,-498.98 642.89,-451.87 648.5,-423.55"/>
<polygon fill="#3d314a" stroke="#3d314a" points="651.31,-423.79 650.16,-415.39 645.82,-422.67 651.31,-423.79"/>
</g>
<!-- SeuratMetadataMutater -->
<g id="node34" class="node">
<title>SeuratMetadataMutater</title>
<g id="a_node34"><a xlink:title="Attach TCR clone information as meta columns to Seurat object">
<path fill="#219ebc" stroke="transparent" d="M712.5,-343C712.5,-343 595.5,-343 595.5,-343 589.5,-343 583.5,-337 583.5,-331 583.5,-331 583.5,-319 583.5,-319 583.5,-313 589.5,-307 595.5,-307 595.5,-307 712.5,-307 712.5,-307 718.5,-307 724.5,-313 724.5,-319 724.5,-319 724.5,-331 724.5,-331 724.5,-337 718.5,-343 712.5,-343"/>
<text text-anchor="middle" x="654" y="-321.9" font-family="Helvetica,sans-Serif" font-size="12.00" fill="#ffffff">SeuratMetadataMutater</text>
</a>
</g>
</g>
<!-- ImmunarchLoading&#45;&gt;SeuratMetadataMutater -->
<g id="edge14" class="edge">
<title>ImmunarchLoading&#45;&gt;SeuratMetadataMutater</title>
<path fill="none" stroke="#3d314a" d="M539.51,-738.86C551.21,-729.5 564.49,-716.98 573,-703 594.31,-668.01 597,-654.97 597,-614 597,-614 597,-614 597,-468 597,-427.46 600.64,-416.1 617,-379 621.55,-368.69 628.22,-358.31 634.65,-349.51"/>
<polygon fill="#3d314a" stroke="#3d314a" points="636.89,-351.18 639.48,-343.11 632.42,-347.81 636.89,-351.18"/>
</g>
<!-- SampleInfo -->
<g id="node30" class="node">
<title>SampleInfo</title>
<g id="a_node30"><a xlink:title="List sample information and perform statistics">
<polygon fill="#4c956c" stroke="transparent" points="613,-919 545.93,-901 613,-883 680.07,-901 613,-919"/>
<text text-anchor="middle" x="613" y="-897.9" font-family="Helvetica,sans-Serif" font-size="12.00" fill="#ffffff">SampleInfo</text>
</a>
</g>
</g>
<!-- SampleInfo&#45;&gt;SeuratPreparing -->
<g id="edge39" class="edge">
<title>SampleInfo&#45;&gt;SeuratPreparing</title>
<path fill="none" stroke="#3d314a" d="M626.3,-886.5C635.62,-877.05 648.31,-864.18 659.22,-853.11"/>
<polygon fill="#3d314a" stroke="#3d314a" points="661.44,-854.84 665.07,-847.18 657.46,-850.91 661.44,-854.84"/>
</g>
<!-- SampleInfo&#45;&gt;ImmunarchLoading -->
<g id="edge29" class="edge">
<title>SampleInfo&#45;&gt;ImmunarchLoading</title>
<path fill="none" stroke="#3d314a" d="M603.06,-885.6C586.22,-861.19 551.88,-811.44 531.42,-781.79"/>
<polygon fill="#3d314a" stroke="#3d314a" points="533.63,-780.06 526.78,-775.07 529.02,-783.24 533.63,-780.06"/>
</g>
<!-- TESSA&#45;&gt;SeuratMetadataMutater -->
<g id="edge20" class="edge">
<title>TESSA&#45;&gt;SeuratMetadataMutater</title>
<path fill="none" stroke="#3d314a" d="M654,-378.7C654,-370.39 654,-360.28 654,-351.14"/>
<polygon fill="#3d314a" stroke="#3d314a" points="656.8,-351.1 654,-343.1 651.2,-351.1 656.8,-351.1"/>
</g>
<!-- SeuratClusteringOfAllCells&#45;&gt;ClusterMarkersOfAllCells -->
<g id="edge7" class="edge">
<title>SeuratClusteringOfAllCells&#45;&gt;ClusterMarkersOfAllCells</title>
<path fill="none" stroke="#3d314a" d="M799.55,-738.7C808.66,-729.71 819.92,-718.61 829.75,-708.92"/>
<polygon fill="#3d314a" stroke="#3d314a" points="831.92,-710.71 835.65,-703.1 827.99,-706.73 831.92,-710.71"/>
</g>
<!-- SeuratClusteringOfAllCells&#45;&gt;TopExpressingGenesOfAllCells -->
<g id="edge24" class="edge">
<title>SeuratClusteringOfAllCells&#45;&gt;TopExpressingGenesOfAllCells</title>
<path fill="none" stroke="#3d314a" d="M844.78,-738.97C882.24,-728.8 929.92,-715.87 968.78,-705.32"/>
<polygon fill="#3d314a" stroke="#3d314a" points="969.95,-707.91 976.93,-703.11 968.48,-702.5 969.95,-707.91"/>
</g>
<!-- SeuratClusteringOfAllCells&#45;&gt;TCellSelection -->
<g id="edge8" class="edge">
<title>SeuratClusteringOfAllCells&#45;&gt;TCellSelection</title>
<path fill="none" stroke="#3d314a" d="M764.45,-738.7C755.34,-729.71 744.08,-718.61 734.25,-708.92"/>
<polygon fill="#3d314a" stroke="#3d314a" points="736.01,-706.73 728.35,-703.1 732.08,-710.71 736.01,-706.73"/>
</g>
<!-- SeuratMetadataMutater&#45;&gt;TCRClusters2Seurat -->
<g id="edge31" class="edge">
<title>SeuratMetadataMutater&#45;&gt;TCRClusters2Seurat</title>
<path fill="none" stroke="#3d314a" d="M724.61,-309.92C785.05,-297.86 871.72,-280.58 932.66,-268.43"/>
<polygon fill="#3d314a" stroke="#3d314a" points="933.41,-271.13 940.71,-266.82 932.32,-265.64 933.41,-271.13"/>
</g>
</g>
</svg>
