<?xml version="1.0" encoding="UTF-8" standalone="no"?>
<!DOCTYPE svg PUBLIC "-//W3C//DTD SVG 1.1//EN"
 "http://www.w3.org/Graphics/SVG/1.1/DTD/svg11.dtd">
<!-- Generated by graphviz version 3.0.0 (20220315.2325)
 -->
<!-- Title: Immunopipe Pages: 1 -->
<svg width="1525pt" height="965pt"
 viewBox="0.00 0.00 1525.00 965.00" xmlns="http://www.w3.org/2000/svg" xmlns:xlink="http://www.w3.org/1999/xlink">
<g id="graph0" class="graph" transform="scale(1 1) rotate(0) translate(4 961)">
<title>Immunopipe</title>
<polygon fill="white" stroke="transparent" points="-4,4 -4,-961 1521,-961 1521,4 -4,4"/>
<text text-anchor="middle" x="758.5" y="-941.8" font-family="Helvetica,sans-Serif" font-size="14.00">Immunopipe</text>
<text text-anchor="middle" x="758.5" y="-926.8" font-family="Helvetica,sans-Serif" font-size="14.00"> </text>
<g id="clust1" class="cluster">
<title>cluster_ScrnaMetabolicLandscape</title>
<polygon fill="#eeeeee" stroke="#eeeeee" points="679.5,-8 679.5,-227 1385.5,-227 1385.5,-8 679.5,-8"/>
<text text-anchor="middle" x="767.5" y="-211.8" font-family="Helvetica,sans-Serif" font-size="14.00">ScrnaMetabolicLandscape</text>
</g>
<!-- MetabolicPathwayHeterogeneity -->
<g id="node1" class="node">
<title>MetabolicPathwayHeterogeneity</title>
<g id="a_node1"><a xlink:title="Pathway heterogeneity">
<polygon fill="#f26419" stroke="transparent" points="877.5,-52 687.5,-52 687.5,-16 877.5,-16 877.5,-52"/>
<text text-anchor="middle" x="782.5" y="-30.9" font-family="Helvetica,sans-Serif" font-size="12.00" fill="#ffffff">MetabolicPathwayHeterogeneity</text>
</a>
</g>
</g>
<!-- MetabolicPathwayActivity -->
<g id="node2" class="node">
<title>MetabolicPathwayActivity</title>
<g id="a_node2"><a xlink:title="Pathway activities for each group">
<polygon fill="#f26419" stroke="transparent" points="1049,-52 896,-52 896,-16 1049,-16 1049,-52"/>
<text text-anchor="middle" x="972.5" y="-30.9" font-family="Helvetica,sans-Serif" font-size="12.00" fill="#ffffff">MetabolicPathwayActivity</text>
</a>
</g>
</g>
<!-- MetabolicFeatures -->
<g id="node3" class="node">
<title>MetabolicFeatures</title>
<g id="a_node3"><a xlink:title="Inter&#45;subset metabolic features &#45; Enrichment analysis in details">
<polygon fill="#f26419" stroke="transparent" points="1183.5,-52 1067.5,-52 1067.5,-16 1183.5,-16 1183.5,-52"/>
<text text-anchor="middle" x="1125.5" y="-30.9" font-family="Helvetica,sans-Serif" font-size="12.00" fill="#ffffff">MetabolicFeatures</text>
</a>
</g>
</g>
<!-- MetabolicExprImpution -->
<g id="node4" class="node">
<title>MetabolicExprImpution</title>
<g id="a_node4"><a xlink:title="Impute the dropout values in scRNA&#45;seq data.">
<path fill="#219ebc" stroke="transparent" d="M1030,-124C1030,-124 915,-124 915,-124 909,-124 903,-118 903,-112 903,-112 903,-100 903,-100 903,-94 909,-88 915,-88 915,-88 1030,-88 1030,-88 1036,-88 1042,-94 1042,-100 1042,-100 1042,-112 1042,-112 1042,-118 1036,-124 1030,-124"/>
<text text-anchor="middle" x="972.5" y="-102.9" font-family="Helvetica,sans-Serif" font-size="12.00" fill="#ffffff">MetabolicExprImpution</text>
</a>
</g>
</g>
<!-- MetabolicExprImpution&#45;&gt;MetabolicPathwayHeterogeneity -->
<g id="edge3" class="edge">
<title>MetabolicExprImpution&#45;&gt;MetabolicPathwayHeterogeneity</title>
<path fill="none" stroke="#3d314a" d="M926.02,-87.88C899.01,-77.92 864.84,-65.34 836.62,-54.94"/>
<polygon fill="#3d314a" stroke="#3d314a" points="837.3,-52.21 828.83,-52.07 835.37,-57.46 837.3,-52.21"/>
</g>
<!-- MetabolicExprImpution&#45;&gt;MetabolicPathwayActivity -->
<g id="edge5" class="edge">
<title>MetabolicExprImpution&#45;&gt;MetabolicPathwayActivity</title>
<path fill="none" stroke="#3d314a" d="M972.5,-87.7C972.5,-79.39 972.5,-69.28 972.5,-60.14"/>
<polygon fill="#3d314a" stroke="#3d314a" points="975.3,-60.1 972.5,-52.1 969.7,-60.1 975.3,-60.1"/>
</g>
<!-- MetabolicExprImpution&#45;&gt;MetabolicFeatures -->
<g id="edge2" class="edge">
<title>MetabolicExprImpution&#45;&gt;MetabolicFeatures</title>
<path fill="none" stroke="#3d314a" d="M1009.93,-87.88C1031.31,-78.09 1058.26,-65.77 1080.75,-55.47"/>
<polygon fill="#3d314a" stroke="#3d314a" points="1082.08,-57.94 1088.19,-52.07 1079.75,-52.85 1082.08,-57.94"/>
</g>
<!-- MetabolicFeaturesIntraSubset -->
<g id="node5" class="node">
<title>MetabolicFeaturesIntraSubset</title>
<g id="a_node5"><a xlink:title="Intra&#45;subset metabolic features &#45; Enrichment analysis in details">
<polygon fill="#f26419" stroke="transparent" points="1377.5,-52 1201.5,-52 1201.5,-16 1377.5,-16 1377.5,-52"/>
<text text-anchor="middle" x="1289.5" y="-30.9" font-family="Helvetica,sans-Serif" font-size="12.00" fill="#ffffff">MetabolicFeaturesIntraSubset</text>
</a>
</g>
</g>
<!-- MetabolicExprImpution&#45;&gt;MetabolicFeaturesIntraSubset -->
<g id="edge1" class="edge">
<title>MetabolicExprImpution&#45;&gt;MetabolicFeaturesIntraSubset</title>
<path fill="none" stroke="#3d314a" d="M1042.07,-89.64C1089.81,-79.09 1153.48,-65.04 1204.28,-53.82"/>
<polygon fill="#3d314a" stroke="#3d314a" points="1205.11,-56.5 1212.31,-52.04 1203.9,-51.04 1205.11,-56.5"/>
</g>
<!-- MetabolicInput -->
<g id="node6" class="node">
<title>MetabolicInput</title>
<g id="a_node6"><a xlink:title="Input for the metabolic pathway analysis pipeline for scRNA&#45;seq data">
<path fill="#219ebc" stroke="transparent" d="M890,-196C890,-196 819,-196 819,-196 813,-196 807,-190 807,-184 807,-184 807,-172 807,-172 807,-166 813,-160 819,-160 819,-160 890,-160 890,-160 896,-160 902,-166 902,-172 902,-172 902,-184 902,-184 902,-190 896,-196 890,-196"/>
<text text-anchor="middle" x="854.5" y="-174.9" font-family="Helvetica,sans-Serif" font-size="12.00" fill="#ffffff">MetabolicInput</text>
</a>
</g>
</g>
<!-- MetabolicInput&#45;&gt;MetabolicExprImpution -->
<g id="edge4" class="edge">
<title>MetabolicInput&#45;&gt;MetabolicExprImpution</title>
<path fill="none" stroke="#3d314a" d="M883.37,-159.88C899.37,-150.38 919.41,-138.5 936.43,-128.4"/>
<polygon fill="#3d314a" stroke="#3d314a" points="938.07,-130.68 943.52,-124.19 935.21,-125.86 938.07,-130.68"/>
</g>
<!-- ScFGSEA -->
<g id="node7" class="node">
<title>ScFGSEA</title>
<polygon fill="#f26419" stroke="transparent" points="100.5,-196 28.5,-196 28.5,-160 100.5,-160 100.5,-196"/>
<text text-anchor="middle" x="64.5" y="-174.9" font-family="Helvetica,sans-Serif" font-size="12.00" fill="#ffffff">ScFGSEA</text>
</g>
<!-- SeuratMetadataMutater -->
<g id="node8" class="node">
<title>SeuratMetadataMutater</title>
<g id="a_node8"><a xlink:title="Attach TCR clone information as meta columns to Seurat object">
<path fill="#219ebc" stroke="transparent" d="M556,-343C556,-343 439,-343 439,-343 433,-343 427,-337 427,-331 427,-331 427,-319 427,-319 427,-313 433,-307 439,-307 439,-307 556,-307 556,-307 562,-307 568,-313 568,-319 568,-319 568,-331 568,-331 568,-337 562,-343 556,-343"/>
<text text-anchor="middle" x="497.5" y="-321.9" font-family="Helvetica,sans-Serif" font-size="12.00" fill="#ffffff">SeuratMetadataMutater</text>
</a>
</g>
</g>
<!-- TCRClusters2Seurat -->
<g id="node30" class="node">
<title>TCRClusters2Seurat</title>
<g id="a_node30"><a xlink:title="Attach TCR clusters as meta columns to Seurat object">
<path fill="#219ebc" stroke="transparent" d="M549.5,-271C549.5,-271 445.5,-271 445.5,-271 439.5,-271 433.5,-265 433.5,-259 433.5,-259 433.5,-247 433.5,-247 433.5,-241 439.5,-235 445.5,-235 445.5,-235 549.5,-235 549.5,-235 555.5,-235 561.5,-241 561.5,-247 561.5,-247 561.5,-259 561.5,-259 561.5,-265 555.5,-271 549.5,-271"/>
<text text-anchor="middle" x="497.5" y="-249.9" font-family="Helvetica,sans-Serif" font-size="12.00" fill="#ffffff">TCRClusters2Seurat</text>
</a>
</g>
</g>
<!-- SeuratMetadataMutater&#45;&gt;TCRClusters2Seurat -->
<g id="edge14" class="edge">
<title>SeuratMetadataMutater&#45;&gt;TCRClusters2Seurat</title>
<path fill="none" stroke="#3d314a" d="M497.5,-306.7C497.5,-298.39 497.5,-288.28 497.5,-279.14"/>
<polygon fill="#3d314a" stroke="#3d314a" points="500.3,-279.1 497.5,-271.1 494.7,-279.1 500.3,-279.1"/>
</g>
<!-- SeuratClusteringOfAllCells -->
<g id="node9" class="node">
<title>SeuratClusteringOfAllCells</title>
<g id="a_node9"><a xlink:title="Cluster all cells using Seurat">
<path fill="#219ebc" stroke="transparent" d="M455,-775C455,-775 318,-775 318,-775 312,-775 306,-769 306,-763 306,-763 306,-751 306,-751 306,-745 312,-739 318,-739 318,-739 455,-739 455,-739 461,-739 467,-745 467,-751 467,-751 467,-763 467,-763 467,-769 461,-775 455,-775"/>
<text text-anchor="middle" x="386.5" y="-753.9" font-family="Helvetica,sans-Serif" font-size="12.00" fill="#ffffff">SeuratClusteringOfAllCells</text>
</a>
</g>
</g>
<!-- TCellSelection -->
<g id="node26" class="node">
<title>TCellSelection</title>
<path fill="#219ebc" stroke="transparent" d="M397.5,-703C397.5,-703 325.5,-703 325.5,-703 319.5,-703 313.5,-697 313.5,-691 313.5,-691 313.5,-679 313.5,-679 313.5,-673 319.5,-667 325.5,-667 325.5,-667 397.5,-667 397.5,-667 403.5,-667 409.5,-673 409.5,-679 409.5,-679 409.5,-691 409.5,-691 409.5,-697 403.5,-703 397.5,-703"/>
<text text-anchor="middle" x="361.5" y="-681.9" font-family="Helvetica,sans-Serif" font-size="12.00" fill="#ffffff">TCellSelection</text>
</g>
<!-- SeuratClusteringOfAllCells&#45;&gt;TCellSelection -->
<g id="edge18" class="edge">
<title>SeuratClusteringOfAllCells&#45;&gt;TCellSelection</title>
<path fill="none" stroke="#3d314a" d="M380.32,-738.7C377.32,-730.3 373.67,-720.07 370.38,-710.86"/>
<polygon fill="#3d314a" stroke="#3d314a" points="372.94,-709.7 367.61,-703.1 367.66,-711.58 372.94,-709.7"/>
</g>
<!-- TCRClustering -->
<g id="node10" class="node">
<title>TCRClustering</title>
<g id="a_node10"><a xlink:title="Cluster the TCR clones by their CDR3 sequences">
<path fill="#219ebc" stroke="transparent" d="M683,-703C683,-703 610,-703 610,-703 604,-703 598,-697 598,-691 598,-691 598,-679 598,-679 598,-673 604,-667 610,-667 610,-667 683,-667 683,-667 689,-667 695,-673 695,-679 695,-679 695,-691 695,-691 695,-697 689,-703 683,-703"/>
<text text-anchor="middle" x="646.5" y="-681.9" font-family="Helvetica,sans-Serif" font-size="12.00" fill="#ffffff">TCRClustering</text>
</a>
</g>
</g>
<!-- TCRClusteringStats -->
<g id="node14" class="node">
<title>TCRClusteringStats</title>
<polygon fill="#f26419" stroke="transparent" points="715.5,-631 591.5,-631 591.5,-595 715.5,-595 715.5,-631"/>
<text text-anchor="middle" x="653.5" y="-609.9" font-family="Helvetica,sans-Serif" font-size="12.00" fill="#ffffff">TCRClusteringStats</text>
</g>
<!-- TCRClustering&#45;&gt;TCRClusteringStats -->
<g id="edge11" class="edge">
<title>TCRClustering&#45;&gt;TCRClusteringStats</title>
<path fill="none" stroke="#3d314a" d="M648.23,-666.7C649.06,-658.39 650.07,-648.28 650.99,-639.14"/>
<polygon fill="#3d314a" stroke="#3d314a" points="653.78,-639.34 651.79,-631.1 648.21,-638.79 653.78,-639.34"/>
</g>
<!-- TCRClustering&#45;&gt;TCRClusters2Seurat -->
<g id="edge24" class="edge">
<title>TCRClustering&#45;&gt;TCRClusters2Seurat</title>
<path fill="none" stroke="#3d314a" d="M683.06,-667C698.06,-658.26 714.27,-646.21 724.5,-631 747.08,-597.44 743.5,-582.45 743.5,-542 743.5,-542 743.5,-542 743.5,-396 743.5,-315.16 642.63,-279.62 570.07,-264.52"/>
<polygon fill="#3d314a" stroke="#3d314a" points="570.21,-261.69 561.81,-262.86 569.1,-267.18 570.21,-261.69"/>
</g>
<!-- CellsDistribution -->
<g id="node11" class="node">
<title>CellsDistribution</title>
<polygon fill="#f26419" stroke="transparent" points="224,-196 119,-196 119,-160 224,-160 224,-196"/>
<text text-anchor="middle" x="171.5" y="-174.9" font-family="Helvetica,sans-Serif" font-size="12.00" fill="#ffffff">CellsDistribution</text>
</g>
<!-- SeuratClusteringOfTCells -->
<g id="node12" class="node">
<title>SeuratClusteringOfTCells</title>
<g id="a_node12"><a xlink:title="Cluster the T cells selected by `TCellSelection`.">
<path fill="#219ebc" stroke="transparent" d="M364.5,-631C364.5,-631 234.5,-631 234.5,-631 228.5,-631 222.5,-625 222.5,-619 222.5,-619 222.5,-607 222.5,-607 222.5,-601 228.5,-595 234.5,-595 234.5,-595 364.5,-595 364.5,-595 370.5,-595 376.5,-601 376.5,-607 376.5,-607 376.5,-619 376.5,-619 376.5,-625 370.5,-631 364.5,-631"/>
<text text-anchor="middle" x="299.5" y="-609.9" font-family="Helvetica,sans-Serif" font-size="12.00" fill="#ffffff">SeuratClusteringOfTCells</text>
</a>
</g>
</g>
<!-- CellTypeAnnotation -->
<g id="node25" class="node">
<title>CellTypeAnnotation</title>
<path fill="#219ebc" stroke="transparent" d="M314.5,-559C314.5,-559 216.5,-559 216.5,-559 210.5,-559 204.5,-553 204.5,-547 204.5,-547 204.5,-535 204.5,-535 204.5,-529 210.5,-523 216.5,-523 216.5,-523 314.5,-523 314.5,-523 320.5,-523 326.5,-529 326.5,-535 326.5,-535 326.5,-547 326.5,-547 326.5,-553 320.5,-559 314.5,-559"/>
<text text-anchor="middle" x="265.5" y="-537.9" font-family="Helvetica,sans-Serif" font-size="12.00" fill="#ffffff">CellTypeAnnotation</text>
</g>
<!-- SeuratClusteringOfTCells&#45;&gt;CellTypeAnnotation -->
<g id="edge31" class="edge">
<title>SeuratClusteringOfTCells&#45;&gt;CellTypeAnnotation</title>
<path fill="none" stroke="#3d314a" d="M291.1,-594.7C286.94,-586.14 281.85,-575.66 277.31,-566.3"/>
<polygon fill="#3d314a" stroke="#3d314a" points="279.82,-565.08 273.81,-559.1 274.78,-567.52 279.82,-565.08"/>
</g>
<!-- Immunarch -->
<g id="node13" class="node">
<title>Immunarch</title>
<polygon fill="#f26419" stroke="transparent" points="541.5,-703 465.5,-703 465.5,-667 541.5,-667 541.5,-703"/>
<text text-anchor="middle" x="503.5" y="-681.9" font-family="Helvetica,sans-Serif" font-size="12.00" fill="#ffffff">Immunarch</text>
</g>
<!-- ModuleScoreCalculator -->
<g id="node15" class="node">
<title>ModuleScoreCalculator</title>
<path fill="#219ebc" stroke="transparent" d="M397,-487C397,-487 278,-487 278,-487 272,-487 266,-481 266,-475 266,-475 266,-463 266,-463 266,-457 272,-451 278,-451 278,-451 397,-451 397,-451 403,-451 409,-457 409,-463 409,-463 409,-475 409,-475 409,-481 403,-487 397,-487"/>
<text text-anchor="middle" x="337.5" y="-465.9" font-family="Helvetica,sans-Serif" font-size="12.00" fill="#ffffff">ModuleScoreCalculator</text>
</g>
<!-- TESSA -->
<g id="node21" class="node">
<title>TESSA</title>
<path fill="#219ebc" stroke="transparent" d="M454,-415C454,-415 421,-415 421,-415 415,-415 409,-409 409,-403 409,-403 409,-391 409,-391 409,-385 415,-379 421,-379 421,-379 454,-379 454,-379 460,-379 466,-385 466,-391 466,-391 466,-403 466,-403 466,-409 460,-415 454,-415"/>
<text text-anchor="middle" x="437.5" y="-393.9" font-family="Helvetica,sans-Serif" font-size="12.00" fill="#ffffff">TESSA</text>
</g>
<!-- ModuleScoreCalculator&#45;&gt;TESSA -->
<g id="edge34" class="edge">
<title>ModuleScoreCalculator&#45;&gt;TESSA</title>
<path fill="none" stroke="#3d314a" d="M361.96,-450.88C375.28,-441.55 391.9,-429.92 406.16,-419.94"/>
<polygon fill="#3d314a" stroke="#3d314a" points="408,-422.07 412.94,-415.19 404.78,-417.48 408,-422.07"/>
</g>
<!-- MarkersFinder -->
<g id="node16" class="node">
<title>MarkersFinder</title>
<polygon fill="#f26419" stroke="transparent" points="336.5,-196 242.5,-196 242.5,-160 336.5,-160 336.5,-196"/>
<text text-anchor="middle" x="289.5" y="-174.9" font-family="Helvetica,sans-Serif" font-size="12.00" fill="#ffffff">MarkersFinder</text>
</g>
<!-- MetaMarkers -->
<g id="node17" class="node">
<title>MetaMarkers</title>
<polygon fill="#f26419" stroke="transparent" points="440.5,-196 354.5,-196 354.5,-160 440.5,-160 440.5,-196"/>
<text text-anchor="middle" x="397.5" y="-174.9" font-family="Helvetica,sans-Serif" font-size="12.00" fill="#ffffff">MetaMarkers</text>
</g>
<!-- SeuratPreparing -->
<g id="node18" class="node">
<title>SeuratPreparing</title>
<path fill="#219ebc" stroke="transparent" d="M465.5,-847C465.5,-847 385.5,-847 385.5,-847 379.5,-847 373.5,-841 373.5,-835 373.5,-835 373.5,-823 373.5,-823 373.5,-817 379.5,-811 385.5,-811 385.5,-811 465.5,-811 465.5,-811 471.5,-811 477.5,-817 477.5,-823 477.5,-823 477.5,-835 477.5,-835 477.5,-841 471.5,-847 465.5,-847"/>
<text text-anchor="middle" x="425.5" y="-825.9" font-family="Helvetica,sans-Serif" font-size="12.00" fill="#ffffff">SeuratPreparing</text>
</g>
<!-- SeuratPreparing&#45;&gt;SeuratClusteringOfAllCells -->
<g id="edge23" class="edge">
<title>SeuratPreparing&#45;&gt;SeuratClusteringOfAllCells</title>
<path fill="none" stroke="#3d314a" d="M415.86,-810.7C411.09,-802.14 405.25,-791.66 400.04,-782.3"/>
<polygon fill="#3d314a" stroke="#3d314a" points="402.37,-780.73 396.03,-775.1 397.48,-783.46 402.37,-780.73"/>
</g>
<!-- TopExpressingGenes -->
<g id="node19" class="node">
<title>TopExpressingGenes</title>
<g id="a_node19"><a xlink:title="Top expressing genes for clusters of T cells.">
<polygon fill="#f26419" stroke="transparent" points="131,-487 0,-487 0,-451 131,-451 131,-487"/>
<text text-anchor="middle" x="65.5" y="-465.9" font-family="Helvetica,sans-Serif" font-size="12.00" fill="#ffffff">TopExpressingGenes</text>
</a>
</g>
</g>
<!-- RadarPlots -->
<g id="node20" class="node">
<title>RadarPlots</title>
<polygon fill="#f26419" stroke="transparent" points="536,-196 459,-196 459,-160 536,-160 536,-196"/>
<text text-anchor="middle" x="497.5" y="-174.9" font-family="Helvetica,sans-Serif" font-size="12.00" fill="#ffffff">RadarPlots</text>
</g>
<!-- TESSA&#45;&gt;SeuratMetadataMutater -->
<g id="edge33" class="edge">
<title>TESSA&#45;&gt;SeuratMetadataMutater</title>
<path fill="none" stroke="#3d314a" d="M452.33,-378.7C459.96,-369.8 469.37,-358.82 477.62,-349.2"/>
<polygon fill="#3d314a" stroke="#3d314a" points="479.76,-351 482.84,-343.1 475.51,-347.36 479.76,-351"/>
</g>
<!-- VJUsage -->
<g id="node22" class="node">
<title>VJUsage</title>
<polygon fill="#f26419" stroke="transparent" points="936.5,-631 870.5,-631 870.5,-595 936.5,-595 936.5,-631"/>
<text text-anchor="middle" x="903.5" y="-609.9" font-family="Helvetica,sans-Serif" font-size="12.00" fill="#ffffff">VJUsage</text>
</g>
<!-- SeuratClusterStats -->
<g id="node23" class="node">
<title>SeuratClusterStats</title>
<polygon fill="#f26419" stroke="transparent" points="671,-196 554,-196 554,-160 671,-160 671,-196"/>
<text text-anchor="middle" x="612.5" y="-174.9" font-family="Helvetica,sans-Serif" font-size="12.00" fill="#ffffff">SeuratClusterStats</text>
</g>
<!-- CDR3AAPhyschem -->
<g id="node24" class="node">
<title>CDR3AAPhyschem</title>
<polygon fill="#f26419" stroke="transparent" points="1517,-196 1394,-196 1394,-160 1517,-160 1517,-196"/>
<text text-anchor="middle" x="1455.5" y="-174.9" font-family="Helvetica,sans-Serif" font-size="12.00" fill="#ffffff">CDR3AAPhyschem</text>
</g>
<!-- CellTypeAnnotation&#45;&gt;ModuleScoreCalculator -->
<g id="edge8" class="edge">
<title>CellTypeAnnotation&#45;&gt;ModuleScoreCalculator</title>
<path fill="none" stroke="#3d314a" d="M283.3,-522.7C292.54,-513.71 303.95,-502.61 313.92,-492.92"/>
<polygon fill="#3d314a" stroke="#3d314a" points="316.12,-494.69 319.91,-487.1 312.22,-490.67 316.12,-494.69"/>
</g>
<!-- CellTypeAnnotation&#45;&gt;TopExpressingGenes -->
<g id="edge35" class="edge">
<title>CellTypeAnnotation&#45;&gt;TopExpressingGenes</title>
<path fill="none" stroke="#3d314a" d="M216.83,-522.97C188.28,-512.97 152.07,-500.3 122.23,-489.85"/>
<polygon fill="#3d314a" stroke="#3d314a" points="122.86,-487.11 114.39,-487.11 121.01,-492.4 122.86,-487.11"/>
</g>
<!-- ClusterMarkers -->
<g id="node28" class="node">
<title>ClusterMarkers</title>
<g id="a_node28"><a xlink:title="Markers for clusters of T cells.">
<polygon fill="#f26419" stroke="transparent" points="247.5,-487 149.5,-487 149.5,-451 247.5,-451 247.5,-487"/>
<text text-anchor="middle" x="198.5" y="-465.9" font-family="Helvetica,sans-Serif" font-size="12.00" fill="#ffffff">ClusterMarkers</text>
</a>
</g>
</g>
<!-- CellTypeAnnotation&#45;&gt;ClusterMarkers -->
<g id="edge6" class="edge">
<title>CellTypeAnnotation&#45;&gt;ClusterMarkers</title>
<path fill="none" stroke="#3d314a" d="M248.94,-522.7C240.34,-513.71 229.72,-502.61 220.44,-492.92"/>
<polygon fill="#3d314a" stroke="#3d314a" points="222.43,-490.95 214.87,-487.1 218.38,-494.82 222.43,-490.95"/>
</g>
<!-- TCellSelection&#45;&gt;SeuratClusteringOfTCells -->
<g id="edge29" class="edge">
<title>TCellSelection&#45;&gt;SeuratClusteringOfTCells</title>
<path fill="none" stroke="#3d314a" d="M346.17,-666.7C338.29,-657.8 328.57,-646.82 320.05,-637.2"/>
<polygon fill="#3d314a" stroke="#3d314a" points="322.05,-635.24 314.65,-631.1 317.86,-638.95 322.05,-635.24"/>
</g>
<!-- SampleInfo -->
<g id="node27" class="node">
<title>SampleInfo</title>
<g id="a_node27"><a xlink:title="List sample information and perform statistics">
<polygon fill="#4c956c" stroke="transparent" points="465.5,-919 398.43,-901 465.5,-883 532.57,-901 465.5,-919"/>
<text text-anchor="middle" x="465.5" y="-897.9" font-family="Helvetica,sans-Serif" font-size="12.00" fill="#ffffff">SampleInfo</text>
</a>
</g>
</g>
<!-- SampleInfo&#45;&gt;SeuratPreparing -->
<g id="edge19" class="edge">
<title>SampleInfo&#45;&gt;SeuratPreparing</title>
<path fill="none" stroke="#3d314a" d="M457.02,-885.15C451.89,-876.18 445.22,-864.52 439.35,-854.23"/>
<polygon fill="#3d314a" stroke="#3d314a" points="441.64,-852.6 435.24,-847.04 436.78,-855.38 441.64,-852.6"/>
</g>
<!-- ImmunarchLoading -->
<g id="node32" class="node">
<title>ImmunarchLoading</title>
<path fill="#219ebc" stroke="transparent" d="M617,-775C617,-775 522,-775 522,-775 516,-775 510,-769 510,-763 510,-763 510,-751 510,-751 510,-745 516,-739 522,-739 522,-739 617,-739 617,-739 623,-739 629,-745 629,-751 629,-751 629,-763 629,-763 629,-769 623,-775 617,-775"/>
<text text-anchor="middle" x="569.5" y="-753.9" font-family="Helvetica,sans-Serif" font-size="12.00" fill="#ffffff">ImmunarchLoading</text>
</g>
<!-- SampleInfo&#45;&gt;ImmunarchLoading -->
<g id="edge9" class="edge">
<title>SampleInfo&#45;&gt;ImmunarchLoading</title>
<path fill="none" stroke="#3d314a" d="M476.04,-885.6C493.92,-861.19 530.36,-811.44 552.08,-781.79"/>
<polygon fill="#3d314a" stroke="#3d314a" points="554.53,-783.17 557,-775.07 550.02,-779.87 554.53,-783.17"/>
</g>
<!-- CloneResidency -->
<g id="node29" class="node">
<title>CloneResidency</title>
<polygon fill="#f26419" stroke="transparent" points="819.5,-703 713.5,-703 713.5,-667 819.5,-667 819.5,-703"/>
<text text-anchor="middle" x="766.5" y="-681.9" font-family="Helvetica,sans-Serif" font-size="12.00" fill="#ffffff">CloneResidency</text>
</g>
<!-- TCRClusters2Seurat&#45;&gt;MetabolicInput -->
<g id="edge15" class="edge">
<title>TCRClusters2Seurat&#45;&gt;MetabolicInput</title>
<path fill="none" stroke="#3d314a" d="M561.8,-245.34C597.04,-241.16 641.39,-235.03 680.5,-227 720.57,-218.77 765.02,-206.46 798.96,-196.36"/>
<polygon fill="#3d314a" stroke="#3d314a" points="800.05,-198.96 806.91,-193.98 798.44,-193.59 800.05,-198.96"/>
</g>
<!-- TCRClusters2Seurat&#45;&gt;ScFGSEA -->
<g id="edge30" class="edge">
<title>TCRClusters2Seurat&#45;&gt;ScFGSEA</title>
<path fill="none" stroke="#3d314a" d="M433.12,-250.43C330.36,-247.54 137.92,-240.42 109.5,-227 98.2,-221.66 88.33,-212.12 80.74,-202.94"/>
<polygon fill="#3d314a" stroke="#3d314a" points="82.76,-200.97 75.63,-196.38 78.34,-204.41 82.76,-200.97"/>
</g>
<!-- TCRClusters2Seurat&#45;&gt;CellsDistribution -->
<g id="edge16" class="edge">
<title>TCRClusters2Seurat&#45;&gt;CellsDistribution</title>
<path fill="none" stroke="#3d314a" d="M433.32,-250.01C367.08,-247.24 268.61,-240.88 233.5,-227 219,-221.27 205.07,-211.06 194.09,-201.52"/>
<polygon fill="#3d314a" stroke="#3d314a" points="195.81,-199.3 187.99,-196.03 192.06,-203.46 195.81,-199.3"/>
</g>
<!-- TCRClusters2Seurat&#45;&gt;MarkersFinder -->
<g id="edge25" class="edge">
<title>TCRClusters2Seurat&#45;&gt;MarkersFinder</title>
<path fill="none" stroke="#3d314a" d="M433.47,-249.21C405.43,-246.07 372.77,-239.7 345.5,-227 332.62,-221 320.38,-211.18 310.65,-201.99"/>
<polygon fill="#3d314a" stroke="#3d314a" points="312.61,-199.98 304.93,-196.38 308.69,-203.98 312.61,-199.98"/>
</g>
<!-- TCRClusters2Seurat&#45;&gt;MetaMarkers -->
<g id="edge22" class="edge">
<title>TCRClusters2Seurat&#45;&gt;MetaMarkers</title>
<path fill="none" stroke="#3d314a" d="M462,-234.88C457.68,-232.41 453.42,-229.76 449.5,-227 439.05,-219.65 428.51,-210.35 419.67,-201.9"/>
<polygon fill="#3d314a" stroke="#3d314a" points="421.53,-199.8 413.85,-196.22 417.62,-203.81 421.53,-199.8"/>
</g>
<!-- TCRClusters2Seurat&#45;&gt;RadarPlots -->
<g id="edge10" class="edge">
<title>TCRClusters2Seurat&#45;&gt;RadarPlots</title>
<path fill="none" stroke="#3d314a" d="M497.5,-234.7C497.5,-225.61 497.5,-214.3 497.5,-204.25"/>
<polygon fill="#3d314a" stroke="#3d314a" points="500.3,-204.18 497.5,-196.18 494.7,-204.18 500.3,-204.18"/>
</g>
<!-- TCRClusters2Seurat&#45;&gt;SeuratClusterStats -->
<g id="edge36" class="edge">
<title>TCRClusters2Seurat&#45;&gt;SeuratClusterStats</title>
<path fill="none" stroke="#3d314a" d="M530.92,-234.89C535.53,-232.34 540.17,-229.66 544.5,-227 557.46,-219.02 571.27,-209.48 583.03,-201.02"/>
<polygon fill="#3d314a" stroke="#3d314a" points="584.87,-203.14 589.7,-196.18 581.58,-198.61 584.87,-203.14"/>
</g>
<!-- TCRClusters2Seurat&#45;&gt;CDR3AAPhyschem -->
<g id="edge7" class="edge">
<title>TCRClusters2Seurat&#45;&gt;CDR3AAPhyschem</title>
<path fill="none" stroke="#3d314a" d="M561.57,-250.45C764.4,-245.53 1379.7,-230.34 1389.5,-227 1405.12,-221.68 1420.18,-211.27 1431.96,-201.5"/>
<polygon fill="#3d314a" stroke="#3d314a" points="1433.92,-203.51 1438.16,-196.17 1430.26,-199.27 1433.92,-203.51"/>
</g>
<!-- Immunarch2VDJtools -->
<g id="node31" class="node">
<title>Immunarch2VDJtools</title>
<path fill="#219ebc" stroke="transparent" d="M957,-703C957,-703 850,-703 850,-703 844,-703 838,-697 838,-691 838,-691 838,-679 838,-679 838,-673 844,-667 850,-667 850,-667 957,-667 957,-667 963,-667 969,-673 969,-679 969,-679 969,-691 969,-691 969,-697 963,-703 957,-703"/>
<text text-anchor="middle" x="903.5" y="-681.9" font-family="Helvetica,sans-Serif" font-size="12.00" fill="#ffffff">Immunarch2VDJtools</text>
</g>
<!-- Immunarch2VDJtools&#45;&gt;VJUsage -->
<g id="edge12" class="edge">
<title>Immunarch2VDJtools&#45;&gt;VJUsage</title>
<path fill="none" stroke="#3d314a" d="M903.5,-666.7C903.5,-658.39 903.5,-648.28 903.5,-639.14"/>
<polygon fill="#3d314a" stroke="#3d314a" points="906.3,-639.1 903.5,-631.1 900.7,-639.1 906.3,-639.1"/>
</g>
<!-- ImmunarchLoading&#45;&gt;SeuratMetadataMutater -->
<g id="edge20" class="edge">
<title>ImmunarchLoading&#45;&gt;SeuratMetadataMutater</title>
<path fill="none" stroke="#3d314a" d="M568.69,-738.81C567.05,-702.48 563.5,-615.22 563.5,-542 563.5,-542 563.5,-542 563.5,-468 563.5,-422.89 535.77,-376.6 516.26,-349.61"/>
<polygon fill="#3d314a" stroke="#3d314a" points="518.51,-347.94 511.5,-343.18 514.01,-351.27 518.51,-347.94"/>
</g>
<!-- ImmunarchLoading&#45;&gt;TCRClustering -->
<g id="edge17" class="edge">
<title>ImmunarchLoading&#45;&gt;TCRClustering</title>
<path fill="none" stroke="#3d314a" d="M588.53,-738.7C598.51,-729.63 610.86,-718.4 621.58,-708.65"/>
<polygon fill="#3d314a" stroke="#3d314a" points="623.65,-710.56 627.69,-703.1 619.88,-706.41 623.65,-710.56"/>
</g>
<!-- ImmunarchLoading&#45;&gt;Immunarch -->
<g id="edge26" class="edge">
<title>ImmunarchLoading&#45;&gt;Immunarch</title>
<path fill="none" stroke="#3d314a" d="M553.19,-738.7C544.79,-729.8 534.45,-718.82 525.37,-709.2"/>
<polygon fill="#3d314a" stroke="#3d314a" points="527.15,-707 519.63,-703.1 523.08,-710.85 527.15,-707"/>
</g>
<!-- ImmunarchLoading&#45;&gt;TESSA -->
<g id="edge27" class="edge">
<title>ImmunarchLoading&#45;&gt;TESSA</title>
<path fill="none" stroke="#3d314a" d="M509.77,-739.85C490.17,-731.77 469.98,-719.97 456.5,-703 431.34,-671.33 437.5,-654.45 437.5,-614 437.5,-614 437.5,-614 437.5,-540 437.5,-499.11 437.5,-451.61 437.5,-423.22"/>
<polygon fill="#3d314a" stroke="#3d314a" points="440.3,-423.05 437.5,-415.05 434.7,-423.05 440.3,-423.05"/>
</g>
<!-- ImmunarchLoading&#45;&gt;CDR3AAPhyschem -->
<g id="edge28" class="edge">
<title>ImmunarchLoading&#45;&gt;CDR3AAPhyschem</title>
<path fill="none" stroke="#3d314a" d="M629.23,-755.77C791.7,-753.54 1229.5,-736.19 1229.5,-614 1229.5,-614 1229.5,-614 1229.5,-324 1229.5,-240.84 1320.26,-273.05 1389.5,-227 1401.83,-218.8 1415.09,-209.3 1426.46,-200.92"/>
<polygon fill="#3d314a" stroke="#3d314a" points="1428.16,-203.15 1432.92,-196.14 1424.83,-198.65 1428.16,-203.15"/>
</g>
<!-- ImmunarchLoading&#45;&gt;TCellSelection -->
<g id="edge21" class="edge">
<title>ImmunarchLoading&#45;&gt;TCellSelection</title>
<path fill="none" stroke="#3d314a" d="M518.88,-738.97C488.29,-728.67 449.23,-715.53 417.68,-704.91"/>
<polygon fill="#3d314a" stroke="#3d314a" points="418.31,-702.16 409.83,-702.27 416.52,-707.47 418.31,-702.16"/>
</g>
<!-- ImmunarchLoading&#45;&gt;CloneResidency -->
<g id="edge13" class="edge">
<title>ImmunarchLoading&#45;&gt;CloneResidency</title>
<path fill="none" stroke="#3d314a" d="M617.44,-738.97C645.56,-728.97 681.23,-716.3 710.63,-705.85"/>
<polygon fill="#3d314a" stroke="#3d314a" points="711.74,-708.43 718.35,-703.11 709.87,-703.15 711.74,-708.43"/>
</g>
<!-- ImmunarchLoading&#45;&gt;Immunarch2VDJtools -->
<g id="edge32" class="edge">
<title>ImmunarchLoading&#45;&gt;Immunarch2VDJtools</title>
<path fill="none" stroke="#3d314a" d="M629.24,-744.15C681.78,-733.63 760.3,-717.7 828.5,-703 828.88,-702.92 829.25,-702.84 829.63,-702.76"/>
<polygon fill="#3d314a" stroke="#3d314a" points="830.45,-705.44 837.67,-701 829.25,-699.97 830.45,-705.44"/>
</g>
</g>
</svg>
