<svg width="1517" height="893" viewBox="0.00 0.00 1517.00 893.00" xmlns="http://www.w3.org/2000/svg" xmlns:xlink="http://www.w3.org/1999/xlink">
<g id="graph0" class="graph" transform="scale(1 1) rotate(0) translate(4 889)">
<title>Immunopipe</title>
<polygon fill="#FFFFFF" stroke="#000000" points="-4,4 -4,-889 1513,-889 1513,4 -4,4" stroke-opacity="0"></polygon>
<text text-anchor="middle" x="754.5" y="-869.8" font-family="Helvetica,sans-Serif" font-size="14.00">Immunopipe</text>
<text text-anchor="middle" x="754.5" y="-854.8" font-family="Helvetica,sans-Serif" font-size="14.00"> </text>
<g id="clust1" class="cluster">
<title>cluster_ScrnaMetabolicLandscape</title>
<polygon fill="#EEEEEE" stroke="#EEEEEE" points="8,-8 8,-227 714,-227 714,-8 8,-8"></polygon>
<text text-anchor="middle" x="96" y="-211.8" font-family="Helvetica,sans-Serif" font-size="14.00">ScrnaMetabolicLandscape</text>
</g>
<!-- MetabolicInput -->
<g id="node1" class="node">
<title>MetabolicInput</title>
<g id="a_node1"><a xlink:title="Input for the metabolic pathway analysis pipeline for scRNA-seq data">
<path fill="#219EBC" stroke="#000000" d="M602.5,-196C602.5,-196 531.5,-196 531.5,-196 525.5,-196 519.5,-190 519.5,-184 519.5,-184 519.5,-172 519.5,-172 519.5,-166 525.5,-160 531.5,-160 531.5,-160 602.5,-160 602.5,-160 608.5,-160 614.5,-166 614.5,-172 614.5,-172 614.5,-184 614.5,-184 614.5,-190 608.5,-196 602.5,-196" stroke-opacity="0"></path>
<text text-anchor="middle" x="567" y="-174.9" font-family="Helvetica,sans-Serif" font-size="12.00" fill="#FFFFFF">MetabolicInput</text>
</a>
</g>
</g>
<!-- MetabolicExprImpution -->
<g id="node2" class="node">
<title>MetabolicExprImpution</title>
<g id="a_node2"><a xlink:title="Impute the dropout values in scRNA-seq data.">
<path fill="#219EBC" stroke="#000000" d="M534.5,-124C534.5,-124 419.5,-124 419.5,-124 413.5,-124 407.5,-118 407.5,-112 407.5,-112 407.5,-100 407.5,-100 407.5,-94 413.5,-88 419.5,-88 419.5,-88 534.5,-88 534.5,-88 540.5,-88 546.5,-94 546.5,-100 546.5,-100 546.5,-112 546.5,-112 546.5,-118 540.5,-124 534.5,-124" stroke-opacity="0"></path>
<text text-anchor="middle" x="477" y="-102.9" font-family="Helvetica,sans-Serif" font-size="12.00" fill="#FFFFFF">MetabolicExprImpution</text>
</a>
</g>
</g>
<!-- MetabolicInput&#45;&gt;MetabolicExprImpution -->
<g id="edge3" class="edge">
<title>MetabolicInput-&gt;MetabolicExprImpution</title>
<path fill="none" stroke="#3D314A" d="M544.75,-159.7C532.87,-150.46 518.12,-138.98 505.42,-129.11"></path>
<polygon fill="#3D314A" stroke="#3D314A" points="507.03,-126.81 498.99,-124.1 503.59,-131.23 507.03,-126.81"></polygon>
</g>
<!-- MetabolicFeaturesIntraSubset -->
<g id="node3" class="node">
<title>MetabolicFeaturesIntraSubset</title>
<g id="a_node3"><a xlink:title="Intra-subset metabolic features - Enrichment analysis in details">
<polygon fill="#F26419" stroke="#000000" points="192,-52 16,-52 16,-16 192,-16 192,-52" stroke-opacity="0"></polygon>
<text text-anchor="middle" x="104" y="-30.9" font-family="Helvetica,sans-Serif" font-size="12.00" fill="#FFFFFF">MetabolicFeaturesIntraSubset</text>
</a>
</g>
</g>
<!-- MetabolicExprImpution&#45;&gt;MetabolicFeaturesIntraSubset -->
<g id="edge5" class="edge">
<title>MetabolicExprImpution-&gt;MetabolicFeaturesIntraSubset</title>
<path fill="none" stroke="#3D314A" d="M407.28,-91.92C348.94,-80.97 265.1,-65.23 200.34,-53.08"></path>
<polygon fill="#3D314A" stroke="#3D314A" points="200.52,-50.27 192.14,-51.54 199.49,-55.77 200.52,-50.27"></polygon>
</g>
<!-- MetabolicPathwayActivity -->
<g id="node4" class="node">
<title>MetabolicPathwayActivity</title>
<g id="a_node4"><a xlink:title="Pathway activities for each group">
<polygon fill="#F26419" stroke="#000000" points="363.5,-52 210.5,-52 210.5,-16 363.5,-16 363.5,-52" stroke-opacity="0"></polygon>
<text text-anchor="middle" x="287" y="-30.9" font-family="Helvetica,sans-Serif" font-size="12.00" fill="#FFFFFF">MetabolicPathwayActivity</text>
</a>
</g>
</g>
<!-- MetabolicExprImpution&#45;&gt;MetabolicPathwayActivity -->
<g id="edge1" class="edge">
<title>MetabolicExprImpution-&gt;MetabolicPathwayActivity</title>
<path fill="none" stroke="#3D314A" d="M430.52,-87.88C403.51,-77.92 369.34,-65.34 341.12,-54.94"></path>
<polygon fill="#3D314A" stroke="#3D314A" points="341.8,-52.21 333.33,-52.07 339.87,-57.46 341.8,-52.21"></polygon>
</g>
<!-- MetabolicPathwayHeterogeneity -->
<g id="node5" class="node">
<title>MetabolicPathwayHeterogeneity</title>
<g id="a_node5"><a xlink:title="Pathway heterogeneity">
<polygon fill="#F26419" stroke="#000000" points="572,-52 382,-52 382,-16 572,-16 572,-52" stroke-opacity="0"></polygon>
<text text-anchor="middle" x="477" y="-30.9" font-family="Helvetica,sans-Serif" font-size="12.00" fill="#FFFFFF">MetabolicPathwayHeterogeneity</text>
</a>
</g>
</g>
<!-- MetabolicExprImpution&#45;&gt;MetabolicPathwayHeterogeneity -->
<g id="edge4" class="edge">
<title>MetabolicExprImpution-&gt;MetabolicPathwayHeterogeneity</title>
<path fill="none" stroke="#3D314A" d="M477,-87.7C477,-79.39 477,-69.28 477,-60.14"></path>
<polygon fill="#3D314A" stroke="#3D314A" points="479.8,-60.1 477,-52.1 474.2,-60.1 479.8,-60.1"></polygon>
</g>
<!-- MetabolicFeatures -->
<g id="node6" class="node">
<title>MetabolicFeatures</title>
<g id="a_node6"><a xlink:title="Inter-subset metabolic features - Enrichment analysis in details">
<polygon fill="#F26419" stroke="#000000" points="706,-52 590,-52 590,-16 706,-16 706,-52" stroke-opacity="0"></polygon>
<text text-anchor="middle" x="648" y="-30.9" font-family="Helvetica,sans-Serif" font-size="12.00" fill="#FFFFFF">MetabolicFeatures</text>
</a>
</g>
</g>
<!-- MetabolicExprImpution&#45;&gt;MetabolicFeatures -->
<g id="edge2" class="edge">
<title>MetabolicExprImpution-&gt;MetabolicFeatures</title>
<path fill="none" stroke="#3D314A" d="M518.83,-87.88C542.94,-78.01 573.37,-65.55 598.64,-55.21"></path>
<polygon fill="#3D314A" stroke="#3D314A" points="599.96,-57.69 606.3,-52.07 597.84,-52.51 599.96,-57.69"></polygon>
</g>
<!-- ClusterMarkers -->
<g id="node7" class="node">
<title>ClusterMarkers</title>
<g id="a_node7"><a xlink:title="Markers for clusters of T cells.">
<polygon fill="#F26419" stroke="#000000" points="800,-415 702,-415 702,-379 800,-379 800,-415" stroke-opacity="0"></polygon>
<text text-anchor="middle" x="751" y="-393.9" font-family="Helvetica,sans-Serif" font-size="12.00" fill="#FFFFFF">ClusterMarkers</text>
</a>
</g>
</g>
<!-- CellsDistribution -->
<g id="node8" class="node">
<title>CellsDistribution</title>
<polygon fill="#F26419" stroke="#000000" points="827.5,-196 722.5,-196 722.5,-160 827.5,-160 827.5,-196" stroke-opacity="0"></polygon>
<text text-anchor="middle" x="775" y="-174.9" font-family="Helvetica,sans-Serif" font-size="12.00" fill="#FFFFFF">CellsDistribution</text>
</g>
<!-- SeuratPreparing -->
<g id="node9" class="node">
<title>SeuratPreparing</title>
<path fill="#219EBC" stroke="#000000" d="M1004,-775C1004,-775 924,-775 924,-775 918,-775 912,-769 912,-763 912,-763 912,-751 912,-751 912,-745 918,-739 924,-739 924,-739 1004,-739 1004,-739 1010,-739 1016,-745 1016,-751 1016,-751 1016,-763 1016,-763 1016,-769 1010,-775 1004,-775" stroke-opacity="0"></path>
<text text-anchor="middle" x="964" y="-753.9" font-family="Helvetica,sans-Serif" font-size="12.00" fill="#FFFFFF">SeuratPreparing</text>
</g>
<!-- SeuratClusteringOfAllCells -->
<g id="node30" class="node">
<title>SeuratClusteringOfAllCells</title>
<g id="a_node30"><a xlink:title="Cluster all cells using Seurat">
<path fill="#219EBC" stroke="#000000" d="M993.5,-703C993.5,-703 856.5,-703 856.5,-703 850.5,-703 844.5,-697 844.5,-691 844.5,-691 844.5,-679 844.5,-679 844.5,-673 850.5,-667 856.5,-667 856.5,-667 993.5,-667 993.5,-667 999.5,-667 1005.5,-673 1005.5,-679 1005.5,-679 1005.5,-691 1005.5,-691 1005.5,-697 999.5,-703 993.5,-703" stroke-opacity="0"></path>
<text text-anchor="middle" x="925" y="-681.9" font-family="Helvetica,sans-Serif" font-size="12.00" fill="#FFFFFF">SeuratClusteringOfAllCells</text>
</a>
</g>
</g>
<!-- SeuratPreparing&#45;&gt;SeuratClusteringOfAllCells -->
<g id="edge28" class="edge">
<title>SeuratPreparing-&gt;SeuratClusteringOfAllCells</title>
<path fill="none" stroke="#3D314A" d="M954.36,-738.7C949.59,-730.14 943.75,-719.66 938.54,-710.3"></path>
<polygon fill="#3D314A" stroke="#3D314A" points="940.87,-708.73 934.53,-703.1 935.98,-711.46 940.87,-708.73"></polygon>
</g>
<!-- Immunarch2VDJtools -->
<g id="node10" class="node">
<title>Immunarch2VDJtools</title>
<path fill="#219EBC" stroke="#000000" d="M1029.5,-631C1029.5,-631 922.5,-631 922.5,-631 916.5,-631 910.5,-625 910.5,-619 910.5,-619 910.5,-607 910.5,-607 910.5,-601 916.5,-595 922.5,-595 922.5,-595 1029.5,-595 1029.5,-595 1035.5,-595 1041.5,-601 1041.5,-607 1041.5,-607 1041.5,-619 1041.5,-619 1041.5,-625 1035.5,-631 1029.5,-631" stroke-opacity="0"></path>
<text text-anchor="middle" x="976" y="-609.9" font-family="Helvetica,sans-Serif" font-size="12.00" fill="#FFFFFF">Immunarch2VDJtools</text>
</g>
<!-- VJUsage -->
<g id="node16" class="node">
<title>VJUsage</title>
<polygon fill="#F26419" stroke="#000000" points="1009,-559 943,-559 943,-523 1009,-523 1009,-559" stroke-opacity="0"></polygon>
<text text-anchor="middle" x="976" y="-537.9" font-family="Helvetica,sans-Serif" font-size="12.00" fill="#FFFFFF">VJUsage</text>
</g>
<!-- Immunarch2VDJtools&#45;&gt;VJUsage -->
<g id="edge8" class="edge">
<title>Immunarch2VDJtools-&gt;VJUsage</title>
<path fill="none" stroke="#3D314A" d="M976,-594.7C976,-586.39 976,-576.28 976,-567.14"></path>
<polygon fill="#3D314A" stroke="#3D314A" points="978.8,-567.1 976,-559.1 973.2,-567.1 978.8,-567.1"></polygon>
</g>
<!-- TopExpressingGenes -->
<g id="node11" class="node">
<title>TopExpressingGenes</title>
<g id="a_node11"><a xlink:title="Top expressing genes for clusters of T cells.">
<polygon fill="#F26419" stroke="#000000" points="949.5,-415 818.5,-415 818.5,-379 949.5,-379 949.5,-415" stroke-opacity="0"></polygon>
<text text-anchor="middle" x="884" y="-393.9" font-family="Helvetica,sans-Serif" font-size="12.00" fill="#FFFFFF">TopExpressingGenes</text>
</a>
</g>
</g>
<!-- TCRClusteringStats -->
<g id="node12" class="node">
<title>TCRClusteringStats</title>
<polygon fill="#F26419" stroke="#000000" points="1309,-559 1185,-559 1185,-523 1309,-523 1309,-559" stroke-opacity="0"></polygon>
<text text-anchor="middle" x="1247" y="-537.9" font-family="Helvetica,sans-Serif" font-size="12.00" fill="#FFFFFF">TCRClusteringStats</text>
</g>
<!-- ModuleScoreCalculator -->
<g id="node13" class="node">
<title>ModuleScoreCalculator</title>
<path fill="#219EBC" stroke="#000000" d="M1110.5,-415C1110.5,-415 991.5,-415 991.5,-415 985.5,-415 979.5,-409 979.5,-403 979.5,-403 979.5,-391 979.5,-391 979.5,-385 985.5,-379 991.5,-379 991.5,-379 1110.5,-379 1110.5,-379 1116.5,-379 1122.5,-385 1122.5,-391 1122.5,-391 1122.5,-403 1122.5,-403 1122.5,-409 1116.5,-415 1110.5,-415" stroke-opacity="0"></path>
<text text-anchor="middle" x="1051" y="-393.9" font-family="Helvetica,sans-Serif" font-size="12.00" fill="#FFFFFF">ModuleScoreCalculator</text>
</g>
<!-- SeuratMetadataMutater -->
<g id="node21" class="node">
<title>SeuratMetadataMutater</title>
<g id="a_node21"><a xlink:title="Attach TCR clone information as meta columns to Seurat object">
<path fill="#219EBC" stroke="#000000" d="M1162.5,-343C1162.5,-343 1045.5,-343 1045.5,-343 1039.5,-343 1033.5,-337 1033.5,-331 1033.5,-331 1033.5,-319 1033.5,-319 1033.5,-313 1039.5,-307 1045.5,-307 1045.5,-307 1162.5,-307 1162.5,-307 1168.5,-307 1174.5,-313 1174.5,-319 1174.5,-319 1174.5,-331 1174.5,-331 1174.5,-337 1168.5,-343 1162.5,-343" stroke-opacity="0"></path>
<text text-anchor="middle" x="1104" y="-321.9" font-family="Helvetica,sans-Serif" font-size="12.00" fill="#FFFFFF">SeuratMetadataMutater</text>
</a>
</g>
</g>
<!-- ModuleScoreCalculator&#45;&gt;SeuratMetadataMutater -->
<g id="edge12" class="edge">
<title>ModuleScoreCalculator-&gt;SeuratMetadataMutater</title>
<path fill="none" stroke="#3D314A" d="M1064.1,-378.7C1070.71,-369.97 1078.83,-359.24 1086.02,-349.75"></path>
<polygon fill="#3D314A" stroke="#3D314A" points="1088.45,-351.17 1091.05,-343.1 1083.99,-347.79 1088.45,-351.17"></polygon>
</g>
<!-- MetaMarkers -->
<g id="node14" class="node">
<title>MetaMarkers</title>
<polygon fill="#F26419" stroke="#000000" points="932,-196 846,-196 846,-160 932,-160 932,-196" stroke-opacity="0"></polygon>
<text text-anchor="middle" x="889" y="-174.9" font-family="Helvetica,sans-Serif" font-size="12.00" fill="#FFFFFF">MetaMarkers</text>
</g>
<!-- RadarPlots -->
<g id="node15" class="node">
<title>RadarPlots</title>
<polygon fill="#F26419" stroke="#000000" points="1027.5,-196 950.5,-196 950.5,-160 1027.5,-160 1027.5,-196" stroke-opacity="0"></polygon>
<text text-anchor="middle" x="989" y="-174.9" font-family="Helvetica,sans-Serif" font-size="12.00" fill="#FFFFFF">RadarPlots</text>
</g>
<!-- TCellSelection -->
<g id="node17" class="node">
<title>TCellSelection</title>
<path fill="#219EBC" stroke="#000000" d="M880,-631C880,-631 808,-631 808,-631 802,-631 796,-625 796,-619 796,-619 796,-607 796,-607 796,-601 802,-595 808,-595 808,-595 880,-595 880,-595 886,-595 892,-601 892,-607 892,-607 892,-619 892,-619 892,-625 886,-631 880,-631" stroke-opacity="0"></path>
<text text-anchor="middle" x="844" y="-609.9" font-family="Helvetica,sans-Serif" font-size="12.00" fill="#FFFFFF">TCellSelection</text>
</g>
<!-- SeuratClusteringOfTCells -->
<g id="node29" class="node">
<title>SeuratClusteringOfTCells</title>
<g id="a_node29"><a xlink:title="Cluster the T cells selected by `TCellSelection`.">
<path fill="#219EBC" stroke="#000000" d="M911,-559C911,-559 781,-559 781,-559 775,-559 769,-553 769,-547 769,-547 769,-535 769,-535 769,-529 775,-523 781,-523 781,-523 911,-523 911,-523 917,-523 923,-529 923,-535 923,-535 923,-547 923,-547 923,-553 917,-559 911,-559" stroke-opacity="0"></path>
<text text-anchor="middle" x="846" y="-537.9" font-family="Helvetica,sans-Serif" font-size="12.00" fill="#FFFFFF">SeuratClusteringOfTCells</text>
</a>
</g>
</g>
<!-- TCellSelection&#45;&gt;SeuratClusteringOfTCells -->
<g id="edge11" class="edge">
<title>TCellSelection-&gt;SeuratClusteringOfTCells</title>
<path fill="none" stroke="#3D314A" d="M844.49,-594.7C844.73,-586.39 845.02,-576.28 845.28,-567.14"></path>
<polygon fill="#3D314A" stroke="#3D314A" points="848.08,-567.18 845.51,-559.1 842.48,-567.02 848.08,-567.18"></polygon>
</g>
<!-- TCRClusters2Seurat -->
<g id="node18" class="node">
<title>TCRClusters2Seurat</title>
<g id="a_node18"><a xlink:title="Attach TCR clusters as meta columns to Seurat object">
<path fill="#219EBC" stroke="#000000" d="M1156,-271C1156,-271 1052,-271 1052,-271 1046,-271 1040,-265 1040,-259 1040,-259 1040,-247 1040,-247 1040,-241 1046,-235 1052,-235 1052,-235 1156,-235 1156,-235 1162,-235 1168,-241 1168,-247 1168,-247 1168,-259 1168,-259 1168,-265 1162,-271 1156,-271" stroke-opacity="0"></path>
<text text-anchor="middle" x="1104" y="-249.9" font-family="Helvetica,sans-Serif" font-size="12.00" fill="#FFFFFF">TCRClusters2Seurat</text>
</a>
</g>
</g>
<!-- TCRClusters2Seurat&#45;&gt;MetabolicInput -->
<g id="edge33" class="edge">
<title>TCRClusters2Seurat-&gt;MetabolicInput</title>
<path fill="none" stroke="#3D314A" d="M1039.88,-252.8C962.08,-252.65 827.27,-248.76 714,-227 681.1,-220.68 645.36,-209.12 617.35,-198.93"></path>
<polygon fill="#3D314A" stroke="#3D314A" points="618.14,-196.23 609.66,-196.09 616.2,-201.49 618.14,-196.23"></polygon>
</g>
<!-- TCRClusters2Seurat&#45;&gt;CellsDistribution -->
<g id="edge34" class="edge">
<title>TCRClusters2Seurat-&gt;CellsDistribution</title>
<path fill="none" stroke="#3D314A" d="M1039.7,-250.09C972.71,-247.38 872.62,-241.06 837,-227 822.5,-221.27 808.57,-211.07 797.59,-201.53"></path>
<polygon fill="#3D314A" stroke="#3D314A" points="799.31,-199.31 791.49,-196.03 795.56,-203.47 799.31,-199.31"></polygon>
</g>
<!-- TCRClusters2Seurat&#45;&gt;MetaMarkers -->
<g id="edge27" class="edge">
<title>TCRClusters2Seurat-&gt;MetaMarkers</title>
<path fill="none" stroke="#3D314A" d="M1039.96,-250.63C1009.1,-247.88 972.32,-241.44 942,-227 929.68,-221.13 918.17,-211.45 909.04,-202.32"></path>
<polygon fill="#3D314A" stroke="#3D314A" points="910.96,-200.28 903.41,-196.44 906.92,-204.15 910.96,-200.28"></polygon>
</g>
<!-- TCRClusters2Seurat&#45;&gt;RadarPlots -->
<g id="edge22" class="edge">
<title>TCRClusters2Seurat-&gt;RadarPlots</title>
<path fill="none" stroke="#3D314A" d="M1051.36,-234.87C1046.36,-232.51 1041.49,-229.89 1037,-227 1026.63,-220.33 1016.72,-211.1 1008.62,-202.51"></path>
<polygon fill="#3D314A" stroke="#3D314A" points="1010.53,-200.44 1003.07,-196.42 1006.39,-204.22 1010.53,-200.44"></polygon>
</g>
<!-- SeuratClusterStats -->
<g id="node23" class="node">
<title>SeuratClusterStats</title>
<polygon fill="#F26419" stroke="#000000" points="1162.5,-196 1045.5,-196 1045.5,-160 1162.5,-160 1162.5,-196" stroke-opacity="0"></polygon>
<text text-anchor="middle" x="1104" y="-174.9" font-family="Helvetica,sans-Serif" font-size="12.00" fill="#FFFFFF">SeuratClusterStats</text>
</g>
<!-- TCRClusters2Seurat&#45;&gt;SeuratClusterStats -->
<g id="edge31" class="edge">
<title>TCRClusters2Seurat-&gt;SeuratClusterStats</title>
<path fill="none" stroke="#3D314A" d="M1104,-234.7C1104,-225.61 1104,-214.3 1104,-204.25"></path>
<polygon fill="#3D314A" stroke="#3D314A" points="1106.8,-204.18 1104,-196.18 1101.2,-204.18 1106.8,-204.18"></polygon>
</g>
<!-- CDR3AAPhyschem -->
<g id="node26" class="node">
<title>CDR3AAPhyschem</title>
<polygon fill="#F26419" stroke="#000000" points="1506.5,-196 1383.5,-196 1383.5,-160 1506.5,-160 1506.5,-196" stroke-opacity="0"></polygon>
<text text-anchor="middle" x="1445" y="-174.9" font-family="Helvetica,sans-Serif" font-size="12.00" fill="#FFFFFF">CDR3AAPhyschem</text>
</g>
<!-- TCRClusters2Seurat&#45;&gt;CDR3AAPhyschem -->
<g id="edge23" class="edge">
<title>TCRClusters2Seurat-&gt;CDR3AAPhyschem</title>
<path fill="none" stroke="#3D314A" d="M1168.23,-249.73C1235.84,-246.68 1337.43,-240.08 1374,-227 1390.34,-221.16 1406.54,-210.67 1419.32,-200.99"></path>
<polygon fill="#3D314A" stroke="#3D314A" points="1421.1,-203.15 1425.68,-196.02 1417.65,-198.74 1421.1,-203.15"></polygon>
</g>
<!-- ScFGSEA -->
<g id="node27" class="node">
<title>ScFGSEA</title>
<polygon fill="#F26419" stroke="#000000" points="1253,-196 1181,-196 1181,-160 1253,-160 1253,-196" stroke-opacity="0"></polygon>
<text text-anchor="middle" x="1217" y="-174.9" font-family="Helvetica,sans-Serif" font-size="12.00" fill="#FFFFFF">ScFGSEA</text>
</g>
<!-- TCRClusters2Seurat&#45;&gt;ScFGSEA -->
<g id="edge17" class="edge">
<title>TCRClusters2Seurat-&gt;ScFGSEA</title>
<path fill="none" stroke="#3D314A" d="M1157.88,-234.91C1162.81,-232.55 1167.6,-229.92 1172,-227 1182.12,-220.3 1191.58,-210.9 1199.2,-202.19"></path>
<polygon fill="#3D314A" stroke="#3D314A" points="1201.39,-203.94 1204.4,-196.02 1197.11,-200.33 1201.39,-203.94"></polygon>
</g>
<!-- MarkersFinder -->
<g id="node31" class="node">
<title>MarkersFinder</title>
<polygon fill="#F26419" stroke="#000000" points="1365,-196 1271,-196 1271,-160 1365,-160 1365,-196" stroke-opacity="0"></polygon>
<text text-anchor="middle" x="1318" y="-174.9" font-family="Helvetica,sans-Serif" font-size="12.00" fill="#FFFFFF">MarkersFinder</text>
</g>
<!-- TCRClusters2Seurat&#45;&gt;MarkersFinder -->
<g id="edge9" class="edge">
<title>TCRClusters2Seurat-&gt;MarkersFinder</title>
<path fill="none" stroke="#3D314A" d="M1168.22,-249.83C1197.88,-246.86 1232.88,-240.45 1262,-227 1274.9,-221.04 1287.14,-211.23 1296.86,-202.02"></path>
<polygon fill="#3D314A" stroke="#3D314A" points="1298.83,-204.01 1302.58,-196.41 1294.91,-200.02 1298.83,-204.01"></polygon>
</g>
<!-- Immunarch -->
<g id="node19" class="node">
<title>Immunarch</title>
<polygon fill="#F26419" stroke="#000000" points="1136,-631 1060,-631 1060,-595 1136,-595 1136,-631" stroke-opacity="0"></polygon>
<text text-anchor="middle" x="1098" y="-609.9" font-family="Helvetica,sans-Serif" font-size="12.00" fill="#FFFFFF">Immunarch</text>
</g>
<!-- CellTypeAnnotation -->
<g id="node20" class="node">
<title>CellTypeAnnotation</title>
<path fill="#219EBC" stroke="#000000" d="M920,-487C920,-487 822,-487 822,-487 816,-487 810,-481 810,-475 810,-475 810,-463 810,-463 810,-457 816,-451 822,-451 822,-451 920,-451 920,-451 926,-451 932,-457 932,-463 932,-463 932,-475 932,-475 932,-481 926,-487 920,-487" stroke-opacity="0"></path>
<text text-anchor="middle" x="871" y="-465.9" font-family="Helvetica,sans-Serif" font-size="12.00" fill="#FFFFFF">CellTypeAnnotation</text>
</g>
<!-- CellTypeAnnotation&#45;&gt;ClusterMarkers -->
<g id="edge7" class="edge">
<title>CellTypeAnnotation-&gt;ClusterMarkers</title>
<path fill="none" stroke="#3D314A" d="M841.64,-450.88C825.37,-441.38 804.99,-429.5 787.68,-419.4"></path>
<polygon fill="#3D314A" stroke="#3D314A" points="788.79,-416.8 780.47,-415.19 785.97,-421.64 788.79,-416.8"></polygon>
</g>
<!-- CellTypeAnnotation&#45;&gt;TopExpressingGenes -->
<g id="edge6" class="edge">
<title>CellTypeAnnotation-&gt;TopExpressingGenes</title>
<path fill="none" stroke="#3D314A" d="M874.21,-450.7C875.76,-442.39 877.63,-432.28 879.33,-423.14"></path>
<polygon fill="#3D314A" stroke="#3D314A" points="882.12,-423.48 880.82,-415.1 876.61,-422.46 882.12,-423.48"></polygon>
</g>
<!-- CellTypeAnnotation&#45;&gt;ModuleScoreCalculator -->
<g id="edge10" class="edge">
<title>CellTypeAnnotation-&gt;ModuleScoreCalculator</title>
<path fill="none" stroke="#3D314A" d="M915.03,-450.88C940.51,-440.97 972.72,-428.44 999.39,-418.07"></path>
<polygon fill="#3D314A" stroke="#3D314A" points="1000.67,-420.58 1007.11,-415.07 998.64,-415.36 1000.67,-420.58"></polygon>
</g>
<!-- SeuratMetadataMutater&#45;&gt;TCRClusters2Seurat -->
<g id="edge21" class="edge">
<title>SeuratMetadataMutater-&gt;TCRClusters2Seurat</title>
<path fill="none" stroke="#3D314A" d="M1104,-306.7C1104,-298.39 1104,-288.28 1104,-279.14"></path>
<polygon fill="#3D314A" stroke="#3D314A" points="1106.8,-279.1 1104,-271.1 1101.2,-279.1 1106.8,-279.1"></polygon>
</g>
<!-- TCRClustering -->
<g id="node22" class="node">
<title>TCRClustering</title>
<g id="a_node22"><a xlink:title="Cluster the TCR clones by their CDR3 sequences">
<path fill="#219EBC" stroke="#000000" d="M1283.5,-631C1283.5,-631 1210.5,-631 1210.5,-631 1204.5,-631 1198.5,-625 1198.5,-619 1198.5,-619 1198.5,-607 1198.5,-607 1198.5,-601 1204.5,-595 1210.5,-595 1210.5,-595 1283.5,-595 1283.5,-595 1289.5,-595 1295.5,-601 1295.5,-607 1295.5,-607 1295.5,-619 1295.5,-619 1295.5,-625 1289.5,-631 1283.5,-631" stroke-opacity="0"></path>
<text text-anchor="middle" x="1247" y="-609.9" font-family="Helvetica,sans-Serif" font-size="12.00" fill="#FFFFFF">TCRClustering</text>
</a>
</g>
</g>
<!-- TCRClustering&#45;&gt;TCRClusteringStats -->
<g id="edge16" class="edge">
<title>TCRClustering-&gt;TCRClusteringStats</title>
<path fill="none" stroke="#3D314A" d="M1247,-594.7C1247,-586.39 1247,-576.28 1247,-567.14"></path>
<polygon fill="#3D314A" stroke="#3D314A" points="1249.8,-567.1 1247,-559.1 1244.2,-567.1 1249.8,-567.1"></polygon>
</g>
<!-- TCRClustering&#45;&gt;TCRClusters2Seurat -->
<g id="edge19" class="edge">
<title>TCRClustering-&gt;TCRClusters2Seurat</title>
<path fill="none" stroke="#3D314A" d="M1279.57,-594.8C1293.42,-585.89 1308.54,-573.76 1318,-559 1339.82,-524.95 1337,-510.45 1337,-470 1337,-470 1337,-470 1337,-396 1337,-319.6 1244.52,-283.1 1176.08,-266.55"></path>
<polygon fill="#3D314A" stroke="#3D314A" points="1176.71,-263.83 1168.29,-264.73 1175.44,-269.28 1176.71,-263.83"></polygon>
</g>
<!-- ImmunarchLoading -->
<g id="node24" class="node">
<title>ImmunarchLoading</title>
<path fill="#219EBC" stroke="#000000" d="M1178.5,-703C1178.5,-703 1083.5,-703 1083.5,-703 1077.5,-703 1071.5,-697 1071.5,-691 1071.5,-691 1071.5,-679 1071.5,-679 1071.5,-673 1077.5,-667 1083.5,-667 1083.5,-667 1178.5,-667 1178.5,-667 1184.5,-667 1190.5,-673 1190.5,-679 1190.5,-679 1190.5,-691 1190.5,-691 1190.5,-697 1184.5,-703 1178.5,-703" stroke-opacity="0"></path>
<text text-anchor="middle" x="1131" y="-681.9" font-family="Helvetica,sans-Serif" font-size="12.00" fill="#FFFFFF">ImmunarchLoading</text>
</g>
<!-- ImmunarchLoading&#45;&gt;Immunarch2VDJtools -->
<g id="edge18" class="edge">
<title>ImmunarchLoading-&gt;Immunarch2VDJtools</title>
<path fill="none" stroke="#3D314A" d="M1093.08,-666.88C1071.42,-657.09 1044.12,-644.77 1021.33,-634.47"></path>
<polygon fill="#3D314A" stroke="#3D314A" points="1022.24,-631.81 1013.79,-631.07 1019.93,-636.91 1022.24,-631.81"></polygon>
</g>
<!-- ImmunarchLoading&#45;&gt;TCellSelection -->
<g id="edge29" class="edge">
<title>ImmunarchLoading-&gt;TCellSelection</title>
<path fill="none" stroke="#3D314A" d="M1071.46,-671.21C1025.1,-661.01 959.24,-646 902,-631 901.29,-630.81 900.57,-630.63 899.86,-630.43"></path>
<polygon fill="#3D314A" stroke="#3D314A" points="900.5,-627.71 892.05,-628.31 899.03,-633.11 900.5,-627.71"></polygon>
</g>
<!-- ImmunarchLoading&#45;&gt;Immunarch -->
<g id="edge15" class="edge">
<title>ImmunarchLoading-&gt;Immunarch</title>
<path fill="none" stroke="#3D314A" d="M1122.84,-666.7C1118.85,-658.22 1113.96,-647.86 1109.59,-638.58"></path>
<polygon fill="#3D314A" stroke="#3D314A" points="1112.01,-637.15 1106.06,-631.1 1106.94,-639.53 1112.01,-637.15"></polygon>
</g>
<!-- ImmunarchLoading&#45;&gt;SeuratMetadataMutater -->
<g id="edge20" class="edge">
<title>ImmunarchLoading-&gt;SeuratMetadataMutater</title>
<path fill="none" stroke="#3D314A" d="M1136.82,-666.56C1139.93,-656.33 1143.43,-643.08 1145,-631 1147.06,-615.13 1145.48,-610.99 1145,-595 1142.11,-498.87 1157.94,-471.61 1132,-379 1129.24,-369.14 1124.46,-359.02 1119.62,-350.31"></path>
<polygon fill="#3D314A" stroke="#3D314A" points="1122.03,-348.87 1115.59,-343.35 1117.18,-351.68 1122.03,-348.87"></polygon>
</g>
<!-- ImmunarchLoading&#45;&gt;TCRClustering -->
<g id="edge13" class="edge">
<title>ImmunarchLoading-&gt;TCRClustering</title>
<path fill="none" stroke="#3D314A" d="M1159.38,-666.88C1175.11,-657.38 1194.81,-645.5 1211.54,-635.4"></path>
<polygon fill="#3D314A" stroke="#3D314A" points="1213.11,-637.72 1218.51,-631.19 1210.22,-632.93 1213.11,-637.72"></polygon>
</g>
<!-- ImmunarchLoading&#45;&gt;CDR3AAPhyschem -->
<g id="edge30" class="edge">
<title>ImmunarchLoading-&gt;CDR3AAPhyschem</title>
<path fill="none" stroke="#3D314A" d="M1190.69,-675.76C1262.92,-662.03 1375,-627.04 1375,-542 1375,-542 1375,-542 1375,-324 1375,-277.36 1404.74,-229.92 1425.45,-202.53"></path>
<polygon fill="#3D314A" stroke="#3D314A" points="1427.81,-204.06 1430.5,-196.02 1423.38,-200.63 1427.81,-204.06"></polygon>
</g>
<!-- CloneResidency -->
<g id="node28" class="node">
<title>CloneResidency</title>
<polygon fill="#F26419" stroke="#000000" points="1509,-631 1403,-631 1403,-595 1509,-595 1509,-631" stroke-opacity="0"></polygon>
<text text-anchor="middle" x="1456" y="-609.9" font-family="Helvetica,sans-Serif" font-size="12.00" fill="#FFFFFF">CloneResidency</text>
</g>
<!-- ImmunarchLoading&#45;&gt;CloneResidency -->
<g id="edge25" class="edge">
<title>ImmunarchLoading-&gt;CloneResidency</title>
<path fill="none" stroke="#3D314A" d="M1190.6,-672.56C1243,-662.31 1321.26,-646.54 1389,-631 1390.81,-630.59 1392.64,-630.16 1394.48,-629.72"></path>
<polygon fill="#3D314A" stroke="#3D314A" points="1395.53,-632.35 1402.66,-627.77 1394.23,-626.91 1395.53,-632.35"></polygon>
</g>
<!-- SampleInfo -->
<g id="node25" class="node">
<title>SampleInfo</title>
<g id="a_node25"><a xlink:title="List sample information and perform statistics">
<polygon fill="#4C956C" stroke="#000000" points="1004,-847 936.93,-829 1004,-811 1071.07,-829 1004,-847" stroke-opacity="0"></polygon>
<text text-anchor="middle" x="1004" y="-825.9" font-family="Helvetica,sans-Serif" font-size="12.00" fill="#FFFFFF">SampleInfo</text>
</a>
</g>
</g>
<!-- SampleInfo&#45;&gt;SeuratPreparing -->
<g id="edge32" class="edge">
<title>SampleInfo-&gt;SeuratPreparing</title>
<path fill="none" stroke="#3D314A" d="M995.52,-813.15C990.39,-804.18 983.72,-792.52 977.85,-782.23"></path>
<polygon fill="#3D314A" stroke="#3D314A" points="980.14,-780.6 973.74,-775.04 975.28,-783.38 980.14,-780.6"></polygon>
</g>
<!-- SampleInfo&#45;&gt;ImmunarchLoading -->
<g id="edge26" class="edge">
<title>SampleInfo-&gt;ImmunarchLoading</title>
<path fill="none" stroke="#3D314A" d="M1016.41,-814.13C1038.2,-789.76 1083.56,-739.04 1110.21,-709.24"></path>
<polygon fill="#3D314A" stroke="#3D314A" points="1112.35,-711.05 1115.6,-703.22 1108.18,-707.31 1112.35,-711.05"></polygon>
</g>
<!-- SeuratClusteringOfTCells&#45;&gt;CellTypeAnnotation -->
<g id="edge14" class="edge">
<title>SeuratClusteringOfTCells-&gt;CellTypeAnnotation</title>
<path fill="none" stroke="#3D314A" d="M852.18,-522.7C855.18,-514.3 858.83,-504.07 862.12,-494.86"></path>
<polygon fill="#3D314A" stroke="#3D314A" points="864.84,-495.58 864.89,-487.1 859.56,-493.7 864.84,-495.58"></polygon>
</g>
<!-- SeuratClusteringOfAllCells&#45;&gt;TCellSelection -->
<g id="edge24" class="edge">
<title>SeuratClusteringOfAllCells-&gt;TCellSelection</title>
<path fill="none" stroke="#3D314A" d="M904.98,-666.7C894.38,-657.54 881.25,-646.19 869.89,-636.38"></path>
<polygon fill="#3D314A" stroke="#3D314A" points="871.68,-634.22 863.79,-631.1 868.01,-638.45 871.68,-634.22"></polygon>
</g>
</g>
</svg>