<?xml version="1.0" encoding="UTF-8" standalone="no"?>
<!DOCTYPE svg PUBLIC "-//W3C//DTD SVG 1.1//EN"
 "http://www.w3.org/Graphics/SVG/1.1/DTD/svg11.dtd">
<!-- Generated by graphviz version 3.0.0 (20220315.2325)
 -->
<!-- Title: ImmunopipeLocal Pages: 1 -->
<svg width="1715pt" height="965pt"
 viewBox="0.00 0.00 1714.50 965.00" xmlns="http://www.w3.org/2000/svg" xmlns:xlink="http://www.w3.org/1999/xlink">
<g id="graph0" class="graph" transform="scale(1 1) rotate(0) translate(4 961)">
<title>ImmunopipeLocal</title>
<polygon fill="white" stroke="transparent" points="-4,4 -4,-961 1710.5,-961 1710.5,4 -4,4"/>
<text text-anchor="middle" x="853.25" y="-941.8" font-family="Helvetica,sans-Serif" font-size="14.00">ImmunopipeLocal</text>
<text text-anchor="middle" x="853.25" y="-926.8" font-family="Helvetica,sans-Serif" font-size="14.00"> </text>
<g id="clust1" class="cluster">
<title>cluster_ScrnaMetabolicLandscape</title>
<polygon fill="#eeeeee" stroke="#eeeeee" points="350,-8 350,-227 1056,-227 1056,-8 350,-8"/>
<text text-anchor="middle" x="438" y="-211.8" font-family="Helvetica,sans-Serif" font-size="14.00">ScrnaMetabolicLandscape</text>
</g>
<!-- MetabolicFeatures -->
<g id="node1" class="node">
<title>MetabolicFeatures</title>
<g id="a_node1"><a xlink:title="This process performs enrichment analysis for the metabolic pathways for each group in each subset.">
<polygon fill="#f26419" stroke="transparent" points="474,-52 358,-52 358,-16 474,-16 474,-52"/>
<text text-anchor="middle" x="416" y="-30.9" font-family="Helvetica,sans-Serif" font-size="12.00" fill="#ffffff">MetabolicFeatures</text>
</a>
</g>
</g>
<!-- MetabolicPathwayHeterogeneity -->
<g id="node2" class="node">
<title>MetabolicPathwayHeterogeneity</title>
<g id="a_node2"><a xlink:title="Calculate Metabolic Pathway heterogeneity.">
<polygon fill="#f26419" stroke="transparent" points="682,-52 492,-52 492,-16 682,-16 682,-52"/>
<text text-anchor="middle" x="587" y="-30.9" font-family="Helvetica,sans-Serif" font-size="12.00" fill="#ffffff">MetabolicPathwayHeterogeneity</text>
</a>
</g>
</g>
<!-- MetabolicExprImpution -->
<g id="node3" class="node">
<title>MetabolicExprImpution</title>
<g id="a_node3"><a xlink:title="This process imputes the dropout values in scRNA&#45;seq data.">
<path fill="#219ebc" stroke="transparent" d="M845.5,-124C845.5,-124 730.5,-124 730.5,-124 724.5,-124 718.5,-118 718.5,-112 718.5,-112 718.5,-100 718.5,-100 718.5,-94 724.5,-88 730.5,-88 730.5,-88 845.5,-88 845.5,-88 851.5,-88 857.5,-94 857.5,-100 857.5,-100 857.5,-112 857.5,-112 857.5,-118 851.5,-124 845.5,-124"/>
<text text-anchor="middle" x="788" y="-102.9" font-family="Helvetica,sans-Serif" font-size="12.00" fill="#ffffff">MetabolicExprImpution</text>
</a>
</g>
</g>
<!-- MetabolicExprImpution&#45;&gt;MetabolicFeatures -->
<g id="edge5" class="edge">
<title>MetabolicExprImpution&#45;&gt;MetabolicFeatures</title>
<path fill="none" stroke="#3d314a" d="M718.36,-94.45C656.35,-84.69 563.29,-69.14 483,-52 482.63,-51.92 482.27,-51.84 481.9,-51.76"/>
<polygon fill="#3d314a" stroke="#3d314a" points="482.46,-49.02 474.04,-50.02 481.24,-54.49 482.46,-49.02"/>
</g>
<!-- MetabolicExprImpution&#45;&gt;MetabolicPathwayHeterogeneity -->
<g id="edge1" class="edge">
<title>MetabolicExprImpution&#45;&gt;MetabolicPathwayHeterogeneity</title>
<path fill="none" stroke="#3d314a" d="M739.09,-87.97C710.39,-77.97 674,-65.3 644.01,-54.85"/>
<polygon fill="#3d314a" stroke="#3d314a" points="644.61,-52.1 636.13,-52.11 642.77,-57.39 644.61,-52.1"/>
</g>
<!-- MetabolicFeaturesIntraSubset -->
<g id="node4" class="node">
<title>MetabolicFeaturesIntraSubset</title>
<g id="a_node4"><a xlink:title="Intra&#45;subset metabolic features &#45; Enrichment analysis in details">
<polygon fill="#f26419" stroke="transparent" points="876,-52 700,-52 700,-16 876,-16 876,-52"/>
<text text-anchor="middle" x="788" y="-30.9" font-family="Helvetica,sans-Serif" font-size="12.00" fill="#ffffff">MetabolicFeaturesIntraSubset</text>
</a>
</g>
</g>
<!-- MetabolicExprImpution&#45;&gt;MetabolicFeaturesIntraSubset -->
<g id="edge4" class="edge">
<title>MetabolicExprImpution&#45;&gt;MetabolicFeaturesIntraSubset</title>
<path fill="none" stroke="#3d314a" d="M788,-87.7C788,-79.39 788,-69.28 788,-60.14"/>
<polygon fill="#3d314a" stroke="#3d314a" points="790.8,-60.1 788,-52.1 785.2,-60.1 790.8,-60.1"/>
</g>
<!-- MetabolicPathwayActivity -->
<g id="node6" class="node">
<title>MetabolicPathwayActivity</title>
<g id="a_node6"><a xlink:title="This process calculates the pathway activities in different groups and subsets.">
<polygon fill="#f26419" stroke="transparent" points="1047.5,-52 894.5,-52 894.5,-16 1047.5,-16 1047.5,-52"/>
<text text-anchor="middle" x="971" y="-30.9" font-family="Helvetica,sans-Serif" font-size="12.00" fill="#ffffff">MetabolicPathwayActivity</text>
</a>
</g>
</g>
<!-- MetabolicExprImpution&#45;&gt;MetabolicPathwayActivity -->
<g id="edge2" class="edge">
<title>MetabolicExprImpution&#45;&gt;MetabolicPathwayActivity</title>
<path fill="none" stroke="#3d314a" d="M832.77,-87.88C858.78,-77.92 891.69,-65.34 918.87,-54.94"/>
<polygon fill="#3d314a" stroke="#3d314a" points="919.91,-57.54 926.38,-52.07 917.91,-52.31 919.91,-57.54"/>
</g>
<!-- MetabolicInput -->
<g id="node5" class="node">
<title>MetabolicInput</title>
<g id="a_node5"><a xlink:title="This process takes Seurat object as input and pass it to the next processes in the `ScrnaMetabolicLandscape` group.">
<path fill="#219ebc" stroke="transparent" d="M928.5,-196C928.5,-196 857.5,-196 857.5,-196 851.5,-196 845.5,-190 845.5,-184 845.5,-184 845.5,-172 845.5,-172 845.5,-166 851.5,-160 857.5,-160 857.5,-160 928.5,-160 928.5,-160 934.5,-160 940.5,-166 940.5,-172 940.5,-172 940.5,-184 940.5,-184 940.5,-190 934.5,-196 928.5,-196"/>
<text text-anchor="middle" x="893" y="-174.9" font-family="Helvetica,sans-Serif" font-size="12.00" fill="#ffffff">MetabolicInput</text>
</a>
</g>
</g>
<!-- MetabolicInput&#45;&gt;MetabolicExprImpution -->
<g id="edge3" class="edge">
<title>MetabolicInput&#45;&gt;MetabolicExprImpution</title>
<path fill="none" stroke="#3d314a" d="M867.31,-159.88C853.2,-150.47 835.56,-138.71 820.5,-128.67"/>
<polygon fill="#3d314a" stroke="#3d314a" points="821.99,-126.3 813.78,-124.19 818.89,-130.96 821.99,-126.3"/>
</g>
<!-- SeuratClusteringOfTCells -->
<g id="node7" class="node">
<title>SeuratClusteringOfTCells</title>
<g id="a_node7"><a xlink:title="Cluster the T cells selected by `TCellSelection`.">
<path fill="#219ebc" stroke="transparent" d="M727,-559C727,-559 597,-559 597,-559 591,-559 585,-553 585,-547 585,-547 585,-535 585,-535 585,-529 591,-523 597,-523 597,-523 727,-523 727,-523 733,-523 739,-529 739,-535 739,-535 739,-547 739,-547 739,-553 733,-559 727,-559"/>
<text text-anchor="middle" x="662" y="-537.9" font-family="Helvetica,sans-Serif" font-size="12.00" fill="#ffffff">SeuratClusteringOfTCells</text>
</a>
</g>
</g>
<!-- CellTypeAnnotation -->
<g id="node21" class="node">
<title>CellTypeAnnotation</title>
<g id="a_node21"><a xlink:title="Annotate the T cell clusters.">
<path fill="#219ebc" stroke="transparent" d="M717,-487C717,-487 619,-487 619,-487 613,-487 607,-481 607,-475 607,-475 607,-463 607,-463 607,-457 613,-451 619,-451 619,-451 717,-451 717,-451 723,-451 729,-457 729,-463 729,-463 729,-475 729,-475 729,-481 723,-487 717,-487"/>
<text text-anchor="middle" x="668" y="-465.9" font-family="Helvetica,sans-Serif" font-size="12.00" fill="#ffffff">CellTypeAnnotation</text>
</a>
</g>
</g>
<!-- SeuratClusteringOfTCells&#45;&gt;CellTypeAnnotation -->
<g id="edge34" class="edge">
<title>SeuratClusteringOfTCells&#45;&gt;CellTypeAnnotation</title>
<path fill="none" stroke="#3d314a" d="M663.48,-522.7C664.2,-514.39 665.06,-504.28 665.85,-495.14"/>
<polygon fill="#3d314a" stroke="#3d314a" points="668.64,-495.31 666.53,-487.1 663.06,-494.84 668.64,-495.31"/>
</g>
<!-- TESSA -->
<g id="node8" class="node">
<title>TESSA</title>
<g id="a_node8"><a xlink:title="Tessa is a Bayesian model to integrate T cell receptor (TCR) sequence profiling with transcriptomes of T cells.">
<path fill="#219ebc" stroke="transparent" d="M579.5,-415C579.5,-415 546.5,-415 546.5,-415 540.5,-415 534.5,-409 534.5,-403 534.5,-403 534.5,-391 534.5,-391 534.5,-385 540.5,-379 546.5,-379 546.5,-379 579.5,-379 579.5,-379 585.5,-379 591.5,-385 591.5,-391 591.5,-391 591.5,-403 591.5,-403 591.5,-409 585.5,-415 579.5,-415"/>
<text text-anchor="middle" x="563" y="-393.9" font-family="Helvetica,sans-Serif" font-size="12.00" fill="#ffffff">TESSA</text>
</a>
</g>
</g>
<!-- SeuratMetadataMutater -->
<g id="node27" class="node">
<title>SeuratMetadataMutater</title>
<g id="a_node27"><a xlink:title="Attach TCR clone information as meta columns to Seurat object">
<path fill="#219ebc" stroke="transparent" d="M621.5,-343C621.5,-343 504.5,-343 504.5,-343 498.5,-343 492.5,-337 492.5,-331 492.5,-331 492.5,-319 492.5,-319 492.5,-313 498.5,-307 504.5,-307 504.5,-307 621.5,-307 621.5,-307 627.5,-307 633.5,-313 633.5,-319 633.5,-319 633.5,-331 633.5,-331 633.5,-337 627.5,-343 621.5,-343"/>
<text text-anchor="middle" x="563" y="-321.9" font-family="Helvetica,sans-Serif" font-size="12.00" fill="#ffffff">SeuratMetadataMutater</text>
</a>
</g>
</g>
<!-- TESSA&#45;&gt;SeuratMetadataMutater -->
<g id="edge6" class="edge">
<title>TESSA&#45;&gt;SeuratMetadataMutater</title>
<path fill="none" stroke="#3d314a" d="M563,-378.7C563,-370.39 563,-360.28 563,-351.14"/>
<polygon fill="#3d314a" stroke="#3d314a" points="565.8,-351.1 563,-343.1 560.2,-351.1 565.8,-351.1"/>
</g>
<!-- MarkersFinder -->
<g id="node9" class="node">
<title>MarkersFinder</title>
<g id="a_node9"><a xlink:title="Find markers between different groups of cells">
<polygon fill="#f26419" stroke="transparent" points="1158,-196 1064,-196 1064,-160 1158,-160 1158,-196"/>
<text text-anchor="middle" x="1111" y="-174.9" font-family="Helvetica,sans-Serif" font-size="12.00" fill="#ffffff">MarkersFinder</text>
</a>
</g>
</g>
<!-- SeuratClusteringOfAllCells -->
<g id="node10" class="node">
<title>SeuratClusteringOfAllCells</title>
<g id="a_node10"><a xlink:title="Cluster all cells using Seurat">
<path fill="#219ebc" stroke="transparent" d="M719.5,-775C719.5,-775 582.5,-775 582.5,-775 576.5,-775 570.5,-769 570.5,-763 570.5,-763 570.5,-751 570.5,-751 570.5,-745 576.5,-739 582.5,-739 582.5,-739 719.5,-739 719.5,-739 725.5,-739 731.5,-745 731.5,-751 731.5,-751 731.5,-763 731.5,-763 731.5,-769 725.5,-775 719.5,-775"/>
<text text-anchor="middle" x="651" y="-753.9" font-family="Helvetica,sans-Serif" font-size="12.00" fill="#ffffff">SeuratClusteringOfAllCells</text>
</a>
</g>
</g>
<!-- TCellSelection -->
<g id="node15" class="node">
<title>TCellSelection</title>
<path fill="#219ebc" stroke="transparent" d="M656,-703C656,-703 584,-703 584,-703 578,-703 572,-697 572,-691 572,-691 572,-679 572,-679 572,-673 578,-667 584,-667 584,-667 656,-667 656,-667 662,-667 668,-673 668,-679 668,-679 668,-691 668,-691 668,-697 662,-703 656,-703"/>
<text text-anchor="middle" x="620" y="-681.9" font-family="Helvetica,sans-Serif" font-size="12.00" fill="#ffffff">TCellSelection</text>
</g>
<!-- SeuratClusteringOfAllCells&#45;&gt;TCellSelection -->
<g id="edge15" class="edge">
<title>SeuratClusteringOfAllCells&#45;&gt;TCellSelection</title>
<path fill="none" stroke="#3d314a" d="M643.34,-738.7C639.58,-730.22 635,-719.86 630.89,-710.58"/>
<polygon fill="#3d314a" stroke="#3d314a" points="633.37,-709.29 627.57,-703.1 628.25,-711.55 633.37,-709.29"/>
</g>
<!-- ClusterMarkersOfAllCells -->
<g id="node23" class="node">
<title>ClusterMarkersOfAllCells</title>
<g id="a_node23"><a xlink:title="Markers for clusters of all cells.">
<polygon fill="#f26419" stroke="transparent" points="1042,-703 890,-703 890,-667 1042,-667 1042,-703"/>
<text text-anchor="middle" x="966" y="-681.9" font-family="Helvetica,sans-Serif" font-size="12.00" fill="#ffffff">ClusterMarkersOfAllCells</text>
</a>
</g>
</g>
<!-- SeuratClusteringOfAllCells&#45;&gt;ClusterMarkersOfAllCells -->
<g id="edge35" class="edge">
<title>SeuratClusteringOfAllCells&#45;&gt;ClusterMarkersOfAllCells</title>
<path fill="none" stroke="#3d314a" d="M727.65,-738.97C774.32,-728.6 833.97,-715.34 881.92,-704.68"/>
<polygon fill="#3d314a" stroke="#3d314a" points="882.62,-707.4 889.82,-702.93 881.4,-701.93 882.62,-707.4"/>
</g>
<!-- TopExpressingGenesOfAllCells -->
<g id="node30" class="node">
<title>TopExpressingGenesOfAllCells</title>
<g id="a_node30"><a xlink:title="Top expressing genes for clusters of all cells.">
<polygon fill="#f26419" stroke="transparent" points="871.5,-703 686.5,-703 686.5,-667 871.5,-667 871.5,-703"/>
<text text-anchor="middle" x="779" y="-681.9" font-family="Helvetica,sans-Serif" font-size="12.00" fill="#ffffff">TopExpressingGenesOfAllCells</text>
</a>
</g>
</g>
<!-- SeuratClusteringOfAllCells&#45;&gt;TopExpressingGenesOfAllCells -->
<g id="edge33" class="edge">
<title>SeuratClusteringOfAllCells&#45;&gt;TopExpressingGenesOfAllCells</title>
<path fill="none" stroke="#3d314a" d="M682.31,-738.88C699.82,-729.3 721.8,-717.28 740.37,-707.13"/>
<polygon fill="#3d314a" stroke="#3d314a" points="741.89,-709.48 747.57,-703.19 739.2,-704.57 741.89,-709.48"/>
</g>
<!-- TCRClustering -->
<g id="node11" class="node">
<title>TCRClustering</title>
<g id="a_node11"><a xlink:title="Cluster the TCR clones by their CDR3 sequences">
<path fill="#219ebc" stroke="transparent" d="M460.5,-703C460.5,-703 387.5,-703 387.5,-703 381.5,-703 375.5,-697 375.5,-691 375.5,-691 375.5,-679 375.5,-679 375.5,-673 381.5,-667 387.5,-667 387.5,-667 460.5,-667 460.5,-667 466.5,-667 472.5,-673 472.5,-679 472.5,-679 472.5,-691 472.5,-691 472.5,-697 466.5,-703 460.5,-703"/>
<text text-anchor="middle" x="424" y="-681.9" font-family="Helvetica,sans-Serif" font-size="12.00" fill="#ffffff">TCRClustering</text>
</a>
</g>
</g>
<!-- TCRClusterStats -->
<g id="node17" class="node">
<title>TCRClusterStats</title>
<polygon fill="#f26419" stroke="transparent" points="477.5,-631 370.5,-631 370.5,-595 477.5,-595 477.5,-631"/>
<text text-anchor="middle" x="424" y="-609.9" font-family="Helvetica,sans-Serif" font-size="12.00" fill="#ffffff">TCRClusterStats</text>
</g>
<!-- TCRClustering&#45;&gt;TCRClusterStats -->
<g id="edge28" class="edge">
<title>TCRClustering&#45;&gt;TCRClusterStats</title>
<path fill="none" stroke="#3d314a" d="M424,-666.7C424,-658.39 424,-648.28 424,-639.14"/>
<polygon fill="#3d314a" stroke="#3d314a" points="426.8,-639.1 424,-631.1 421.2,-639.1 426.8,-639.1"/>
</g>
<!-- TCRClusters2Seurat -->
<g id="node25" class="node">
<title>TCRClusters2Seurat</title>
<g id="a_node25"><a xlink:title="Attach TCR clusters as meta columns to Seurat object">
<path fill="#219ebc" stroke="transparent" d="M1054,-271C1054,-271 950,-271 950,-271 944,-271 938,-265 938,-259 938,-259 938,-247 938,-247 938,-241 944,-235 950,-235 950,-235 1054,-235 1054,-235 1060,-235 1066,-241 1066,-247 1066,-247 1066,-259 1066,-259 1066,-265 1060,-271 1054,-271"/>
<text text-anchor="middle" x="1002" y="-249.9" font-family="Helvetica,sans-Serif" font-size="12.00" fill="#ffffff">TCRClusters2Seurat</text>
</a>
</g>
</g>
<!-- TCRClustering&#45;&gt;TCRClusters2Seurat -->
<g id="edge12" class="edge">
<title>TCRClustering&#45;&gt;TCRClusters2Seurat</title>
<path fill="none" stroke="#3d314a" d="M396.89,-666.88C384.47,-657.69 370.62,-645.31 362,-631 341.08,-596.27 342,-582.54 342,-542 342,-542 342,-542 342,-396 342,-276.86 758.22,-257.4 929.6,-254.43"/>
<polygon fill="#3d314a" stroke="#3d314a" points="929.86,-257.23 937.82,-254.3 929.77,-251.63 929.86,-257.23"/>
</g>
<!-- TopExpressingGenes -->
<g id="node12" class="node">
<title>TopExpressingGenes</title>
<g id="a_node12"><a xlink:title="Top expressing genes for clusters of T cells.">
<polygon fill="#f26419" stroke="transparent" points="740.5,-415 609.5,-415 609.5,-379 740.5,-379 740.5,-415"/>
<text text-anchor="middle" x="675" y="-393.9" font-family="Helvetica,sans-Serif" font-size="12.00" fill="#ffffff">TopExpressingGenes</text>
</a>
</g>
</g>
<!-- CloneResidency -->
<g id="node13" class="node">
<title>CloneResidency</title>
<polygon fill="#f26419" stroke="transparent" points="106,-196 0,-196 0,-160 106,-160 106,-196"/>
<text text-anchor="middle" x="53" y="-174.9" font-family="Helvetica,sans-Serif" font-size="12.00" fill="#ffffff">CloneResidency</text>
</g>
<!-- ScFGSEA -->
<g id="node14" class="node">
<title>ScFGSEA</title>
<polygon fill="#f26419" stroke="transparent" points="1248,-196 1176,-196 1176,-160 1248,-160 1248,-196"/>
<text text-anchor="middle" x="1212" y="-174.9" font-family="Helvetica,sans-Serif" font-size="12.00" fill="#ffffff">ScFGSEA</text>
</g>
<!-- ModuleScoreCalculator -->
<g id="node22" class="node">
<title>ModuleScoreCalculator</title>
<path fill="#219ebc" stroke="transparent" d="M712.5,-631C712.5,-631 593.5,-631 593.5,-631 587.5,-631 581.5,-625 581.5,-619 581.5,-619 581.5,-607 581.5,-607 581.5,-601 587.5,-595 593.5,-595 593.5,-595 712.5,-595 712.5,-595 718.5,-595 724.5,-601 724.5,-607 724.5,-607 724.5,-619 724.5,-619 724.5,-625 718.5,-631 712.5,-631"/>
<text text-anchor="middle" x="653" y="-609.9" font-family="Helvetica,sans-Serif" font-size="12.00" fill="#ffffff">ModuleScoreCalculator</text>
</g>
<!-- TCellSelection&#45;&gt;ModuleScoreCalculator -->
<g id="edge22" class="edge">
<title>TCellSelection&#45;&gt;ModuleScoreCalculator</title>
<path fill="none" stroke="#3d314a" d="M628.16,-666.7C632.15,-658.22 637.04,-647.86 641.41,-638.58"/>
<polygon fill="#3d314a" stroke="#3d314a" points="644.06,-639.53 644.94,-631.1 638.99,-637.15 644.06,-639.53"/>
</g>
<!-- ImmunarchLoading -->
<g id="node16" class="node">
<title>ImmunarchLoading</title>
<path fill="#219ebc" stroke="transparent" d="M521.5,-775C521.5,-775 426.5,-775 426.5,-775 420.5,-775 414.5,-769 414.5,-763 414.5,-763 414.5,-751 414.5,-751 414.5,-745 420.5,-739 426.5,-739 426.5,-739 521.5,-739 521.5,-739 527.5,-739 533.5,-745 533.5,-751 533.5,-751 533.5,-763 533.5,-763 533.5,-769 527.5,-775 521.5,-775"/>
<text text-anchor="middle" x="474" y="-753.9" font-family="Helvetica,sans-Serif" font-size="12.00" fill="#ffffff">ImmunarchLoading</text>
</g>
<!-- ImmunarchLoading&#45;&gt;TESSA -->
<g id="edge23" class="edge">
<title>ImmunarchLoading&#45;&gt;TESSA</title>
<path fill="none" stroke="#3d314a" d="M492.42,-738.9C501.89,-729.19 512.9,-716.34 520,-703 539.25,-666.83 544,-654.97 544,-614 544,-614 544,-614 544,-540 544,-498.98 551.89,-451.87 557.5,-423.55"/>
<polygon fill="#3d314a" stroke="#3d314a" points="560.31,-423.79 559.16,-415.39 554.82,-422.67 560.31,-423.79"/>
</g>
<!-- ImmunarchLoading&#45;&gt;TCRClustering -->
<g id="edge30" class="edge">
<title>ImmunarchLoading&#45;&gt;TCRClustering</title>
<path fill="none" stroke="#3d314a" d="M461.64,-738.7C455.4,-729.97 447.74,-719.24 440.96,-709.75"/>
<polygon fill="#3d314a" stroke="#3d314a" points="443.15,-707.99 436.22,-703.1 438.59,-711.24 443.15,-707.99"/>
</g>
<!-- ImmunarchLoading&#45;&gt;CloneResidency -->
<g id="edge19" class="edge">
<title>ImmunarchLoading&#45;&gt;CloneResidency</title>
<path fill="none" stroke="#3d314a" d="M414.47,-756.23C318.68,-753.12 141,-731.53 141,-614 141,-614 141,-614 141,-324 141,-275 103.81,-228.43 77.79,-201.84"/>
<polygon fill="#3d314a" stroke="#3d314a" points="79.73,-199.83 72.09,-196.16 75.78,-203.79 79.73,-199.83"/>
</g>
<!-- ImmunarchLoading&#45;&gt;TCellSelection -->
<g id="edge9" class="edge">
<title>ImmunarchLoading&#45;&gt;TCellSelection</title>
<path fill="none" stroke="#3d314a" d="M509.72,-738.88C530.03,-729.14 555.61,-716.87 577.02,-706.61"/>
<polygon fill="#3d314a" stroke="#3d314a" points="578.4,-709.05 584.4,-703.07 575.98,-704 578.4,-709.05"/>
</g>
<!-- CDR3AAPhyschem -->
<g id="node18" class="node">
<title>CDR3AAPhyschem</title>
<polygon fill="#f26419" stroke="transparent" points="247.5,-196 124.5,-196 124.5,-160 247.5,-160 247.5,-196"/>
<text text-anchor="middle" x="186" y="-174.9" font-family="Helvetica,sans-Serif" font-size="12.00" fill="#ffffff">CDR3AAPhyschem</text>
</g>
<!-- ImmunarchLoading&#45;&gt;CDR3AAPhyschem -->
<g id="edge27" class="edge">
<title>ImmunarchLoading&#45;&gt;CDR3AAPhyschem</title>
<path fill="none" stroke="#3d314a" d="M414.28,-748.25C340.9,-735 226,-700.45 226,-614 226,-614 226,-614 226,-324 226,-280.56 209.11,-232.34 197.28,-203.91"/>
<polygon fill="#3d314a" stroke="#3d314a" points="199.81,-202.69 194.09,-196.43 194.65,-204.89 199.81,-202.69"/>
</g>
<!-- Immunarch -->
<g id="node20" class="node">
<title>Immunarch</title>
<g id="a_node20"><a xlink:title="/// Tip | Changed in `0.10.0` `envs.mutaters` are now applied at cell level.">
<polygon fill="#f26419" stroke="transparent" points="342,-196 266,-196 266,-160 342,-160 342,-196"/>
<text text-anchor="middle" x="304" y="-174.9" font-family="Helvetica,sans-Serif" font-size="12.00" fill="#ffffff">Immunarch</text>
</a>
</g>
</g>
<!-- ImmunarchLoading&#45;&gt;Immunarch -->
<g id="edge13" class="edge">
<title>ImmunarchLoading&#45;&gt;Immunarch</title>
<path fill="none" stroke="#3d314a" d="M424.83,-738.98C374.62,-718.1 304,-677.45 304,-614 304,-614 304,-614 304,-324 304,-282.25 304,-233.74 304,-204.75"/>
<polygon fill="#3d314a" stroke="#3d314a" points="306.8,-204.41 304,-196.41 301.2,-204.41 306.8,-204.41"/>
</g>
<!-- ImmunarchLoading&#45;&gt;SeuratMetadataMutater -->
<g id="edge7" class="edge">
<title>ImmunarchLoading&#45;&gt;SeuratMetadataMutater</title>
<path fill="none" stroke="#3d314a" d="M480.48,-738.79C489.83,-712.36 506,-659.99 506,-614 506,-614 506,-614 506,-468 506,-427.46 509.64,-416.1 526,-379 530.55,-368.69 537.22,-358.31 543.65,-349.51"/>
<polygon fill="#3d314a" stroke="#3d314a" points="545.89,-351.18 548.48,-343.11 541.42,-347.81 545.89,-351.18"/>
</g>
<!-- RadarPlots -->
<g id="node19" class="node">
<title>RadarPlots</title>
<g id="a_node19"><a xlink:title="Radar plots for cell proportion in different clusters.">
<polygon fill="#f26419" stroke="transparent" points="1343.5,-196 1266.5,-196 1266.5,-160 1343.5,-160 1343.5,-196"/>
<text text-anchor="middle" x="1305" y="-174.9" font-family="Helvetica,sans-Serif" font-size="12.00" fill="#ffffff">RadarPlots</text>
</a>
</g>
</g>
<!-- CellTypeAnnotation&#45;&gt;TESSA -->
<g id="edge36" class="edge">
<title>CellTypeAnnotation&#45;&gt;TESSA</title>
<path fill="none" stroke="#3d314a" d="M642.31,-450.88C628.2,-441.47 610.56,-429.71 595.5,-419.67"/>
<polygon fill="#3d314a" stroke="#3d314a" points="596.99,-417.3 588.78,-415.19 593.89,-421.96 596.99,-417.3"/>
</g>
<!-- CellTypeAnnotation&#45;&gt;TopExpressingGenes -->
<g id="edge10" class="edge">
<title>CellTypeAnnotation&#45;&gt;TopExpressingGenes</title>
<path fill="none" stroke="#3d314a" d="M669.73,-450.7C670.56,-442.39 671.57,-432.28 672.49,-423.14"/>
<polygon fill="#3d314a" stroke="#3d314a" points="675.28,-423.34 673.29,-415.1 669.71,-422.79 675.28,-423.34"/>
</g>
<!-- ClusterMarkers -->
<g id="node31" class="node">
<title>ClusterMarkers</title>
<g id="a_node31"><a xlink:title="Markers for clusters of T cells.">
<polygon fill="#f26419" stroke="transparent" points="857,-415 759,-415 759,-379 857,-379 857,-415"/>
<text text-anchor="middle" x="808" y="-393.9" font-family="Helvetica,sans-Serif" font-size="12.00" fill="#ffffff">ClusterMarkers</text>
</a>
</g>
</g>
<!-- CellTypeAnnotation&#45;&gt;ClusterMarkers -->
<g id="edge31" class="edge">
<title>CellTypeAnnotation&#45;&gt;ClusterMarkers</title>
<path fill="none" stroke="#3d314a" d="M702.25,-450.88C721.57,-441.22 745.86,-429.07 766.29,-418.86"/>
<polygon fill="#3d314a" stroke="#3d314a" points="767.72,-421.27 773.62,-415.19 765.21,-416.26 767.72,-421.27"/>
</g>
<!-- ModuleScoreCalculator&#45;&gt;SeuratClusteringOfTCells -->
<g id="edge18" class="edge">
<title>ModuleScoreCalculator&#45;&gt;SeuratClusteringOfTCells</title>
<path fill="none" stroke="#3d314a" d="M655.22,-594.7C656.29,-586.39 657.59,-576.28 658.77,-567.14"/>
<polygon fill="#3d314a" stroke="#3d314a" points="661.56,-567.4 659.8,-559.1 656,-566.68 661.56,-567.4"/>
</g>
<!-- CellsDistribution -->
<g id="node24" class="node">
<title>CellsDistribution</title>
<polygon fill="#f26419" stroke="transparent" points="1466.5,-196 1361.5,-196 1361.5,-160 1466.5,-160 1466.5,-196"/>
<text text-anchor="middle" x="1414" y="-174.9" font-family="Helvetica,sans-Serif" font-size="12.00" fill="#ffffff">CellsDistribution</text>
</g>
<!-- TCRClusters2Seurat&#45;&gt;MetabolicInput -->
<g id="edge8" class="edge">
<title>TCRClusters2Seurat&#45;&gt;MetabolicInput</title>
<path fill="none" stroke="#3d314a" d="M976.44,-234.88C961.14,-224.63 941.54,-211.51 925.18,-200.55"/>
<polygon fill="#3d314a" stroke="#3d314a" points="926.6,-198.13 918.4,-196.01 923.48,-202.79 926.6,-198.13"/>
</g>
<!-- TCRClusters2Seurat&#45;&gt;MarkersFinder -->
<g id="edge38" class="edge">
<title>TCRClusters2Seurat&#45;&gt;MarkersFinder</title>
<path fill="none" stroke="#3d314a" d="M1046.24,-234.87C1051.01,-232.46 1055.69,-229.83 1060,-227 1070.74,-219.95 1081.29,-210.55 1089.99,-201.93"/>
<polygon fill="#3d314a" stroke="#3d314a" points="1092.09,-203.8 1095.7,-196.13 1088.09,-199.87 1092.09,-203.8"/>
</g>
<!-- TCRClusters2Seurat&#45;&gt;CloneResidency -->
<g id="edge25" class="edge">
<title>TCRClusters2Seurat&#45;&gt;CloneResidency</title>
<path fill="none" stroke="#3d314a" d="M937.87,-252.48C747.1,-253.6 191.7,-254.43 115,-227 100.21,-221.71 86.16,-211.44 75.19,-201.76"/>
<polygon fill="#3d314a" stroke="#3d314a" points="76.89,-199.51 69.1,-196.16 73.1,-203.64 76.89,-199.51"/>
</g>
<!-- TCRClusters2Seurat&#45;&gt;ScFGSEA -->
<g id="edge17" class="edge">
<title>TCRClusters2Seurat&#45;&gt;ScFGSEA</title>
<path fill="none" stroke="#3d314a" d="M1066.14,-246.62C1104.75,-242.55 1149.69,-236.1 1167,-227 1177.9,-221.27 1187.6,-211.85 1195.18,-202.87"/>
<polygon fill="#3d314a" stroke="#3d314a" points="1197.5,-204.46 1200.31,-196.46 1193.13,-200.95 1197.5,-204.46"/>
</g>
<!-- TCRClusters2Seurat&#45;&gt;CDR3AAPhyschem -->
<g id="edge32" class="edge">
<title>TCRClusters2Seurat&#45;&gt;CDR3AAPhyschem</title>
<path fill="none" stroke="#3d314a" d="M937.87,-251.88C769.02,-251.27 320.74,-247.7 257,-227 240.37,-221.6 224.05,-211.04 211.25,-201.2"/>
<polygon fill="#3d314a" stroke="#3d314a" points="212.91,-198.94 204.9,-196.15 209.42,-203.32 212.91,-198.94"/>
</g>
<!-- TCRClusters2Seurat&#45;&gt;RadarPlots -->
<g id="edge26" class="edge">
<title>TCRClusters2Seurat&#45;&gt;RadarPlots</title>
<path fill="none" stroke="#3d314a" d="M1066.12,-250.61C1130.38,-248.36 1224.32,-242.45 1257,-227 1268.77,-221.43 1279.33,-211.73 1287.52,-202.5"/>
<polygon fill="#3d314a" stroke="#3d314a" points="1289.78,-204.16 1292.8,-196.24 1285.5,-200.55 1289.78,-204.16"/>
</g>
<!-- TCRClusters2Seurat&#45;&gt;Immunarch -->
<g id="edge16" class="edge">
<title>TCRClusters2Seurat&#45;&gt;Immunarch</title>
<path fill="none" stroke="#3d314a" d="M937.72,-252.42C782.94,-253.04 398.4,-251.99 346,-227 334.9,-221.71 325.53,-211.97 318.47,-202.65"/>
<polygon fill="#3d314a" stroke="#3d314a" points="320.67,-200.9 313.75,-196 316.1,-204.14 320.67,-200.9"/>
</g>
<!-- TCRClusters2Seurat&#45;&gt;CellsDistribution -->
<g id="edge20" class="edge">
<title>TCRClusters2Seurat&#45;&gt;CellsDistribution</title>
<path fill="none" stroke="#3d314a" d="M1066.14,-251.91C1152.82,-251.02 1302.36,-246.58 1353,-227 1367.29,-221.48 1380.92,-211.39 1391.65,-201.89"/>
<polygon fill="#3d314a" stroke="#3d314a" points="1393.63,-203.87 1397.62,-196.4 1389.84,-199.75 1393.63,-203.87"/>
</g>
<!-- MetaMarkers -->
<g id="node28" class="node">
<title>MetaMarkers</title>
<polygon fill="#f26419" stroke="transparent" points="1571,-196 1485,-196 1485,-160 1571,-160 1571,-196"/>
<text text-anchor="middle" x="1528" y="-174.9" font-family="Helvetica,sans-Serif" font-size="12.00" fill="#ffffff">MetaMarkers</text>
</g>
<!-- TCRClusters2Seurat&#45;&gt;MetaMarkers -->
<g id="edge24" class="edge">
<title>TCRClusters2Seurat&#45;&gt;MetaMarkers</title>
<path fill="none" stroke="#3d314a" d="M1066.39,-251.03C1187.26,-248.85 1439.27,-242.49 1476,-227 1488.63,-221.67 1500.13,-211.87 1509.08,-202.51"/>
<polygon fill="#3d314a" stroke="#3d314a" points="1511.26,-204.27 1514.58,-196.47 1507.12,-200.5 1511.26,-204.27"/>
</g>
<!-- SeuratClusterStats -->
<g id="node29" class="node">
<title>SeuratClusterStats</title>
<polygon fill="#f26419" stroke="transparent" points="1706.5,-196 1589.5,-196 1589.5,-160 1706.5,-160 1706.5,-196"/>
<text text-anchor="middle" x="1648" y="-174.9" font-family="Helvetica,sans-Serif" font-size="12.00" fill="#ffffff">SeuratClusterStats</text>
</g>
<!-- TCRClusters2Seurat&#45;&gt;SeuratClusterStats -->
<g id="edge14" class="edge">
<title>TCRClusters2Seurat&#45;&gt;SeuratClusterStats</title>
<path fill="none" stroke="#3d314a" d="M1066.05,-251.26C1206.42,-249.36 1532.47,-243.22 1580,-227 1595.92,-221.56 1611.43,-211.14 1623.6,-201.4"/>
<polygon fill="#3d314a" stroke="#3d314a" points="1625.64,-203.35 1630.01,-196.09 1622.06,-199.04 1625.64,-203.35"/>
</g>
<!-- SeuratPreparing -->
<g id="node26" class="node">
<title>SeuratPreparing</title>
<g id="a_node26"><a xlink:title="Load, prepare and apply QC to data, using `Seurat`">
<path fill="#219ebc" stroke="transparent" d="M652,-847C652,-847 572,-847 572,-847 566,-847 560,-841 560,-835 560,-835 560,-823 560,-823 560,-817 566,-811 572,-811 572,-811 652,-811 652,-811 658,-811 664,-817 664,-823 664,-823 664,-835 664,-835 664,-841 658,-847 652,-847"/>
<text text-anchor="middle" x="612" y="-825.9" font-family="Helvetica,sans-Serif" font-size="12.00" fill="#ffffff">SeuratPreparing</text>
</a>
</g>
</g>
<!-- SeuratPreparing&#45;&gt;SeuratClusteringOfAllCells -->
<g id="edge21" class="edge">
<title>SeuratPreparing&#45;&gt;SeuratClusteringOfAllCells</title>
<path fill="none" stroke="#3d314a" d="M621.64,-810.7C626.41,-802.14 632.25,-791.66 637.46,-782.3"/>
<polygon fill="#3d314a" stroke="#3d314a" points="640.02,-783.46 641.47,-775.1 635.13,-780.73 640.02,-783.46"/>
</g>
<!-- SeuratMetadataMutater&#45;&gt;TCRClusters2Seurat -->
<g id="edge29" class="edge">
<title>SeuratMetadataMutater&#45;&gt;TCRClusters2Seurat</title>
<path fill="none" stroke="#3d314a" d="M633.53,-312.75C714.73,-299.81 847.41,-278.65 929.45,-265.57"/>
<polygon fill="#3d314a" stroke="#3d314a" points="930.26,-268.28 937.72,-264.25 929.37,-262.75 930.26,-268.28"/>
</g>
<!-- SampleInfo -->
<g id="node32" class="node">
<title>SampleInfo</title>
<g id="a_node32"><a xlink:title="List sample information and perform statistics">
<polygon fill="#4c956c" stroke="transparent" points="553,-919 485.93,-901 553,-883 620.07,-901 553,-919"/>
<text text-anchor="middle" x="553" y="-897.9" font-family="Helvetica,sans-Serif" font-size="12.00" fill="#ffffff">SampleInfo</text>
</a>
</g>
</g>
<!-- SampleInfo&#45;&gt;ImmunarchLoading -->
<g id="edge37" class="edge">
<title>SampleInfo&#45;&gt;ImmunarchLoading</title>
<path fill="none" stroke="#3d314a" d="M544.69,-885.07C531.11,-860.65 504.01,-811.94 487.59,-782.43"/>
<polygon fill="#3d314a" stroke="#3d314a" points="490,-781 483.66,-775.37 485.1,-783.72 490,-781"/>
</g>
<!-- SampleInfo&#45;&gt;SeuratPreparing -->
<g id="edge11" class="edge">
<title>SampleInfo&#45;&gt;SeuratPreparing</title>
<path fill="none" stroke="#3d314a" d="M564.94,-885.83C572.82,-876.48 583.33,-864.01 592.42,-853.23"/>
<polygon fill="#3d314a" stroke="#3d314a" points="594.56,-855.03 597.58,-847.11 590.28,-851.43 594.56,-855.03"/>
</g>
</g>
</svg>
