<?xml version="1.0" encoding="UTF-8" standalone="no"?>
<!DOCTYPE svg PUBLIC "-//W3C//DTD SVG 1.1//EN"
 "http://www.w3.org/Graphics/SVG/1.1/DTD/svg11.dtd">
<!-- Generated by graphviz version 7.0.5 (20221231.0122)
 -->
<!-- Title: ImmunopipeMinimal Pages: 1 -->
<svg width="522pt" height="442pt"
 viewBox="0.00 0.00 522.00 442.00" xmlns="http://www.w3.org/2000/svg" xmlns:xlink="http://www.w3.org/1999/xlink">
<g id="graph0" class="graph" transform="scale(1 1) rotate(0) translate(4 438)">
<title>ImmunopipeMinimal</title>
<polygon fill="white" stroke="none" points="-4,4 -4,-438 518,-438 518,4 -4,4"/>
<text text-anchor="middle" x="257" y="-418.8" font-family="Helvetica,sans-Serif" font-size="14.00">ImmunopipeMinimal</text>
<text text-anchor="middle" x="257" y="-403.8" font-family="Helvetica,sans-Serif" font-size="14.00"> </text>
<!-- SampleInfo -->
<g id="node1" class="node">
<title>SampleInfo</title>
<g id="a_node1"><a xlink:title="List sample information and perform statistics">
<polygon fill="none" stroke="black" points="294,-396 220,-378 294,-360 368,-378 294,-396"/>
<text text-anchor="middle" x="294" y="-374.9" font-family="Helvetica,sans-Serif" font-size="12.00">SampleInfo</text>
</a>
</g>
</g>
<!-- SeuratPreparing -->
<g id="node5" class="node">
<title>SeuratPreparing</title>
<g id="a_node5"><a xlink:title="Load, prepare and apply QC to data, using `Seurat`">
<path fill="none" stroke="black" d="M296.5,-324C296.5,-324 207.5,-324 207.5,-324 201.5,-324 195.5,-318 195.5,-312 195.5,-312 195.5,-300 195.5,-300 195.5,-294 201.5,-288 207.5,-288 207.5,-288 296.5,-288 296.5,-288 302.5,-288 308.5,-294 308.5,-300 308.5,-300 308.5,-312 308.5,-312 308.5,-318 302.5,-324 296.5,-324"/>
<text text-anchor="middle" x="252" y="-302.9" font-family="Helvetica,sans-Serif" font-size="12.00">SeuratPreparing</text>
</a>
</g>
</g>
<!-- SampleInfo&#45;&gt;SeuratPreparing -->
<g id="edge10" class="edge">
<title>SampleInfo&#45;&gt;SeuratPreparing</title>
<path fill="none" stroke="black" d="M284.89,-361.81C279.68,-353.14 273.03,-342.05 267.07,-332.12"/>
<polygon fill="black" stroke="black" points="269.57,-330.84 263.05,-325.42 264.77,-333.73 269.57,-330.84"/>
</g>
<!-- ImmunarchLoading -->
<g id="node7" class="node">
<title>ImmunarchLoading</title>
<path fill="none" stroke="black" d="M416.5,-180C416.5,-180 307.5,-180 307.5,-180 301.5,-180 295.5,-174 295.5,-168 295.5,-168 295.5,-156 295.5,-156 295.5,-150 301.5,-144 307.5,-144 307.5,-144 416.5,-144 416.5,-144 422.5,-144 428.5,-150 428.5,-156 428.5,-156 428.5,-168 428.5,-168 428.5,-174 422.5,-180 416.5,-180"/>
<text text-anchor="middle" x="362" y="-158.9" font-family="Helvetica,sans-Serif" font-size="12.00">ImmunarchLoading</text>
</g>
<!-- SampleInfo&#45;&gt;ImmunarchLoading -->
<g id="edge1" class="edge">
<title>SampleInfo&#45;&gt;ImmunarchLoading</title>
<path fill="none" stroke="black" d="M301.42,-361.46C306.23,-351.01 312.44,-336.86 317,-324 333.54,-277.4 347.99,-221.52 355.81,-189.35"/>
<polygon fill="black" stroke="black" points="358.52,-190.06 357.67,-181.63 353.08,-188.75 358.52,-190.06"/>
</g>
<!-- TopExpressingGenes -->
<g id="node2" class="node">
<title>TopExpressingGenes</title>
<g id="a_node2"><a xlink:title="Top expressing genes for clusters of T cells.">
<polygon fill="none" stroke="black" points="138,-108 0,-108 0,-72 138,-72 138,-108"/>
<text text-anchor="middle" x="69" y="-86.9" font-family="Helvetica,sans-Serif" font-size="12.00">TopExpressingGenes</text>
</a>
</g>
</g>
<!-- SeuratClusteringOfAllCells -->
<g id="node3" class="node">
<title>SeuratClusteringOfAllCells</title>
<g id="a_node3"><a xlink:title="Cluster all cells using Seurat">
<path fill="none" stroke="black" d="M302.5,-252C302.5,-252 153.5,-252 153.5,-252 147.5,-252 141.5,-246 141.5,-240 141.5,-240 141.5,-228 141.5,-228 141.5,-222 147.5,-216 153.5,-216 153.5,-216 302.5,-216 302.5,-216 308.5,-216 314.5,-222 314.5,-228 314.5,-228 314.5,-240 314.5,-240 314.5,-246 308.5,-252 302.5,-252"/>
<text text-anchor="middle" x="228" y="-230.9" font-family="Helvetica,sans-Serif" font-size="12.00">SeuratClusteringOfAllCells</text>
</a>
</g>
</g>
<!-- CellTypeAnnotation -->
<g id="node6" class="node">
<title>CellTypeAnnotation</title>
<g id="a_node6"><a xlink:title="Annotate the T cell clusters.">
<path fill="none" stroke="black" d="M264.5,-180C264.5,-180 157.5,-180 157.5,-180 151.5,-180 145.5,-174 145.5,-168 145.5,-168 145.5,-156 145.5,-156 145.5,-150 151.5,-144 157.5,-144 157.5,-144 264.5,-144 264.5,-144 270.5,-144 276.5,-150 276.5,-156 276.5,-156 276.5,-168 276.5,-168 276.5,-174 270.5,-180 264.5,-180"/>
<text text-anchor="middle" x="211" y="-158.9" font-family="Helvetica,sans-Serif" font-size="12.00">CellTypeAnnotation</text>
</a>
</g>
</g>
<!-- SeuratClusteringOfAllCells&#45;&gt;CellTypeAnnotation -->
<g id="edge9" class="edge">
<title>SeuratClusteringOfAllCells&#45;&gt;CellTypeAnnotation</title>
<path fill="none" stroke="black" d="M223.8,-215.7C221.86,-207.73 219.52,-198.1 217.38,-189.26"/>
<polygon fill="black" stroke="black" points="220.12,-188.69 215.51,-181.58 214.68,-190.01 220.12,-188.69"/>
</g>
<!-- Immunarch -->
<g id="node4" class="node">
<title>Immunarch</title>
<g id="a_node4"><a xlink:title="Exploration of Single&#45;cell and Bulk T&#45;cell/Antibody Immune Repertoires">
<polygon fill="none" stroke="black" points="514,-36 428,-36 428,0 514,0 514,-36"/>
<text text-anchor="middle" x="471" y="-14.9" font-family="Helvetica,sans-Serif" font-size="12.00">Immunarch</text>
</a>
</g>
</g>
<!-- SeuratPreparing&#45;&gt;SeuratClusteringOfAllCells -->
<g id="edge2" class="edge">
<title>SeuratPreparing&#45;&gt;SeuratClusteringOfAllCells</title>
<path fill="none" stroke="black" d="M246.07,-287.7C243.31,-279.64 239.96,-269.89 236.91,-260.98"/>
<polygon fill="black" stroke="black" points="239.6,-260.2 234.36,-253.54 234.3,-262.01 239.6,-260.2"/>
</g>
<!-- CellTypeAnnotation&#45;&gt;TopExpressingGenes -->
<g id="edge6" class="edge">
<title>CellTypeAnnotation&#45;&gt;TopExpressingGenes</title>
<path fill="none" stroke="black" d="M175.53,-143.52C156.41,-134.09 132.66,-122.38 112.44,-112.41"/>
<polygon fill="black" stroke="black" points="113.79,-109.96 105.37,-108.93 111.31,-114.98 113.79,-109.96"/>
</g>
<!-- ClusterMarkers -->
<g id="node8" class="node">
<title>ClusterMarkers</title>
<g id="a_node8"><a xlink:title="Markers for clusters of T cells.">
<polygon fill="none" stroke="black" points="263.5,-108 156.5,-108 156.5,-72 263.5,-72 263.5,-108"/>
<text text-anchor="middle" x="210" y="-86.9" font-family="Helvetica,sans-Serif" font-size="12.00">ClusterMarkers</text>
</a>
</g>
</g>
<!-- CellTypeAnnotation&#45;&gt;ClusterMarkers -->
<g id="edge4" class="edge">
<title>CellTypeAnnotation&#45;&gt;ClusterMarkers</title>
<path fill="none" stroke="black" d="M210.75,-143.7C210.64,-135.81 210.5,-126.3 210.38,-117.55"/>
<polygon fill="black" stroke="black" points="213.18,-117.58 210.27,-109.62 207.58,-117.66 213.18,-117.58"/>
</g>
<!-- SeuratMetadataMutater -->
<g id="node10" class="node">
<title>SeuratMetadataMutater</title>
<g id="a_node10"><a xlink:title="Attach TCR clone information as meta columns to Seurat object">
<path fill="none" stroke="black" d="M430.5,-108C430.5,-108 293.5,-108 293.5,-108 287.5,-108 281.5,-102 281.5,-96 281.5,-96 281.5,-84 281.5,-84 281.5,-78 287.5,-72 293.5,-72 293.5,-72 430.5,-72 430.5,-72 436.5,-72 442.5,-78 442.5,-84 442.5,-84 442.5,-96 442.5,-96 442.5,-102 436.5,-108 430.5,-108"/>
<text text-anchor="middle" x="362" y="-86.9" font-family="Helvetica,sans-Serif" font-size="12.00">SeuratMetadataMutater</text>
</a>
</g>
</g>
<!-- CellTypeAnnotation&#45;&gt;SeuratMetadataMutater -->
<g id="edge7" class="edge">
<title>CellTypeAnnotation&#45;&gt;SeuratMetadataMutater</title>
<path fill="none" stroke="black" d="M248.71,-143.52C269.15,-134.04 294.56,-122.26 316.14,-112.26"/>
<polygon fill="black" stroke="black" points="317.05,-114.92 323.13,-109.02 314.7,-109.84 317.05,-114.92"/>
</g>
<!-- ImmunarchLoading&#45;&gt;Immunarch -->
<g id="edge8" class="edge">
<title>ImmunarchLoading&#45;&gt;Immunarch</title>
<path fill="none" stroke="black" d="M407.38,-143.56C423.73,-135.14 440.87,-123.45 452,-108 465.06,-89.88 469.49,-64.63 470.84,-45.66"/>
<polygon fill="black" stroke="black" points="473.62,-46.02 471.22,-37.89 468.03,-45.74 473.62,-46.02"/>
</g>
<!-- ImmunarchLoading&#45;&gt;SeuratMetadataMutater -->
<g id="edge3" class="edge">
<title>ImmunarchLoading&#45;&gt;SeuratMetadataMutater</title>
<path fill="none" stroke="black" d="M362,-143.7C362,-135.81 362,-126.3 362,-117.55"/>
<polygon fill="black" stroke="black" points="364.8,-117.62 362,-109.62 359.2,-117.62 364.8,-117.62"/>
</g>
<!-- SeuratClusterStats -->
<g id="node9" class="node">
<title>SeuratClusterStats</title>
<polygon fill="none" stroke="black" points="410,-36 282,-36 282,0 410,0 410,-36"/>
<text text-anchor="middle" x="346" y="-14.9" font-family="Helvetica,sans-Serif" font-size="12.00">SeuratClusterStats</text>
</g>
<!-- SeuratMetadataMutater&#45;&gt;Immunarch -->
<g id="edge5" class="edge">
<title>SeuratMetadataMutater&#45;&gt;Immunarch</title>
<path fill="none" stroke="black" d="M389.22,-71.52C403.51,-62.34 421.16,-51.01 436.4,-41.22"/>
<polygon fill="black" stroke="black" points="437.63,-43.76 442.85,-37.08 434.6,-39.05 437.63,-43.76"/>
</g>
<!-- SeuratMetadataMutater&#45;&gt;SeuratClusterStats -->
<g id="edge11" class="edge">
<title>SeuratMetadataMutater&#45;&gt;SeuratClusterStats</title>
<path fill="none" stroke="black" d="M358.04,-71.7C356.22,-63.73 354.02,-54.1 352,-45.26"/>
<polygon fill="black" stroke="black" points="354.76,-44.75 350.25,-37.58 349.3,-46 354.76,-44.75"/>
</g>
</g>
</svg>
