<?xml version="1.0" encoding="UTF-8" standalone="no"?>
<!DOCTYPE svg PUBLIC "-//W3C//DTD SVG 1.1//EN"
 "http://www.w3.org/Graphics/SVG/1.1/DTD/svg11.dtd">
<!-- Generated by graphviz version 3.0.0 (20220315.2325)
 -->
<!-- Title: ImmunopipeMinimalLocal Pages: 1 -->
<svg width="603pt" height="442pt"
 viewBox="0.00 0.00 602.50 442.00" xmlns="http://www.w3.org/2000/svg" xmlns:xlink="http://www.w3.org/1999/xlink">
<g id="graph0" class="graph" transform="scale(1 1) rotate(0) translate(4 438)">
<title>ImmunopipeMinimalLocal</title>
<polygon fill="white" stroke="transparent" points="-4,4 -4,-438 598.5,-438 598.5,4 -4,4"/>
<text text-anchor="middle" x="297.25" y="-418.8" font-family="Helvetica,sans-Serif" font-size="14.00">ImmunopipeMinimalLocal</text>
<text text-anchor="middle" x="297.25" y="-403.8" font-family="Helvetica,sans-Serif" font-size="14.00"> </text>
<!-- SeuratPreparing -->
<g id="node1" class="node">
<title>SeuratPreparing</title>
<g id="a_node1"><a xlink:title="Load, prepare and apply QC to data, using `Seurat`">
<path fill="none" stroke="black" d="M314,-324C314,-324 234,-324 234,-324 228,-324 222,-318 222,-312 222,-312 222,-300 222,-300 222,-294 228,-288 234,-288 234,-288 314,-288 314,-288 320,-288 326,-294 326,-300 326,-300 326,-312 326,-312 326,-318 320,-324 314,-324"/>
<text text-anchor="middle" x="274" y="-302.9" font-family="Helvetica,sans-Serif" font-size="12.00">SeuratPreparing</text>
</a>
</g>
</g>
<!-- SeuratClusteringOfAllCells -->
<g id="node3" class="node">
<title>SeuratClusteringOfAllCells</title>
<g id="a_node3"><a xlink:title="Cluster all cells using Seurat">
<path fill="none" stroke="black" d="M322.5,-252C322.5,-252 185.5,-252 185.5,-252 179.5,-252 173.5,-246 173.5,-240 173.5,-240 173.5,-228 173.5,-228 173.5,-222 179.5,-216 185.5,-216 185.5,-216 322.5,-216 322.5,-216 328.5,-216 334.5,-222 334.5,-228 334.5,-228 334.5,-240 334.5,-240 334.5,-246 328.5,-252 322.5,-252"/>
<text text-anchor="middle" x="254" y="-230.9" font-family="Helvetica,sans-Serif" font-size="12.00">SeuratClusteringOfAllCells</text>
</a>
</g>
</g>
<!-- SeuratPreparing&#45;&gt;SeuratClusteringOfAllCells -->
<g id="edge6" class="edge">
<title>SeuratPreparing&#45;&gt;SeuratClusteringOfAllCells</title>
<path fill="none" stroke="black" d="M269.06,-287.7C266.66,-279.3 263.73,-269.07 261.1,-259.86"/>
<polygon fill="black" stroke="black" points="263.78,-259.03 258.89,-252.1 258.39,-260.57 263.78,-259.03"/>
</g>
<!-- SampleInfo -->
<g id="node2" class="node">
<title>SampleInfo</title>
<g id="a_node2"><a xlink:title="List sample information and perform statistics">
<polygon fill="none" stroke="black" points="314,-396 246.93,-378 314,-360 381.07,-378 314,-396"/>
<text text-anchor="middle" x="314" y="-374.9" font-family="Helvetica,sans-Serif" font-size="12.00">SampleInfo</text>
</a>
</g>
</g>
<!-- SampleInfo&#45;&gt;SeuratPreparing -->
<g id="edge1" class="edge">
<title>SampleInfo&#45;&gt;SeuratPreparing</title>
<path fill="none" stroke="black" d="M305.52,-362.15C300.39,-353.18 293.72,-341.52 287.85,-331.23"/>
<polygon fill="black" stroke="black" points="290.14,-329.6 283.74,-324.04 285.28,-332.38 290.14,-329.6"/>
</g>
<!-- ImmunarchLoading -->
<g id="node10" class="node">
<title>ImmunarchLoading</title>
<path fill="none" stroke="black" d="M432.5,-180C432.5,-180 337.5,-180 337.5,-180 331.5,-180 325.5,-174 325.5,-168 325.5,-168 325.5,-156 325.5,-156 325.5,-150 331.5,-144 337.5,-144 337.5,-144 432.5,-144 432.5,-144 438.5,-144 444.5,-150 444.5,-156 444.5,-156 444.5,-168 444.5,-168 444.5,-174 438.5,-180 432.5,-180"/>
<text text-anchor="middle" x="385" y="-158.9" font-family="Helvetica,sans-Serif" font-size="12.00">ImmunarchLoading</text>
</g>
<!-- SampleInfo&#45;&gt;ImmunarchLoading -->
<g id="edge5" class="edge">
<title>SampleInfo&#45;&gt;ImmunarchLoading</title>
<path fill="none" stroke="black" d="M320.56,-361.35C324.87,-350.86 330.52,-336.69 335,-324 351.81,-276.37 368.68,-219.79 377.89,-187.97"/>
<polygon fill="black" stroke="black" points="380.64,-188.52 380.17,-180.06 375.26,-186.97 380.64,-188.52"/>
</g>
<!-- CellTypeAnnotation -->
<g id="node9" class="node">
<title>CellTypeAnnotation</title>
<g id="a_node9"><a xlink:title="Annotate the T cell clusters.">
<path fill="none" stroke="black" d="M288,-180C288,-180 190,-180 190,-180 184,-180 178,-174 178,-168 178,-168 178,-156 178,-156 178,-150 184,-144 190,-144 190,-144 288,-144 288,-144 294,-144 300,-150 300,-156 300,-156 300,-168 300,-168 300,-174 294,-180 288,-180"/>
<text text-anchor="middle" x="239" y="-158.9" font-family="Helvetica,sans-Serif" font-size="12.00">CellTypeAnnotation</text>
</a>
</g>
</g>
<!-- SeuratClusteringOfAllCells&#45;&gt;CellTypeAnnotation -->
<g id="edge3" class="edge">
<title>SeuratClusteringOfAllCells&#45;&gt;CellTypeAnnotation</title>
<path fill="none" stroke="black" d="M250.29,-215.7C248.51,-207.39 246.35,-197.28 244.39,-188.14"/>
<polygon fill="black" stroke="black" points="247.08,-187.34 242.67,-180.1 241.6,-188.51 247.08,-187.34"/>
</g>
<!-- SeuratMetadataMutater -->
<g id="node4" class="node">
<title>SeuratMetadataMutater</title>
<g id="a_node4"><a xlink:title="Attach TCR clone information as meta columns to Seurat object">
<path fill="none" stroke="black" d="M394.5,-108C394.5,-108 277.5,-108 277.5,-108 271.5,-108 265.5,-102 265.5,-96 265.5,-96 265.5,-84 265.5,-84 265.5,-78 271.5,-72 277.5,-72 277.5,-72 394.5,-72 394.5,-72 400.5,-72 406.5,-78 406.5,-84 406.5,-84 406.5,-96 406.5,-96 406.5,-102 400.5,-108 394.5,-108"/>
<text text-anchor="middle" x="336" y="-86.9" font-family="Helvetica,sans-Serif" font-size="12.00">SeuratMetadataMutater</text>
</a>
</g>
</g>
<!-- SeuratClusterStats -->
<g id="node7" class="node">
<title>SeuratClusterStats</title>
<polygon fill="none" stroke="black" points="378.5,-36 261.5,-36 261.5,0 378.5,0 378.5,-36"/>
<text text-anchor="middle" x="320" y="-14.9" font-family="Helvetica,sans-Serif" font-size="12.00">SeuratClusterStats</text>
</g>
<!-- SeuratMetadataMutater&#45;&gt;SeuratClusterStats -->
<g id="edge4" class="edge">
<title>SeuratMetadataMutater&#45;&gt;SeuratClusterStats</title>
<path fill="none" stroke="black" d="M332.04,-71.7C330.15,-63.39 327.83,-53.28 325.75,-44.14"/>
<polygon fill="black" stroke="black" points="328.42,-43.28 323.91,-36.1 322.96,-44.53 328.42,-43.28"/>
</g>
<!-- Immunarch -->
<g id="node12" class="node">
<title>Immunarch</title>
<polygon fill="none" stroke="black" points="473,-36 397,-36 397,0 473,0 473,-36"/>
<text text-anchor="middle" x="435" y="-14.9" font-family="Helvetica,sans-Serif" font-size="12.00">Immunarch</text>
</g>
<!-- SeuratMetadataMutater&#45;&gt;Immunarch -->
<g id="edge11" class="edge">
<title>SeuratMetadataMutater&#45;&gt;Immunarch</title>
<path fill="none" stroke="black" d="M360.22,-71.88C373.4,-62.55 389.86,-50.92 403.97,-40.94"/>
<polygon fill="black" stroke="black" points="405.77,-43.09 410.69,-36.19 402.54,-38.52 405.77,-43.09"/>
</g>
<!-- ClusterMarkers -->
<g id="node5" class="node">
<title>ClusterMarkers</title>
<g id="a_node5"><a xlink:title="Markers for clusters of T cells.">
<polygon fill="none" stroke="black" points="98,-108 0,-108 0,-72 98,-72 98,-108"/>
<text text-anchor="middle" x="49" y="-86.9" font-family="Helvetica,sans-Serif" font-size="12.00">ClusterMarkers</text>
</a>
</g>
</g>
<!-- VJUsage -->
<g id="node6" class="node">
<title>VJUsage</title>
<polygon fill="none" stroke="black" points="562,-36 496,-36 496,0 562,0 562,-36"/>
<text text-anchor="middle" x="529" y="-14.9" font-family="Helvetica,sans-Serif" font-size="12.00">VJUsage</text>
</g>
<!-- Immunarch2VDJtools -->
<g id="node8" class="node">
<title>Immunarch2VDJtools</title>
<path fill="none" stroke="black" d="M582.5,-108C582.5,-108 475.5,-108 475.5,-108 469.5,-108 463.5,-102 463.5,-96 463.5,-96 463.5,-84 463.5,-84 463.5,-78 469.5,-72 475.5,-72 475.5,-72 582.5,-72 582.5,-72 588.5,-72 594.5,-78 594.5,-84 594.5,-84 594.5,-96 594.5,-96 594.5,-102 588.5,-108 582.5,-108"/>
<text text-anchor="middle" x="529" y="-86.9" font-family="Helvetica,sans-Serif" font-size="12.00">Immunarch2VDJtools</text>
</g>
<!-- Immunarch2VDJtools&#45;&gt;VJUsage -->
<g id="edge8" class="edge">
<title>Immunarch2VDJtools&#45;&gt;VJUsage</title>
<path fill="none" stroke="black" d="M529,-71.7C529,-63.39 529,-53.28 529,-44.14"/>
<polygon fill="black" stroke="black" points="531.8,-44.1 529,-36.1 526.2,-44.1 531.8,-44.1"/>
</g>
<!-- CellTypeAnnotation&#45;&gt;SeuratMetadataMutater -->
<g id="edge9" class="edge">
<title>CellTypeAnnotation&#45;&gt;SeuratMetadataMutater</title>
<path fill="none" stroke="black" d="M262.98,-143.7C275.9,-134.37 291.97,-122.77 305.74,-112.83"/>
<polygon fill="black" stroke="black" points="307.45,-115.06 312.3,-108.1 304.17,-110.52 307.45,-115.06"/>
</g>
<!-- CellTypeAnnotation&#45;&gt;ClusterMarkers -->
<g id="edge12" class="edge">
<title>CellTypeAnnotation&#45;&gt;ClusterMarkers</title>
<path fill="none" stroke="black" d="M192.52,-143.88C165.51,-133.92 131.34,-121.34 103.12,-110.94"/>
<polygon fill="black" stroke="black" points="103.8,-108.21 95.33,-108.07 101.87,-113.46 103.8,-108.21"/>
</g>
<!-- TopExpressingGenes -->
<g id="node11" class="node">
<title>TopExpressingGenes</title>
<g id="a_node11"><a xlink:title="Top expressing genes for clusters of T cells.">
<polygon fill="none" stroke="black" points="247.5,-108 116.5,-108 116.5,-72 247.5,-72 247.5,-108"/>
<text text-anchor="middle" x="182" y="-86.9" font-family="Helvetica,sans-Serif" font-size="12.00">TopExpressingGenes</text>
</a>
</g>
</g>
<!-- CellTypeAnnotation&#45;&gt;TopExpressingGenes -->
<g id="edge7" class="edge">
<title>CellTypeAnnotation&#45;&gt;TopExpressingGenes</title>
<path fill="none" stroke="black" d="M224.91,-143.7C217.73,-134.88 208.9,-124.03 201.11,-114.47"/>
<polygon fill="black" stroke="black" points="203.15,-112.54 195.93,-108.1 198.81,-116.08 203.15,-112.54"/>
</g>
<!-- ImmunarchLoading&#45;&gt;SeuratMetadataMutater -->
<g id="edge10" class="edge">
<title>ImmunarchLoading&#45;&gt;SeuratMetadataMutater</title>
<path fill="none" stroke="black" d="M372.89,-143.7C366.78,-134.97 359.27,-124.24 352.63,-114.75"/>
<polygon fill="black" stroke="black" points="354.85,-113.05 347.97,-108.1 350.27,-116.26 354.85,-113.05"/>
</g>
<!-- ImmunarchLoading&#45;&gt;Immunarch2VDJtools -->
<g id="edge13" class="edge">
<title>ImmunarchLoading&#45;&gt;Immunarch2VDJtools</title>
<path fill="none" stroke="black" d="M420.23,-143.88C440.19,-134.17 465.3,-121.96 486.37,-111.72"/>
<polygon fill="black" stroke="black" points="487.67,-114.21 493.64,-108.19 485.22,-109.17 487.67,-114.21"/>
</g>
<!-- ImmunarchLoading&#45;&gt;Immunarch -->
<g id="edge2" class="edge">
<title>ImmunarchLoading&#45;&gt;Immunarch</title>
<path fill="none" stroke="black" d="M397.11,-143.57C403.56,-133.56 411.15,-120.52 416,-108 424,-87.36 428.93,-62.66 431.76,-44.53"/>
<polygon fill="black" stroke="black" points="434.59,-44.52 432.98,-36.2 429.05,-43.7 434.59,-44.52"/>
</g>
</g>
</svg>
